<?xml version="1.0" encoding="utf-8" standalone="no"?>
<!DOCTYPE svg PUBLIC "-//W3C//DTD SVG 1.1//EN"
  "http://www.w3.org/Graphics/SVG/1.1/DTD/svg11.dtd">
<svg xmlns:xlink="http://www.w3.org/1999/xlink" width="526.969769pt" height="368.39952pt" viewBox="0 0 526.969769 368.39952" xmlns="http://www.w3.org/2000/svg" version="1.1">
 <metadata>
  <rdf:RDF xmlns:dc="http://purl.org/dc/elements/1.1/" xmlns:cc="http://creativecommons.org/ns#" xmlns:rdf="http://www.w3.org/1999/02/22-rdf-syntax-ns#">
   <cc:Work>
    <dc:type rdf:resource="http://purl.org/dc/dcmitype/StillImage"/>
    <dc:date>2026-05-26T23:18:41.685514</dc:date>
    <dc:format>image/svg+xml</dc:format>
    <dc:creator>
     <cc:Agent>
      <dc:title>Matplotlib v3.10.8, https://matplotlib.org/</dc:title>
     </cc:Agent>
    </dc:creator>
   </cc:Work>
  </rdf:RDF>
 </metadata>
 <defs>
  <style type="text/css">*{stroke-linejoin: round; stroke-linecap: butt}</style>
 </defs>
 <g id="figure_1">
  <g id="patch_1">
   <path d="M 0 368.39952 
L 526.969769 368.39952 
L 526.969769 0 
L 0 0 
z
" style="fill: #ffffff"/>
  </g>
  <g id="axes_1">
   <g id="patch_2">
    <path d="M 47.324063 162.573952 
L 247.826102 162.573952 
L 247.826102 7.2 
L 47.324063 7.2 
z
" style="fill: #eaeaf2"/>
   </g>
   <g id="matplotlib.axis_1">
    <g id="xtick_1">
     <g id="line2d_1">
      <path d="M 56.388165 162.573952 
L 56.388165 7.2 
" clip-path="url(#pc160c387f9)" style="fill: none; stroke: #ffffff; stroke-linecap: round"/>
     </g>
     <g id="line2d_2"/>
    </g>
    <g id="xtick_2">
     <g id="line2d_3">
      <path d="M 102.264035 162.573952 
L 102.264035 7.2 
" clip-path="url(#pc160c387f9)" style="fill: none; stroke: #ffffff; stroke-linecap: round"/>
     </g>
     <g id="line2d_4"/>
    </g>
    <g id="xtick_3">
     <g id="line2d_5">
      <path d="M 148.139905 162.573952 
L 148.139905 7.2 
" clip-path="url(#pc160c387f9)" style="fill: none; stroke: #ffffff; stroke-linecap: round"/>
     </g>
     <g id="line2d_6"/>
    </g>
    <g id="xtick_4">
     <g id="line2d_7">
      <path d="M 194.015775 162.573952 
L 194.015775 7.2 
" clip-path="url(#pc160c387f9)" style="fill: none; stroke: #ffffff; stroke-linecap: round"/>
     </g>
     <g id="line2d_8"/>
    </g>
    <g id="xtick_5">
     <g id="line2d_9">
      <path d="M 239.891644 162.573952 
L 239.891644 7.2 
" clip-path="url(#pc160c387f9)" style="fill: none; stroke: #ffffff; stroke-linecap: round"/>
     </g>
     <g id="line2d_10"/>
    </g>
   </g>
   <g id="matplotlib.axis_2">
    <g id="ytick_1">
     <g id="line2d_11">
      <path d="M 47.324063 155.993588 
L 247.826102 155.993588 
" clip-path="url(#pc160c387f9)" style="fill: none; stroke: #ffffff; stroke-linecap: round"/>
     </g>
     <g id="line2d_12"/>
     <g id="text_1">
      <!-- 10 -->
      <g style="fill: #262626" transform="translate(23.781563 160.932572) scale(0.13 -0.13)">
       <defs>
        <path id="DejaVuSerif-31" d="M 909 0 
L 909 331 
L 1722 331 
L 1722 4213 
L 781 3603 
L 781 4013 
L 1919 4750 
L 2350 4750 
L 2350 331 
L 3163 331 
L 3163 0 
L 909 0 
z
" transform="scale(0.015625)"/>
        <path id="DejaVuSerif-30" d="M 2034 219 
Q 2513 219 2750 744 
Q 2988 1269 2988 2328 
Q 2988 3391 2750 3916 
Q 2513 4441 2034 4441 
Q 1556 4441 1318 3916 
Q 1081 3391 1081 2328 
Q 1081 1269 1318 744 
Q 1556 219 2034 219 
z
M 2034 -91 
Q 1275 -91 848 546 
Q 422 1184 422 2328 
Q 422 3475 848 4112 
Q 1275 4750 2034 4750 
Q 2797 4750 3222 4112 
Q 3647 3475 3647 2328 
Q 3647 1184 3222 546 
Q 2797 -91 2034 -91 
z
" transform="scale(0.015625)"/>
       </defs>
       <use xlink:href="#DejaVuSerif-31"/>
       <use xlink:href="#DejaVuSerif-30" transform="translate(63.623047 0)"/>
      </g>
     </g>
    </g>
    <g id="ytick_2">
     <g id="line2d_13">
      <path d="M 47.324063 115.434044 
L 247.826102 115.434044 
" clip-path="url(#pc160c387f9)" style="fill: none; stroke: #ffffff; stroke-linecap: round"/>
     </g>
     <g id="line2d_14"/>
     <g id="text_2">
      <!-- 15 -->
      <g style="fill: #262626" transform="translate(23.781563 120.373029) scale(0.13 -0.13)">
       <defs>
        <path id="DejaVuSerif-35" d="M 3219 4666 
L 3219 4153 
L 1081 4153 
L 1081 2816 
Q 1244 2928 1461 2984 
Q 1678 3041 1947 3041 
Q 2703 3041 3140 2622 
Q 3578 2203 3578 1478 
Q 3578 738 3136 323 
Q 2694 -91 1894 -91 
Q 1572 -91 1234 -12 
Q 897 66 544 225 
L 544 1131 
L 897 1131 
Q 925 688 1179 453 
Q 1434 219 1894 219 
Q 2388 219 2653 544 
Q 2919 869 2919 1478 
Q 2919 2084 2655 2407 
Q 2391 2731 1894 2731 
Q 1613 2731 1398 2631 
Q 1184 2531 1019 2322 
L 750 2322 
L 750 4666 
L 3219 4666 
z
" transform="scale(0.015625)"/>
       </defs>
       <use xlink:href="#DejaVuSerif-31"/>
       <use xlink:href="#DejaVuSerif-35" transform="translate(63.623047 0)"/>
      </g>
     </g>
    </g>
    <g id="ytick_3">
     <g id="line2d_15">
      <path d="M 47.324063 74.8745 
L 247.826102 74.8745 
" clip-path="url(#pc160c387f9)" style="fill: none; stroke: #ffffff; stroke-linecap: round"/>
     </g>
     <g id="line2d_16"/>
     <g id="text_3">
      <!-- 20 -->
      <g style="fill: #262626" transform="translate(23.781563 79.813485) scale(0.13 -0.13)">
       <defs>
        <path id="DejaVuSerif-32" d="M 819 3553 
L 469 3553 
L 469 4384 
Q 803 4563 1142 4656 
Q 1481 4750 1806 4750 
Q 2534 4750 2956 4397 
Q 3378 4044 3378 3438 
Q 3378 2753 2422 1800 
Q 2347 1728 2309 1691 
L 1131 513 
L 3078 513 
L 3078 1088 
L 3444 1088 
L 3444 0 
L 434 0 
L 434 341 
L 1850 1753 
Q 2319 2222 2519 2614 
Q 2719 3006 2719 3438 
Q 2719 3909 2473 4175 
Q 2228 4441 1797 4441 
Q 1350 4441 1106 4219 
Q 863 3997 819 3553 
z
" transform="scale(0.015625)"/>
       </defs>
       <use xlink:href="#DejaVuSerif-32"/>
       <use xlink:href="#DejaVuSerif-30" transform="translate(63.623047 0)"/>
      </g>
     </g>
    </g>
    <g id="ytick_4">
     <g id="line2d_17">
      <path d="M 47.324063 34.314957 
L 247.826102 34.314957 
" clip-path="url(#pc160c387f9)" style="fill: none; stroke: #ffffff; stroke-linecap: round"/>
     </g>
     <g id="line2d_18"/>
     <g id="text_4">
      <!-- 25 -->
      <g style="fill: #262626" transform="translate(23.781563 39.253941) scale(0.13 -0.13)">
       <use xlink:href="#DejaVuSerif-32"/>
       <use xlink:href="#DejaVuSerif-35" transform="translate(63.623047 0)"/>
      </g>
     </g>
    </g>
    <g id="text_5">
     <!-- $R$ [k$\Omega$] -->
     <g style="fill: #262626" transform="translate(17.077969 106.271976) rotate(-90) scale(0.13 -0.13)">
      <defs>
       <path id="DejaVuSerif-52" d="M 3066 2316 
Q 3284 2256 3442 2114 
Q 3600 1972 3725 1716 
L 4403 331 
L 4972 331 
L 4972 0 
L 3872 0 
L 3144 1484 
Q 2934 1916 2759 2042 
Q 2584 2169 2278 2169 
L 1581 2169 
L 1581 331 
L 2241 331 
L 2241 0 
L 353 0 
L 353 331 
L 947 331 
L 947 4331 
L 353 4331 
L 353 4666 
L 2719 4666 
Q 3400 4666 3770 4341 
Q 4141 4016 4141 3419 
Q 4141 2938 3870 2661 
Q 3600 2384 3066 2316 
z
M 1581 2503 
L 2503 2503 
Q 2975 2503 3200 2726 
Q 3425 2950 3425 3419 
Q 3425 3888 3200 4109 
Q 2975 4331 2503 4331 
L 1581 4331 
L 1581 2503 
z
" transform="scale(0.015625)"/>
       <path id="DejaVuSerif-20" transform="scale(0.015625)"/>
       <path id="DejaVuSerif-5b" d="M 550 4863 
L 2003 4863 
L 2003 4531 
L 1147 4531 
L 1147 -513 
L 2003 -513 
L 2003 -844 
L 550 -844 
L 550 4863 
z
" transform="scale(0.015625)"/>
       <path id="DejaVuSerif-6b" d="M 1831 0 
L 219 0 
L 219 331 
L 738 331 
L 738 4531 
L 184 4531 
L 184 4863 
L 1313 4863 
L 1313 1697 
L 2713 2988 
L 2234 2988 
L 2234 3322 
L 3738 3322 
L 3738 2988 
L 3169 2988 
L 2181 2075 
L 3444 331 
L 3922 331 
L 3922 0 
L 2284 0 
L 2284 331 
L 2759 331 
L 1766 1697 
L 1313 1275 
L 1313 331 
L 1831 331 
L 1831 0 
z
" transform="scale(0.015625)"/>
       <path id="DejaVuSerif-3a9" d="M 3500 513 
L 4550 513 
L 4550 941 
L 4916 941 
L 4916 0 
L 3066 0 
L 3066 569 
Q 3628 788 3917 1273 
Q 4206 1759 4206 2484 
Q 4206 3356 3778 3886 
Q 3350 4416 2656 4416 
Q 1963 4416 1534 3886 
Q 1106 3356 1106 2484 
Q 1106 1756 1393 1272 
Q 1681 788 2241 569 
L 2241 0 
L 397 0 
L 397 941 
L 763 941 
L 763 513 
L 1806 513 
Q 1153 784 772 1334 
Q 391 1884 391 2553 
Q 391 3025 570 3434 
Q 750 3844 1094 4166 
Q 1403 4450 1803 4600 
Q 2203 4750 2656 4750 
Q 3109 4750 3506 4601 
Q 3903 4453 4213 4166 
Q 4559 3844 4740 3433 
Q 4922 3022 4922 2553 
Q 4922 1888 4539 1336 
Q 4156 784 3500 513 
z
" transform="scale(0.015625)"/>
       <path id="DejaVuSerif-5d" d="M 1947 4863 
L 1947 -844 
L 494 -844 
L 494 -513 
L 1350 -513 
L 1350 4531 
L 494 4531 
L 494 4863 
L 1947 4863 
z
" transform="scale(0.015625)"/>
      </defs>
      <use xlink:href="#DejaVuSerif-52" transform="translate(0 0.015625)"/>
      <use xlink:href="#DejaVuSerif-20" transform="translate(75.292969 0.015625)"/>
      <use xlink:href="#DejaVuSerif-5b" transform="translate(107.080078 0.015625)"/>
      <use xlink:href="#DejaVuSerif-6b" transform="translate(146.09375 0.015625)"/>
      <use xlink:href="#DejaVuSerif-3a9" transform="translate(206.689453 0.015625)"/>
      <use xlink:href="#DejaVuSerif-5d" transform="translate(289.599609 0.015625)"/>
     </g>
    </g>
   </g>
   <g id="LineCollection_1">
    <path d="M 56.437792 154.971573 
L 56.515789 154.971573 
" clip-path="url(#pc160c387f9)" style="fill: none; stroke: #35274a; stroke-width: 1.75"/>
    <path d="M 147.933839 136.555809 
L 148.638862 136.555809 
" clip-path="url(#pc160c387f9)" style="fill: none; stroke: #35274a; stroke-width: 1.75"/>
    <path d="M 237.92602 16.973971 
L 238.712373 16.973971 
" clip-path="url(#pc160c387f9)" style="fill: none; stroke: #35274a; stroke-width: 1.75"/>
   </g>
   <g id="LineCollection_2">
    <path d="M 56.47679 155.511499 
L 56.47679 154.431647 
" clip-path="url(#pc160c387f9)" style="fill: none; stroke: #35274a; stroke-width: 1.75"/>
    <path d="M 148.28635 139.188827 
L 148.28635 133.922791 
" clip-path="url(#pc160c387f9)" style="fill: none; stroke: #35274a; stroke-width: 1.75"/>
    <path d="M 238.319196 19.685489 
L 238.319196 14.262452 
" clip-path="url(#pc160c387f9)" style="fill: none; stroke: #35274a; stroke-width: 1.75"/>
   </g>
   <g id="line2d_19">
    <defs>
     <path id="mebf70ac010" d="M 0 4 
L 0 -4 
"/>
    </defs>
    <g clip-path="url(#pc160c387f9)">
     <use xlink:href="#mebf70ac010" x="56.437792" y="154.971573" style="fill: #35274a"/>
     <use xlink:href="#mebf70ac010" x="147.933839" y="136.555809" style="fill: #35274a"/>
     <use xlink:href="#mebf70ac010" x="237.92602" y="16.973971" style="fill: #35274a"/>
    </g>
   </g>
   <g id="line2d_20">
    <g clip-path="url(#pc160c387f9)">
     <use xlink:href="#mebf70ac010" x="56.515789" y="154.971573" style="fill: #35274a"/>
     <use xlink:href="#mebf70ac010" x="148.638862" y="136.555809" style="fill: #35274a"/>
     <use xlink:href="#mebf70ac010" x="238.712373" y="16.973971" style="fill: #35274a"/>
    </g>
   </g>
   <g id="line2d_21">
    <defs>
     <path id="m213f8f98f8" d="M 4 0 
L -4 -0 
"/>
    </defs>
    <g clip-path="url(#pc160c387f9)">
     <use xlink:href="#m213f8f98f8" x="56.47679" y="155.511499" style="fill: #35274a"/>
     <use xlink:href="#m213f8f98f8" x="148.28635" y="139.188827" style="fill: #35274a"/>
     <use xlink:href="#m213f8f98f8" x="238.319196" y="19.685489" style="fill: #35274a"/>
    </g>
   </g>
   <g id="line2d_22">
    <g clip-path="url(#pc160c387f9)">
     <use xlink:href="#m213f8f98f8" x="56.47679" y="154.431647" style="fill: #35274a"/>
     <use xlink:href="#m213f8f98f8" x="148.28635" y="133.922791" style="fill: #35274a"/>
     <use xlink:href="#m213f8f98f8" x="238.319196" y="14.262452" style="fill: #35274a"/>
    </g>
   </g>
   <g id="line2d_23">
    <defs>
     <path id="m4c9e4f400c" d="M 0 5.5 
C 1.458617 5.5 2.857689 4.920485 3.889087 3.889087 
C 4.920485 2.857689 5.5 1.458617 5.5 0 
C 5.5 -1.458617 4.920485 -2.857689 3.889087 -3.889087 
C 2.857689 -4.920485 1.458617 -5.5 0 -5.5 
C -1.458617 -5.5 -2.857689 -4.920485 -3.889087 -3.889087 
C -4.920485 -2.857689 -5.5 -1.458617 -5.5 0 
C -5.5 1.458617 -4.920485 2.857689 -3.889087 3.889087 
C -2.857689 4.920485 -1.458617 5.5 0 5.5 
z
"/>
    </defs>
    <g clip-path="url(#pc160c387f9)">
     <use xlink:href="#m4c9e4f400c" x="56.47679" y="154.971573" style="fill: #35274a"/>
     <use xlink:href="#m4c9e4f400c" x="148.28635" y="136.555809" style="fill: #35274a"/>
     <use xlink:href="#m4c9e4f400c" x="238.319196" y="16.973971" style="fill: #35274a"/>
    </g>
   </g>
   <g id="patch_3">
    <path d="M 47.324063 162.573952 
L 47.324063 7.2 
" style="fill: none"/>
   </g>
   <g id="patch_4">
    <path d="M 247.826102 162.573952 
L 247.826102 7.2 
" style="fill: none"/>
   </g>
   <g id="patch_5">
    <path d="M 47.324063 162.573952 
L 247.826102 162.573952 
" style="fill: none"/>
   </g>
   <g id="patch_6">
    <path d="M 47.324063 7.2 
L 247.826102 7.2 
" style="fill: none"/>
   </g>
  </g>
  <g id="axes_2">
   <g id="patch_7">
    <path d="M 314.795313 162.573952 
L 515.297352 162.573952 
L 515.297352 7.2 
L 314.795313 7.2 
z
" style="fill: #eaeaf2"/>
   </g>
   <g id="matplotlib.axis_3">
    <g id="xtick_6">
     <g id="line2d_24">
      <path d="M 323.859415 162.573952 
L 323.859415 7.2 
" clip-path="url(#p837eaca70d)" style="fill: none; stroke: #ffffff; stroke-linecap: round"/>
     </g>
     <g id="line2d_25"/>
    </g>
    <g id="xtick_7">
     <g id="line2d_26">
      <path d="M 369.735285 162.573952 
L 369.735285 7.2 
" clip-path="url(#p837eaca70d)" style="fill: none; stroke: #ffffff; stroke-linecap: round"/>
     </g>
     <g id="line2d_27"/>
    </g>
    <g id="xtick_8">
     <g id="line2d_28">
      <path d="M 415.611155 162.573952 
L 415.611155 7.2 
" clip-path="url(#p837eaca70d)" style="fill: none; stroke: #ffffff; stroke-linecap: round"/>
     </g>
     <g id="line2d_29"/>
    </g>
    <g id="xtick_9">
     <g id="line2d_30">
      <path d="M 461.487025 162.573952 
L 461.487025 7.2 
" clip-path="url(#p837eaca70d)" style="fill: none; stroke: #ffffff; stroke-linecap: round"/>
     </g>
     <g id="line2d_31"/>
    </g>
    <g id="xtick_10">
     <g id="line2d_32">
      <path d="M 507.362894 162.573952 
L 507.362894 7.2 
" clip-path="url(#p837eaca70d)" style="fill: none; stroke: #ffffff; stroke-linecap: round"/>
     </g>
     <g id="line2d_33"/>
    </g>
   </g>
   <g id="matplotlib.axis_4">
    <g id="ytick_5">
     <g id="line2d_34">
      <path d="M 314.795313 150.805823 
L 515.297352 150.805823 
" clip-path="url(#p837eaca70d)" style="fill: none; stroke: #ffffff; stroke-linecap: round"/>
     </g>
     <g id="line2d_35"/>
     <g id="text_6">
      <!-- 600 -->
      <g style="fill: #262626" transform="translate(282.981563 155.744808) scale(0.13 -0.13)">
       <defs>
        <path id="DejaVuSerif-36" d="M 2094 219 
Q 2534 219 2771 542 
Q 3009 866 3009 1472 
Q 3009 2078 2771 2401 
Q 2534 2725 2094 2725 
Q 1647 2725 1412 2412 
Q 1178 2100 1178 1509 
Q 1178 888 1415 553 
Q 1653 219 2094 219 
z
M 1075 2569 
Q 1288 2803 1556 2918 
Q 1825 3034 2163 3034 
Q 2859 3034 3264 2615 
Q 3669 2197 3669 1472 
Q 3669 763 3233 336 
Q 2797 -91 2069 -91 
Q 1278 -91 853 498 
Q 428 1088 428 2181 
Q 428 3406 931 4078 
Q 1434 4750 2350 4750 
Q 2597 4750 2869 4703 
Q 3141 4656 3425 4563 
L 3425 3794 
L 3072 3794 
Q 3034 4109 2831 4275 
Q 2628 4441 2284 4441 
Q 1678 4441 1381 3981 
Q 1084 3522 1075 2569 
z
" transform="scale(0.015625)"/>
       </defs>
       <use xlink:href="#DejaVuSerif-36"/>
       <use xlink:href="#DejaVuSerif-30" transform="translate(63.623047 0)"/>
       <use xlink:href="#DejaVuSerif-30" transform="translate(127.246094 0)"/>
      </g>
     </g>
    </g>
    <g id="ytick_6">
     <g id="line2d_36">
      <path d="M 314.795313 102.81919 
L 515.297352 102.81919 
" clip-path="url(#p837eaca70d)" style="fill: none; stroke: #ffffff; stroke-linecap: round"/>
     </g>
     <g id="line2d_37"/>
     <g id="text_7">
      <!-- 800 -->
      <g style="fill: #262626" transform="translate(282.981563 107.758175) scale(0.13 -0.13)">
       <defs>
        <path id="DejaVuSerif-38" d="M 2981 1275 
Q 2981 1775 2732 2051 
Q 2484 2328 2034 2328 
Q 1584 2328 1336 2051 
Q 1088 1775 1088 1275 
Q 1088 772 1336 495 
Q 1584 219 2034 219 
Q 2484 219 2732 495 
Q 2981 772 2981 1275 
z
M 2853 3541 
Q 2853 3966 2637 4203 
Q 2422 4441 2034 4441 
Q 1650 4441 1433 4203 
Q 1216 3966 1216 3541 
Q 1216 3113 1433 2875 
Q 1650 2638 2034 2638 
Q 2422 2638 2637 2875 
Q 2853 3113 2853 3541 
z
M 2516 2484 
Q 3047 2413 3344 2092 
Q 3641 1772 3641 1275 
Q 3641 619 3225 264 
Q 2809 -91 2034 -91 
Q 1263 -91 845 264 
Q 428 619 428 1275 
Q 428 1772 725 2092 
Q 1022 2413 1556 2484 
Q 1084 2569 832 2842 
Q 581 3116 581 3541 
Q 581 4103 968 4426 
Q 1356 4750 2034 4750 
Q 2713 4750 3100 4426 
Q 3488 4103 3488 3541 
Q 3488 3116 3236 2842 
Q 2984 2569 2516 2484 
z
" transform="scale(0.015625)"/>
       </defs>
       <use xlink:href="#DejaVuSerif-38"/>
       <use xlink:href="#DejaVuSerif-30" transform="translate(63.623047 0)"/>
       <use xlink:href="#DejaVuSerif-30" transform="translate(127.246094 0)"/>
      </g>
     </g>
    </g>
    <g id="ytick_7">
     <g id="line2d_38">
      <path d="M 314.795313 54.832557 
L 515.297352 54.832557 
" clip-path="url(#p837eaca70d)" style="fill: none; stroke: #ffffff; stroke-linecap: round"/>
     </g>
     <g id="line2d_39"/>
     <g id="text_8">
      <!-- 1000 -->
      <g style="fill: #262626" transform="translate(274.710313 59.771541) scale(0.13 -0.13)">
       <use xlink:href="#DejaVuSerif-31"/>
       <use xlink:href="#DejaVuSerif-30" transform="translate(63.623047 0)"/>
       <use xlink:href="#DejaVuSerif-30" transform="translate(127.246094 0)"/>
       <use xlink:href="#DejaVuSerif-30" transform="translate(190.869141 0)"/>
      </g>
     </g>
    </g>
    <g id="text_9">
     <!-- $L$ [H] -->
     <g style="fill: #262626" transform="translate(268.006719 102.046976) rotate(-90) scale(0.13 -0.13)">
      <defs>
       <path id="DejaVuSerif-4c" d="M 353 0 
L 353 331 
L 947 331 
L 947 4331 
L 353 4331 
L 353 4666 
L 2175 4666 
L 2175 4331 
L 1581 4331 
L 1581 384 
L 3713 384 
L 3713 1166 
L 4097 1166 
L 4097 0 
L 353 0 
z
" transform="scale(0.015625)"/>
       <path id="DejaVuSerif-48" d="M 353 0 
L 353 331 
L 947 331 
L 947 4331 
L 353 4331 
L 353 4666 
L 2175 4666 
L 2175 4331 
L 1581 4331 
L 1581 2719 
L 4000 2719 
L 4000 4331 
L 3406 4331 
L 3406 4666 
L 5228 4666 
L 5228 4331 
L 4634 4331 
L 4634 331 
L 5228 331 
L 5228 0 
L 3406 0 
L 3406 331 
L 4000 331 
L 4000 2338 
L 1581 2338 
L 1581 331 
L 2175 331 
L 2175 0 
L 353 0 
z
" transform="scale(0.015625)"/>
      </defs>
      <use xlink:href="#DejaVuSerif-4c" transform="translate(0 0.015625)"/>
      <use xlink:href="#DejaVuSerif-20" transform="translate(66.40625 0.015625)"/>
      <use xlink:href="#DejaVuSerif-5b" transform="translate(98.193359 0.015625)"/>
      <use xlink:href="#DejaVuSerif-48" transform="translate(137.207031 0.015625)"/>
      <use xlink:href="#DejaVuSerif-5d" transform="translate(224.414062 0.015625)"/>
     </g>
    </g>
   </g>
   <g id="LineCollection_3">
    <path d="M 323.909042 155.344225 
L 323.987039 155.344225 
" clip-path="url(#p837eaca70d)" style="fill: none; stroke: #35274a; stroke-width: 1.75"/>
    <path d="M 415.405089 107.596965 
L 416.110112 107.596965 
" clip-path="url(#p837eaca70d)" style="fill: none; stroke: #35274a; stroke-width: 1.75"/>
    <path d="M 505.39727 14.945425 
L 506.183623 14.945425 
" clip-path="url(#p837eaca70d)" style="fill: none; stroke: #35274a; stroke-width: 1.75"/>
   </g>
   <g id="LineCollection_4">
    <path d="M 323.94804 155.511499 
L 323.94804 155.176951 
" clip-path="url(#p837eaca70d)" style="fill: none; stroke: #35274a; stroke-width: 1.75"/>
    <path d="M 415.7576 108.274204 
L 415.7576 106.919725 
" clip-path="url(#p837eaca70d)" style="fill: none; stroke: #35274a; stroke-width: 1.75"/>
    <path d="M 505.790446 15.628399 
L 505.790446 14.262452 
" clip-path="url(#p837eaca70d)" style="fill: none; stroke: #35274a; stroke-width: 1.75"/>
   </g>
   <g id="line2d_40">
    <g clip-path="url(#p837eaca70d)">
     <use xlink:href="#mebf70ac010" x="323.909042" y="155.344225" style="fill: #35274a"/>
     <use xlink:href="#mebf70ac010" x="415.405089" y="107.596965" style="fill: #35274a"/>
     <use xlink:href="#mebf70ac010" x="505.39727" y="14.945425" style="fill: #35274a"/>
    </g>
   </g>
   <g id="line2d_41">
    <g clip-path="url(#p837eaca70d)">
     <use xlink:href="#mebf70ac010" x="323.987039" y="155.344225" style="fill: #35274a"/>
     <use xlink:href="#mebf70ac010" x="416.110112" y="107.596965" style="fill: #35274a"/>
     <use xlink:href="#mebf70ac010" x="506.183623" y="14.945425" style="fill: #35274a"/>
    </g>
   </g>
   <g id="line2d_42">
    <g clip-path="url(#p837eaca70d)">
     <use xlink:href="#m213f8f98f8" x="323.94804" y="155.511499" style="fill: #35274a"/>
     <use xlink:href="#m213f8f98f8" x="415.7576" y="108.274204" style="fill: #35274a"/>
     <use xlink:href="#m213f8f98f8" x="505.790446" y="15.628399" style="fill: #35274a"/>
    </g>
   </g>
   <g id="line2d_43">
    <g clip-path="url(#p837eaca70d)">
     <use xlink:href="#m213f8f98f8" x="323.94804" y="155.176951" style="fill: #35274a"/>
     <use xlink:href="#m213f8f98f8" x="415.7576" y="106.919725" style="fill: #35274a"/>
     <use xlink:href="#m213f8f98f8" x="505.790446" y="14.262452" style="fill: #35274a"/>
    </g>
   </g>
   <g id="line2d_44">
    <g clip-path="url(#p837eaca70d)">
     <use xlink:href="#m4c9e4f400c" x="323.94804" y="155.344225" style="fill: #35274a"/>
     <use xlink:href="#m4c9e4f400c" x="415.7576" y="107.596965" style="fill: #35274a"/>
     <use xlink:href="#m4c9e4f400c" x="505.790446" y="14.945425" style="fill: #35274a"/>
    </g>
   </g>
   <g id="patch_8">
    <path d="M 314.795313 162.573952 
L 314.795313 7.2 
" style="fill: none"/>
   </g>
   <g id="patch_9">
    <path d="M 515.297352 162.573952 
L 515.297352 7.2 
" style="fill: none"/>
   </g>
   <g id="patch_10">
    <path d="M 314.795313 162.573952 
L 515.297352 162.573952 
" style="fill: none"/>
   </g>
   <g id="patch_11">
    <path d="M 314.795313 7.2 
L 515.297352 7.2 
" style="fill: none"/>
   </g>
  </g>
  <g id="axes_3">
   <g id="patch_12">
    <path d="M 47.324063 325.036395 
L 247.826102 325.036395 
L 247.826102 169.662443 
L 47.324063 169.662443 
z
" style="fill: #eaeaf2"/>
   </g>
   <g id="matplotlib.axis_5">
    <g id="xtick_11">
     <g id="line2d_45">
      <path d="M 56.388165 325.036395 
L 56.388165 169.662443 
" clip-path="url(#pfacf09a917)" style="fill: none; stroke: #ffffff; stroke-linecap: round"/>
     </g>
     <g id="line2d_46"/>
     <g id="text_10">
      <!-- 50 -->
      <g style="fill: #262626" transform="translate(48.116915 341.914364) scale(0.13 -0.13)">
       <use xlink:href="#DejaVuSerif-35"/>
       <use xlink:href="#DejaVuSerif-30" transform="translate(63.623047 0)"/>
      </g>
     </g>
    </g>
    <g id="xtick_12">
     <g id="line2d_47">
      <path d="M 102.264035 325.036395 
L 102.264035 169.662443 
" clip-path="url(#pfacf09a917)" style="fill: none; stroke: #ffffff; stroke-linecap: round"/>
     </g>
     <g id="line2d_48"/>
     <g id="text_11">
      <!-- 100 -->
      <g style="fill: #262626" transform="translate(89.85716 341.914364) scale(0.13 -0.13)">
       <use xlink:href="#DejaVuSerif-31"/>
       <use xlink:href="#DejaVuSerif-30" transform="translate(63.623047 0)"/>
       <use xlink:href="#DejaVuSerif-30" transform="translate(127.246094 0)"/>
      </g>
     </g>
    </g>
    <g id="xtick_13">
     <g id="line2d_49">
      <path d="M 148.139905 325.036395 
L 148.139905 169.662443 
" clip-path="url(#pfacf09a917)" style="fill: none; stroke: #ffffff; stroke-linecap: round"/>
     </g>
     <g id="line2d_50"/>
     <g id="text_12">
      <!-- 150 -->
      <g style="fill: #262626" transform="translate(135.73303 341.914364) scale(0.13 -0.13)">
       <use xlink:href="#DejaVuSerif-31"/>
       <use xlink:href="#DejaVuSerif-35" transform="translate(63.623047 0)"/>
       <use xlink:href="#DejaVuSerif-30" transform="translate(127.246094 0)"/>
      </g>
     </g>
    </g>
    <g id="xtick_14">
     <g id="line2d_51">
      <path d="M 194.015775 325.036395 
L 194.015775 169.662443 
" clip-path="url(#pfacf09a917)" style="fill: none; stroke: #ffffff; stroke-linecap: round"/>
     </g>
     <g id="line2d_52"/>
     <g id="text_13">
      <!-- 200 -->
      <g style="fill: #262626" transform="translate(181.6089 341.914364) scale(0.13 -0.13)">
       <use xlink:href="#DejaVuSerif-32"/>
       <use xlink:href="#DejaVuSerif-30" transform="translate(63.623047 0)"/>
       <use xlink:href="#DejaVuSerif-30" transform="translate(127.246094 0)"/>
      </g>
     </g>
    </g>
    <g id="xtick_15">
     <g id="line2d_53">
      <path d="M 239.891644 325.036395 
L 239.891644 169.662443 
" clip-path="url(#pfacf09a917)" style="fill: none; stroke: #ffffff; stroke-linecap: round"/>
     </g>
     <g id="line2d_54"/>
     <g id="text_14">
      <!-- 250 -->
      <g style="fill: #262626" transform="translate(227.484769 341.914364) scale(0.13 -0.13)">
       <use xlink:href="#DejaVuSerif-32"/>
       <use xlink:href="#DejaVuSerif-35" transform="translate(63.623047 0)"/>
       <use xlink:href="#DejaVuSerif-30" transform="translate(127.246094 0)"/>
      </g>
     </g>
    </g>
    <g id="text_15">
     <!-- $f_0$ [kHz] -->
     <g style="fill: #262626" transform="translate(121.835082 358.495926) scale(0.13 -0.13)">
      <defs>
       <path id="DejaVuSerif-66" d="M 2753 4078 
L 2450 4078 
Q 2447 4313 2317 4434 
Q 2188 4556 1941 4556 
Q 1619 4556 1487 4379 
Q 1356 4203 1356 3750 
L 1356 3322 
L 2284 3322 
L 2284 2988 
L 1356 2988 
L 1356 331 
L 2094 331 
L 2094 0 
L 231 0 
L 231 331 
L 781 331 
L 781 2988 
L 231 2988 
L 231 3322 
L 781 3322 
L 781 3738 
Q 781 4294 1070 4578 
Q 1359 4863 1919 4863 
Q 2128 4863 2337 4825 
Q 2547 4788 2753 4709 
L 2753 4078 
z
" transform="scale(0.015625)"/>
       <path id="DejaVuSerif-7a" d="M 256 0 
L 256 269 
L 2338 2988 
L 691 2988 
L 691 2413 
L 359 2413 
L 359 3322 
L 3078 3322 
L 3078 3053 
L 997 331 
L 2803 331 
L 2803 934 
L 3138 934 
L 3138 0 
L 256 0 
z
" transform="scale(0.015625)"/>
      </defs>
      <use xlink:href="#DejaVuSerif-66" transform="translate(0 0.015625)"/>
      <use xlink:href="#DejaVuSerif-30" transform="translate(37.920078 -15.55625) scale(0.7)"/>
      <use xlink:href="#DejaVuSerif-20" transform="translate(85.051523 0.015625)"/>
      <use xlink:href="#DejaVuSerif-5b" transform="translate(116.838633 0.015625)"/>
      <use xlink:href="#DejaVuSerif-6b" transform="translate(155.852305 0.015625)"/>
      <use xlink:href="#DejaVuSerif-48" transform="translate(216.448008 0.015625)"/>
      <use xlink:href="#DejaVuSerif-7a" transform="translate(303.655039 0.015625)"/>
      <use xlink:href="#DejaVuSerif-5d" transform="translate(356.340586 0.015625)"/>
     </g>
    </g>
   </g>
   <g id="matplotlib.axis_6">
    <g id="ytick_8">
     <g id="line2d_55">
      <path d="M 47.324063 320.887559 
L 247.826102 320.887559 
" clip-path="url(#pfacf09a917)" style="fill: none; stroke: #ffffff; stroke-linecap: round"/>
     </g>
     <g id="line2d_56"/>
     <g id="text_16">
      <!-- 0 -->
      <g style="fill: #262626" transform="translate(32.052813 325.826543) scale(0.13 -0.13)">
       <use xlink:href="#DejaVuSerif-30"/>
      </g>
     </g>
    </g>
    <g id="ytick_9">
     <g id="line2d_57">
      <path d="M 47.324063 279.438228 
L 247.826102 279.438228 
" clip-path="url(#pfacf09a917)" style="fill: none; stroke: #ffffff; stroke-linecap: round"/>
     </g>
     <g id="line2d_58"/>
     <g id="text_17">
      <!-- 5 -->
      <g style="fill: #262626" transform="translate(32.052813 284.377212) scale(0.13 -0.13)">
       <use xlink:href="#DejaVuSerif-35"/>
      </g>
     </g>
    </g>
    <g id="ytick_10">
     <g id="line2d_59">
      <path d="M 47.324063 237.988897 
L 247.826102 237.988897 
" clip-path="url(#pfacf09a917)" style="fill: none; stroke: #ffffff; stroke-linecap: round"/>
     </g>
     <g id="line2d_60"/>
     <g id="text_18">
      <!-- 10 -->
      <g style="fill: #262626" transform="translate(23.781563 242.927881) scale(0.13 -0.13)">
       <use xlink:href="#DejaVuSerif-31"/>
       <use xlink:href="#DejaVuSerif-30" transform="translate(63.623047 0)"/>
      </g>
     </g>
    </g>
    <g id="ytick_11">
     <g id="line2d_61">
      <path d="M 47.324063 196.539566 
L 247.826102 196.539566 
" clip-path="url(#pfacf09a917)" style="fill: none; stroke: #ffffff; stroke-linecap: round"/>
     </g>
     <g id="line2d_62"/>
     <g id="text_19">
      <!-- 15 -->
      <g style="fill: #262626" transform="translate(23.781563 201.478551) scale(0.13 -0.13)">
       <use xlink:href="#DejaVuSerif-31"/>
       <use xlink:href="#DejaVuSerif-35" transform="translate(63.623047 0)"/>
      </g>
     </g>
    </g>
    <g id="text_20">
     <!-- $C$ [fF] -->
     <g style="fill: #262626" transform="translate(17.077969 266.394419) rotate(-90) scale(0.13 -0.13)">
      <defs>
       <path id="DejaVuSerif-43" d="M 4513 1234 
Q 4306 581 3820 245 
Q 3334 -91 2591 -91 
Q 2134 -91 1743 65 
Q 1353 222 1050 525 
Q 700 875 529 1320 
Q 359 1766 359 2328 
Q 359 3416 987 4083 
Q 1616 4750 2644 4750 
Q 3025 4750 3456 4650 
Q 3888 4550 4384 4347 
L 4384 3272 
L 4031 3272 
Q 3916 3859 3567 4137 
Q 3219 4416 2591 4416 
Q 1844 4416 1459 3886 
Q 1075 3356 1075 2328 
Q 1075 1303 1459 773 
Q 1844 244 2591 244 
Q 3113 244 3450 492 
Q 3788 741 3938 1234 
L 4513 1234 
z
" transform="scale(0.015625)"/>
       <path id="DejaVuSerif-46" d="M 353 0 
L 353 331 
L 947 331 
L 947 4331 
L 353 4331 
L 353 4666 
L 4172 4666 
L 4172 3628 
L 3788 3628 
L 3788 4281 
L 1581 4281 
L 1581 2719 
L 3175 2719 
L 3175 3303 
L 3559 3303 
L 3559 1753 
L 3175 1753 
L 3175 2338 
L 1581 2338 
L 1581 331 
L 2328 331 
L 2328 0 
L 353 0 
z
" transform="scale(0.015625)"/>
      </defs>
      <use xlink:href="#DejaVuSerif-43" transform="translate(0 0.015625)"/>
      <use xlink:href="#DejaVuSerif-20" transform="translate(76.513672 0.015625)"/>
      <use xlink:href="#DejaVuSerif-5b" transform="translate(108.300781 0.015625)"/>
      <use xlink:href="#DejaVuSerif-66" transform="translate(147.314453 0.015625)"/>
      <use xlink:href="#DejaVuSerif-46" transform="translate(184.326172 0.015625)"/>
      <use xlink:href="#DejaVuSerif-5d" transform="translate(253.710938 0.015625)"/>
     </g>
    </g>
   </g>
   <g id="LineCollection_5">
    <path d="M 56.437792 176.897686 
L 56.515789 176.897686 
" clip-path="url(#pfacf09a917)" style="fill: none; stroke: #35274a; stroke-width: 1.75"/>
    <path d="M 147.933839 308.94937 
L 148.638862 308.94937 
" clip-path="url(#pfacf09a917)" style="fill: none; stroke: #35274a; stroke-width: 1.75"/>
    <path d="M 237.92602 317.966813 
L 238.712373 317.966813 
" clip-path="url(#pfacf09a917)" style="fill: none; stroke: #35274a; stroke-width: 1.75"/>
   </g>
   <g id="LineCollection_6">
    <path d="M 56.47679 177.070476 
L 56.47679 176.724896 
" clip-path="url(#pfacf09a917)" style="fill: none; stroke: #35274a; stroke-width: 1.75"/>
    <path d="M 148.28635 308.992569 
L 148.28635 308.906171 
" clip-path="url(#pfacf09a917)" style="fill: none; stroke: #35274a; stroke-width: 1.75"/>
    <path d="M 238.319196 317.973943 
L 238.319196 317.959684 
" clip-path="url(#pfacf09a917)" style="fill: none; stroke: #35274a; stroke-width: 1.75"/>
   </g>
   <g id="line2d_63">
    <g clip-path="url(#pfacf09a917)">
     <use xlink:href="#mebf70ac010" x="56.437792" y="176.897686" style="fill: #35274a"/>
     <use xlink:href="#mebf70ac010" x="147.933839" y="308.94937" style="fill: #35274a"/>
     <use xlink:href="#mebf70ac010" x="237.92602" y="317.966813" style="fill: #35274a"/>
    </g>
   </g>
   <g id="line2d_64">
    <g clip-path="url(#pfacf09a917)">
     <use xlink:href="#mebf70ac010" x="56.515789" y="176.897686" style="fill: #35274a"/>
     <use xlink:href="#mebf70ac010" x="148.638862" y="308.94937" style="fill: #35274a"/>
     <use xlink:href="#mebf70ac010" x="238.712373" y="317.966813" style="fill: #35274a"/>
    </g>
   </g>
   <g id="line2d_65">
    <g clip-path="url(#pfacf09a917)">
     <use xlink:href="#m213f8f98f8" x="56.47679" y="177.070476" style="fill: #35274a"/>
     <use xlink:href="#m213f8f98f8" x="148.28635" y="308.992569" style="fill: #35274a"/>
     <use xlink:href="#m213f8f98f8" x="238.319196" y="317.973943" style="fill: #35274a"/>
    </g>
   </g>
   <g id="line2d_66">
    <g clip-path="url(#pfacf09a917)">
     <use xlink:href="#m213f8f98f8" x="56.47679" y="176.724896" style="fill: #35274a"/>
     <use xlink:href="#m213f8f98f8" x="148.28635" y="308.906171" style="fill: #35274a"/>
     <use xlink:href="#m213f8f98f8" x="238.319196" y="317.959684" style="fill: #35274a"/>
    </g>
   </g>
   <g id="line2d_67">
    <g clip-path="url(#pfacf09a917)">
     <use xlink:href="#m4c9e4f400c" x="56.47679" y="176.897686" style="fill: #35274a"/>
     <use xlink:href="#m4c9e4f400c" x="148.28635" y="308.94937" style="fill: #35274a"/>
     <use xlink:href="#m4c9e4f400c" x="238.319196" y="317.966813" style="fill: #35274a"/>
    </g>
   </g>
   <g id="patch_13">
    <path d="M 47.324063 325.036395 
L 47.324063 169.662443 
" style="fill: none"/>
   </g>
   <g id="patch_14">
    <path d="M 247.826102 325.036395 
L 247.826102 169.662443 
" style="fill: none"/>
   </g>
   <g id="patch_15">
    <path d="M 47.324063 325.036395 
L 247.826102 325.036395 
" style="fill: none"/>
   </g>
   <g id="patch_16">
    <path d="M 47.324063 169.662443 
L 247.826102 169.662443 
" style="fill: none"/>
   </g>
  </g>
  <g id="axes_4">
   <g id="patch_17">
    <path d="M 314.795313 325.036395 
L 515.297352 325.036395 
L 515.297352 169.662443 
L 314.795313 169.662443 
z
" style="fill: #eaeaf2"/>
   </g>
   <g id="matplotlib.axis_7">
    <g id="xtick_16">
     <g id="line2d_68">
      <path d="M 323.859415 325.036395 
L 323.859415 169.662443 
" clip-path="url(#pb261e21fe0)" style="fill: none; stroke: #ffffff; stroke-linecap: round"/>
     </g>
     <g id="line2d_69"/>
     <g id="text_21">
      <!-- 50 -->
      <g style="fill: #262626" transform="translate(315.588165 341.914364) scale(0.13 -0.13)">
       <use xlink:href="#DejaVuSerif-35"/>
       <use xlink:href="#DejaVuSerif-30" transform="translate(63.623047 0)"/>
      </g>
     </g>
    </g>
    <g id="xtick_17">
     <g id="line2d_70">
      <path d="M 369.735285 325.036395 
L 369.735285 169.662443 
" clip-path="url(#pb261e21fe0)" style="fill: none; stroke: #ffffff; stroke-linecap: round"/>
     </g>
     <g id="line2d_71"/>
     <g id="text_22">
      <!-- 100 -->
      <g style="fill: #262626" transform="translate(357.32841 341.914364) scale(0.13 -0.13)">
       <use xlink:href="#DejaVuSerif-31"/>
       <use xlink:href="#DejaVuSerif-30" transform="translate(63.623047 0)"/>
       <use xlink:href="#DejaVuSerif-30" transform="translate(127.246094 0)"/>
      </g>
     </g>
    </g>
    <g id="xtick_18">
     <g id="line2d_72">
      <path d="M 415.611155 325.036395 
L 415.611155 169.662443 
" clip-path="url(#pb261e21fe0)" style="fill: none; stroke: #ffffff; stroke-linecap: round"/>
     </g>
     <g id="line2d_73"/>
     <g id="text_23">
      <!-- 150 -->
      <g style="fill: #262626" transform="translate(403.20428 341.914364) scale(0.13 -0.13)">
       <use xlink:href="#DejaVuSerif-31"/>
       <use xlink:href="#DejaVuSerif-35" transform="translate(63.623047 0)"/>
       <use xlink:href="#DejaVuSerif-30" transform="translate(127.246094 0)"/>
      </g>
     </g>
    </g>
    <g id="xtick_19">
     <g id="line2d_74">
      <path d="M 461.487025 325.036395 
L 461.487025 169.662443 
" clip-path="url(#pb261e21fe0)" style="fill: none; stroke: #ffffff; stroke-linecap: round"/>
     </g>
     <g id="line2d_75"/>
     <g id="text_24">
      <!-- 200 -->
      <g style="fill: #262626" transform="translate(449.08015 341.914364) scale(0.13 -0.13)">
       <use xlink:href="#DejaVuSerif-32"/>
       <use xlink:href="#DejaVuSerif-30" transform="translate(63.623047 0)"/>
       <use xlink:href="#DejaVuSerif-30" transform="translate(127.246094 0)"/>
      </g>
     </g>
    </g>
    <g id="xtick_20">
     <g id="line2d_76">
      <path d="M 507.362894 325.036395 
L 507.362894 169.662443 
" clip-path="url(#pb261e21fe0)" style="fill: none; stroke: #ffffff; stroke-linecap: round"/>
     </g>
     <g id="line2d_77"/>
     <g id="text_25">
      <!-- 250 -->
      <g style="fill: #262626" transform="translate(494.956019 341.914364) scale(0.13 -0.13)">
       <use xlink:href="#DejaVuSerif-32"/>
       <use xlink:href="#DejaVuSerif-35" transform="translate(63.623047 0)"/>
       <use xlink:href="#DejaVuSerif-30" transform="translate(127.246094 0)"/>
      </g>
     </g>
    </g>
    <g id="text_26">
     <!-- $f_0$ [kHz] -->
     <g style="fill: #262626" transform="translate(389.306332 358.495926) scale(0.13 -0.13)">
      <use xlink:href="#DejaVuSerif-66" transform="translate(0 0.015625)"/>
      <use xlink:href="#DejaVuSerif-30" transform="translate(37.920078 -15.55625) scale(0.7)"/>
      <use xlink:href="#DejaVuSerif-20" transform="translate(85.051523 0.015625)"/>
      <use xlink:href="#DejaVuSerif-5b" transform="translate(116.838633 0.015625)"/>
      <use xlink:href="#DejaVuSerif-6b" transform="translate(155.852305 0.015625)"/>
      <use xlink:href="#DejaVuSerif-48" transform="translate(216.448008 0.015625)"/>
      <use xlink:href="#DejaVuSerif-7a" transform="translate(303.655039 0.015625)"/>
      <use xlink:href="#DejaVuSerif-5d" transform="translate(356.340586 0.015625)"/>
     </g>
    </g>
   </g>
   <g id="matplotlib.axis_8">
    <g id="ytick_12">
     <g id="line2d_78">
      <path d="M 314.795313 312.92541 
L 515.297352 312.92541 
" clip-path="url(#pb261e21fe0)" style="fill: none; stroke: #ffffff; stroke-linecap: round"/>
     </g>
     <g id="line2d_79"/>
     <g id="text_27">
      <!-- 1.25 -->
      <g style="fill: #262626" transform="translate(278.85 317.864395) scale(0.13 -0.13)">
       <defs>
        <path id="DejaVuSerif-2e" d="M 603 325 
Q 603 500 722 622 
Q 841 744 1019 744 
Q 1191 744 1312 622 
Q 1434 500 1434 325 
Q 1434 153 1312 31 
Q 1191 -91 1019 -91 
Q 841 -91 722 29 
Q 603 150 603 325 
z
" transform="scale(0.015625)"/>
       </defs>
       <use xlink:href="#DejaVuSerif-31"/>
       <use xlink:href="#DejaVuSerif-2e" transform="translate(63.623047 0)"/>
       <use xlink:href="#DejaVuSerif-32" transform="translate(95.410156 0)"/>
       <use xlink:href="#DejaVuSerif-35" transform="translate(159.033203 0)"/>
      </g>
     </g>
    </g>
    <g id="ytick_13">
     <g id="line2d_80">
      <path d="M 314.795313 281.150794 
L 515.297352 281.150794 
" clip-path="url(#pb261e21fe0)" style="fill: none; stroke: #ffffff; stroke-linecap: round"/>
     </g>
     <g id="line2d_81"/>
     <g id="text_28">
      <!-- 1.50 -->
      <g style="fill: #262626" transform="translate(278.85 286.089778) scale(0.13 -0.13)">
       <use xlink:href="#DejaVuSerif-31"/>
       <use xlink:href="#DejaVuSerif-2e" transform="translate(63.623047 0)"/>
       <use xlink:href="#DejaVuSerif-35" transform="translate(95.410156 0)"/>
       <use xlink:href="#DejaVuSerif-30" transform="translate(159.033203 0)"/>
      </g>
     </g>
    </g>
    <g id="ytick_14">
     <g id="line2d_82">
      <path d="M 314.795313 249.376177 
L 515.297352 249.376177 
" clip-path="url(#pb261e21fe0)" style="fill: none; stroke: #ffffff; stroke-linecap: round"/>
     </g>
     <g id="line2d_83"/>
     <g id="text_29">
      <!-- 1.75 -->
      <g style="fill: #262626" transform="translate(278.85 254.315161) scale(0.13 -0.13)">
       <defs>
        <path id="DejaVuSerif-37" d="M 3609 4347 
L 1784 0 
L 1319 0 
L 3059 4153 
L 903 4153 
L 903 3578 
L 538 3578 
L 538 4666 
L 3609 4666 
L 3609 4347 
z
" transform="scale(0.015625)"/>
       </defs>
       <use xlink:href="#DejaVuSerif-31"/>
       <use xlink:href="#DejaVuSerif-2e" transform="translate(63.623047 0)"/>
       <use xlink:href="#DejaVuSerif-37" transform="translate(95.410156 0)"/>
       <use xlink:href="#DejaVuSerif-35" transform="translate(159.033203 0)"/>
      </g>
     </g>
    </g>
    <g id="ytick_15">
     <g id="line2d_84">
      <path d="M 314.795313 217.60156 
L 515.297352 217.60156 
" clip-path="url(#pb261e21fe0)" style="fill: none; stroke: #ffffff; stroke-linecap: round"/>
     </g>
     <g id="line2d_85"/>
     <g id="text_30">
      <!-- 2.00 -->
      <g style="fill: #262626" transform="translate(278.85 222.540544) scale(0.13 -0.13)">
       <use xlink:href="#DejaVuSerif-32"/>
       <use xlink:href="#DejaVuSerif-2e" transform="translate(63.623047 0)"/>
       <use xlink:href="#DejaVuSerif-30" transform="translate(95.410156 0)"/>
       <use xlink:href="#DejaVuSerif-30" transform="translate(159.033203 0)"/>
      </g>
     </g>
    </g>
    <g id="ytick_16">
     <g id="line2d_86">
      <path d="M 314.795313 185.826943 
L 515.297352 185.826943 
" clip-path="url(#pb261e21fe0)" style="fill: none; stroke: #ffffff; stroke-linecap: round"/>
     </g>
     <g id="line2d_87"/>
     <g id="text_31">
      <!-- 2.25 -->
      <g style="fill: #262626" transform="translate(278.85 190.765928) scale(0.13 -0.13)">
       <use xlink:href="#DejaVuSerif-32"/>
       <use xlink:href="#DejaVuSerif-2e" transform="translate(63.623047 0)"/>
       <use xlink:href="#DejaVuSerif-32" transform="translate(95.410156 0)"/>
       <use xlink:href="#DejaVuSerif-35" transform="translate(159.033203 0)"/>
      </g>
     </g>
    </g>
    <g id="text_32">
     <!-- $C_2$ [pF] -->
     <g style="fill: #262626" transform="translate(272.12 271.269419) rotate(-90) scale(0.13 -0.13)">
      <defs>
       <path id="DejaVuSerif-70" d="M 1313 1825 
L 1313 1497 
Q 1313 897 1542 583 
Q 1772 269 2209 269 
Q 2650 269 2876 622 
Q 3103 975 3103 1663 
Q 3103 2353 2876 2703 
Q 2650 3053 2209 3053 
Q 1772 3053 1542 2737 
Q 1313 2422 1313 1825 
z
M 738 2988 
L 184 2988 
L 184 3322 
L 1313 3322 
L 1313 2803 
Q 1481 3116 1742 3264 
Q 2003 3413 2388 3413 
Q 3000 3413 3387 2928 
Q 3775 2444 3775 1663 
Q 3775 881 3387 395 
Q 3000 -91 2388 -91 
Q 2003 -91 1742 57 
Q 1481 206 1313 519 
L 1313 -997 
L 1856 -997 
L 1856 -1331 
L 184 -1331 
L 184 -997 
L 738 -997 
L 738 2988 
z
" transform="scale(0.015625)"/>
      </defs>
      <use xlink:href="#DejaVuSerif-43" transform="translate(0 0.015625)"/>
      <use xlink:href="#DejaVuSerif-32" transform="translate(77.422031 -15.55625) scale(0.7)"/>
      <use xlink:href="#DejaVuSerif-20" transform="translate(124.553477 0.015625)"/>
      <use xlink:href="#DejaVuSerif-5b" transform="translate(156.340586 0.015625)"/>
      <use xlink:href="#DejaVuSerif-70" transform="translate(195.354258 0.015625)"/>
      <use xlink:href="#DejaVuSerif-46" transform="translate(259.36793 0.015625)"/>
      <use xlink:href="#DejaVuSerif-5d" transform="translate(328.752695 0.015625)"/>
     </g>
    </g>
   </g>
   <g id="LineCollection_7">
    <path d="M 323.909042 177.071266 
L 323.987039 177.071266 
" clip-path="url(#pb261e21fe0)" style="fill: none; stroke: #f3aa0c; stroke-width: 1.75"/>
    <path d="M 415.405089 255.438736 
L 416.110112 255.438736 
" clip-path="url(#pb261e21fe0)" style="fill: none; stroke: #f3aa0c; stroke-width: 1.75"/>
    <path d="M 505.39727 317.656686 
L 506.183623 317.656686 
" clip-path="url(#pb261e21fe0)" style="fill: none; stroke: #f3aa0c; stroke-width: 1.75"/>
   </g>
   <g id="LineCollection_8">
    <path d="M 323.94804 177.417636 
L 323.94804 176.724896 
" clip-path="url(#pb261e21fe0)" style="fill: none; stroke: #f3aa0c; stroke-width: 1.75"/>
    <path d="M 415.7576 256.191614 
L 415.7576 254.685859 
" clip-path="url(#pb261e21fe0)" style="fill: none; stroke: #f3aa0c; stroke-width: 1.75"/>
    <path d="M 505.790446 317.973943 
L 505.790446 317.339429 
" clip-path="url(#pb261e21fe0)" style="fill: none; stroke: #f3aa0c; stroke-width: 1.75"/>
   </g>
   <g id="line2d_88">
    <defs>
     <path id="m7200712452" d="M 0 4 
L 0 -4 
"/>
    </defs>
    <g clip-path="url(#pb261e21fe0)">
     <use xlink:href="#m7200712452" x="323.909042" y="177.071266" style="fill: #f3aa0c"/>
     <use xlink:href="#m7200712452" x="415.405089" y="255.438736" style="fill: #f3aa0c"/>
     <use xlink:href="#m7200712452" x="505.39727" y="317.656686" style="fill: #f3aa0c"/>
    </g>
   </g>
   <g id="line2d_89">
    <g clip-path="url(#pb261e21fe0)">
     <use xlink:href="#m7200712452" x="323.987039" y="177.071266" style="fill: #f3aa0c"/>
     <use xlink:href="#m7200712452" x="416.110112" y="255.438736" style="fill: #f3aa0c"/>
     <use xlink:href="#m7200712452" x="506.183623" y="317.656686" style="fill: #f3aa0c"/>
    </g>
   </g>
   <g id="line2d_90">
    <defs>
     <path id="m92ff3514de" d="M 4 0 
L -4 -0 
"/>
    </defs>
    <g clip-path="url(#pb261e21fe0)">
     <use xlink:href="#m92ff3514de" x="323.94804" y="177.417636" style="fill: #f3aa0c"/>
     <use xlink:href="#m92ff3514de" x="415.7576" y="256.191614" style="fill: #f3aa0c"/>
     <use xlink:href="#m92ff3514de" x="505.790446" y="317.973943" style="fill: #f3aa0c"/>
    </g>
   </g>
   <g id="line2d_91">
    <g clip-path="url(#pb261e21fe0)">
     <use xlink:href="#m92ff3514de" x="323.94804" y="176.724896" style="fill: #f3aa0c"/>
     <use xlink:href="#m92ff3514de" x="415.7576" y="254.685859" style="fill: #f3aa0c"/>
     <use xlink:href="#m92ff3514de" x="505.790446" y="317.339429" style="fill: #f3aa0c"/>
    </g>
   </g>
   <g id="line2d_92">
    <defs>
     <path id="m4f609e1e01" d="M 0 5.5 
C 1.458617 5.5 2.857689 4.920485 3.889087 3.889087 
C 4.920485 2.857689 5.5 1.458617 5.5 0 
C 5.5 -1.458617 4.920485 -2.857689 3.889087 -3.889087 
C 2.857689 -4.920485 1.458617 -5.5 0 -5.5 
C -1.458617 -5.5 -2.857689 -4.920485 -3.889087 -3.889087 
C -4.920485 -2.857689 -5.5 -1.458617 -5.5 0 
C -5.5 1.458617 -4.920485 2.857689 -3.889087 3.889087 
C -2.857689 4.920485 -1.458617 5.5 0 5.5 
z
"/>
    </defs>
    <g clip-path="url(#pb261e21fe0)">
     <use xlink:href="#m4f609e1e01" x="323.94804" y="177.071266" style="fill: #f3aa0c"/>
     <use xlink:href="#m4f609e1e01" x="415.7576" y="255.438736" style="fill: #f3aa0c"/>
     <use xlink:href="#m4f609e1e01" x="505.790446" y="317.656686" style="fill: #f3aa0c"/>
    </g>
   </g>
   <g id="patch_18">
    <path d="M 314.795313 325.036395 
L 314.795313 169.662443 
" style="fill: none"/>
   </g>
   <g id="patch_19">
    <path d="M 515.297352 325.036395 
L 515.297352 169.662443 
" style="fill: none"/>
   </g>
   <g id="patch_20">
    <path d="M 314.795313 325.036395 
L 515.297352 325.036395 
" style="fill: none"/>
   </g>
   <g id="patch_21">
    <path d="M 314.795313 169.662443 
L 515.297352 169.662443 
" style="fill: none"/>
   </g>
  </g>
 </g>
 <defs>
  <clipPath id="pc160c387f9">
   <rect x="47.324063" y="7.2" width="200.50204" height="155.373952"/>
  </clipPath>
  <clipPath id="p837eaca70d">
   <rect x="314.795313" y="7.2" width="200.50204" height="155.373952"/>
  </clipPath>
  <clipPath id="pfacf09a917">
   <rect x="47.324063" y="169.662443" width="200.50204" height="155.373952"/>
  </clipPath>
  <clipPath id="pb261e21fe0">
   <rect x="314.795313" y="169.662443" width="200.50204" height="155.373952"/>
  </clipPath>
 </defs>
</svg>
