<?xml version="1.0" encoding="utf-8" standalone="no"?>
<!DOCTYPE svg PUBLIC "-//W3C//DTD SVG 1.1//EN"
  "http://www.w3.org/Graphics/SVG/1.1/DTD/svg11.dtd">
<svg xmlns:xlink="http://www.w3.org/1999/xlink" width="295.962827pt" height="217.850937pt" viewBox="0 0 295.962827 217.850937" xmlns="http://www.w3.org/2000/svg" version="1.1">
 <metadata>
  <rdf:RDF xmlns:dc="http://purl.org/dc/elements/1.1/" xmlns:cc="http://creativecommons.org/ns#" xmlns:rdf="http://www.w3.org/1999/02/22-rdf-syntax-ns#">
   <cc:Work>
    <dc:type rdf:resource="http://purl.org/dc/dcmitype/StillImage"/>
    <dc:date>2026-05-24T18:55:05.505427</dc:date>
    <dc:format>image/svg+xml</dc:format>
    <dc:creator>
     <cc:Agent>
      <dc:title>Matplotlib v3.10.8, https://matplotlib.org/</dc:title>
     </cc:Agent>
    </dc:creator>
   </cc:Work>
  </rdf:RDF>
 </metadata>
 <defs>
  <style type="text/css">*{stroke-linejoin: round; stroke-linecap: butt}</style>
 </defs>
 <g id="figure_1">
  <g id="patch_1">
   <path d="M 0 217.850937 
L 295.962827 217.850937 
L 295.962827 0 
L 0 0 
z
" style="fill: #ffffff"/>
  </g>
  <g id="axes_1">
   <g id="patch_2">
    <path d="M 57.1 173.52 
L 280.3 173.52 
L 280.3 7.2 
L 57.1 7.2 
z
" style="fill: #eaeaf2"/>
   </g>
   <g id="matplotlib.axis_1">
    <g id="xtick_1">
     <g id="line2d_1">
      <path d="M 67.245455 173.52 
L 67.245455 7.2 
" clip-path="url(#p9854f374fb)" style="fill: none; stroke: #ffffff; stroke-linecap: round"/>
     </g>
     <g id="line2d_2"/>
     <g id="text_1">
      <!-- 349.0 -->
      <g style="fill: #262626" transform="translate(48.637173 190.397969) scale(0.13 -0.13)">
       <defs>
        <path id="DejaVuSerif-33" d="M 622 4469 
Q 988 4606 1323 4678 
Q 1659 4750 1953 4750 
Q 2638 4750 3022 4454 
Q 3406 4159 3406 3634 
Q 3406 3213 3140 2930 
Q 2875 2647 2388 2547 
Q 2963 2466 3280 2130 
Q 3597 1794 3597 1259 
Q 3597 606 3158 257 
Q 2719 -91 1894 -91 
Q 1528 -91 1179 -12 
Q 831 66 488 225 
L 488 1131 
L 838 1131 
Q 869 681 1141 450 
Q 1413 219 1906 219 
Q 2384 219 2661 495 
Q 2938 772 2938 1253 
Q 2938 1803 2653 2086 
Q 2369 2369 1819 2369 
L 1522 2369 
L 1522 2688 
L 1678 2688 
Q 2225 2688 2498 2914 
Q 2772 3141 2772 3597 
Q 2772 4006 2547 4223 
Q 2322 4441 1900 4441 
Q 1478 4441 1245 4241 
Q 1013 4041 972 3647 
L 622 3647 
L 622 4469 
z
" transform="scale(0.015625)"/>
        <path id="DejaVuSerif-34" d="M 2234 1581 
L 2234 4063 
L 641 1581 
L 2234 1581 
z
M 3609 0 
L 1484 0 
L 1484 331 
L 2234 331 
L 2234 1247 
L 197 1247 
L 197 1588 
L 2241 4750 
L 2859 4750 
L 2859 1581 
L 3750 1581 
L 3750 1247 
L 2859 1247 
L 2859 331 
L 3609 331 
L 3609 0 
z
" transform="scale(0.015625)"/>
        <path id="DejaVuSerif-39" d="M 2994 2091 
Q 2784 1856 2512 1740 
Q 2241 1625 1900 1625 
Q 1206 1625 804 2044 
Q 403 2463 403 3188 
Q 403 3897 839 4323 
Q 1275 4750 2003 4750 
Q 2794 4750 3217 4161 
Q 3641 3572 3641 2478 
Q 3641 1253 3137 581 
Q 2634 -91 1722 -91 
Q 1475 -91 1203 -44 
Q 931 3 647 97 
L 647 872 
L 997 872 
Q 1038 556 1241 387 
Q 1444 219 1784 219 
Q 2391 219 2687 676 
Q 2984 1134 2994 2091 
z
M 1978 4441 
Q 1534 4441 1298 4117 
Q 1063 3794 1063 3188 
Q 1063 2581 1298 2256 
Q 1534 1931 1978 1931 
Q 2422 1931 2658 2245 
Q 2894 2559 2894 3150 
Q 2894 3772 2656 4106 
Q 2419 4441 1978 4441 
z
" transform="scale(0.015625)"/>
        <path id="DejaVuSerif-2e" d="M 603 325 
Q 603 500 722 622 
Q 841 744 1019 744 
Q 1191 744 1312 622 
Q 1434 500 1434 325 
Q 1434 153 1312 31 
Q 1191 -91 1019 -91 
Q 841 -91 722 29 
Q 603 150 603 325 
z
" transform="scale(0.015625)"/>
        <path id="DejaVuSerif-30" d="M 2034 219 
Q 2513 219 2750 744 
Q 2988 1269 2988 2328 
Q 2988 3391 2750 3916 
Q 2513 4441 2034 4441 
Q 1556 4441 1318 3916 
Q 1081 3391 1081 2328 
Q 1081 1269 1318 744 
Q 1556 219 2034 219 
z
M 2034 -91 
Q 1275 -91 848 546 
Q 422 1184 422 2328 
Q 422 3475 848 4112 
Q 1275 4750 2034 4750 
Q 2797 4750 3222 4112 
Q 3647 3475 3647 2328 
Q 3647 1184 3222 546 
Q 2797 -91 2034 -91 
z
" transform="scale(0.015625)"/>
       </defs>
       <use xlink:href="#DejaVuSerif-33"/>
       <use xlink:href="#DejaVuSerif-34" transform="translate(63.623047 0)"/>
       <use xlink:href="#DejaVuSerif-39" transform="translate(127.246094 0)"/>
       <use xlink:href="#DejaVuSerif-2e" transform="translate(190.869141 0)"/>
       <use xlink:href="#DejaVuSerif-30" transform="translate(222.65625 0)"/>
      </g>
     </g>
    </g>
    <g id="xtick_2">
     <g id="line2d_3">
      <path d="M 117.972727 173.52 
L 117.972727 7.2 
" clip-path="url(#p9854f374fb)" style="fill: none; stroke: #ffffff; stroke-linecap: round"/>
     </g>
     <g id="line2d_4"/>
     <g id="text_2">
      <!-- 349.1 -->
      <g style="fill: #262626" transform="translate(99.364446 190.397969) scale(0.13 -0.13)">
       <defs>
        <path id="DejaVuSerif-31" d="M 909 0 
L 909 331 
L 1722 331 
L 1722 4213 
L 781 3603 
L 781 4013 
L 1919 4750 
L 2350 4750 
L 2350 331 
L 3163 331 
L 3163 0 
L 909 0 
z
" transform="scale(0.015625)"/>
       </defs>
       <use xlink:href="#DejaVuSerif-33"/>
       <use xlink:href="#DejaVuSerif-34" transform="translate(63.623047 0)"/>
       <use xlink:href="#DejaVuSerif-39" transform="translate(127.246094 0)"/>
       <use xlink:href="#DejaVuSerif-2e" transform="translate(190.869141 0)"/>
       <use xlink:href="#DejaVuSerif-31" transform="translate(222.65625 0)"/>
      </g>
     </g>
    </g>
    <g id="xtick_3">
     <g id="line2d_5">
      <path d="M 168.7 173.52 
L 168.7 7.2 
" clip-path="url(#p9854f374fb)" style="fill: none; stroke: #ffffff; stroke-linecap: round"/>
     </g>
     <g id="line2d_6"/>
     <g id="text_3">
      <!-- 349.2 -->
      <g style="fill: #262626" transform="translate(150.091719 190.397969) scale(0.13 -0.13)">
       <defs>
        <path id="DejaVuSerif-32" d="M 819 3553 
L 469 3553 
L 469 4384 
Q 803 4563 1142 4656 
Q 1481 4750 1806 4750 
Q 2534 4750 2956 4397 
Q 3378 4044 3378 3438 
Q 3378 2753 2422 1800 
Q 2347 1728 2309 1691 
L 1131 513 
L 3078 513 
L 3078 1088 
L 3444 1088 
L 3444 0 
L 434 0 
L 434 341 
L 1850 1753 
Q 2319 2222 2519 2614 
Q 2719 3006 2719 3438 
Q 2719 3909 2473 4175 
Q 2228 4441 1797 4441 
Q 1350 4441 1106 4219 
Q 863 3997 819 3553 
z
" transform="scale(0.015625)"/>
       </defs>
       <use xlink:href="#DejaVuSerif-33"/>
       <use xlink:href="#DejaVuSerif-34" transform="translate(63.623047 0)"/>
       <use xlink:href="#DejaVuSerif-39" transform="translate(127.246094 0)"/>
       <use xlink:href="#DejaVuSerif-2e" transform="translate(190.869141 0)"/>
       <use xlink:href="#DejaVuSerif-32" transform="translate(222.65625 0)"/>
      </g>
     </g>
    </g>
    <g id="xtick_4">
     <g id="line2d_7">
      <path d="M 219.427273 173.52 
L 219.427273 7.2 
" clip-path="url(#p9854f374fb)" style="fill: none; stroke: #ffffff; stroke-linecap: round"/>
     </g>
     <g id="line2d_8"/>
     <g id="text_4">
      <!-- 349.3 -->
      <g style="fill: #262626" transform="translate(200.818991 190.397969) scale(0.13 -0.13)">
       <use xlink:href="#DejaVuSerif-33"/>
       <use xlink:href="#DejaVuSerif-34" transform="translate(63.623047 0)"/>
       <use xlink:href="#DejaVuSerif-39" transform="translate(127.246094 0)"/>
       <use xlink:href="#DejaVuSerif-2e" transform="translate(190.869141 0)"/>
       <use xlink:href="#DejaVuSerif-33" transform="translate(222.65625 0)"/>
      </g>
     </g>
    </g>
    <g id="xtick_5">
     <g id="line2d_9">
      <path d="M 270.154545 173.52 
L 270.154545 7.2 
" clip-path="url(#p9854f374fb)" style="fill: none; stroke: #ffffff; stroke-linecap: round"/>
     </g>
     <g id="line2d_10"/>
     <g id="text_5">
      <!-- 349.4 -->
      <g style="fill: #262626" transform="translate(251.546264 190.397969) scale(0.13 -0.13)">
       <use xlink:href="#DejaVuSerif-33"/>
       <use xlink:href="#DejaVuSerif-34" transform="translate(63.623047 0)"/>
       <use xlink:href="#DejaVuSerif-39" transform="translate(127.246094 0)"/>
       <use xlink:href="#DejaVuSerif-2e" transform="translate(190.869141 0)"/>
       <use xlink:href="#DejaVuSerif-34" transform="translate(222.65625 0)"/>
      </g>
     </g>
    </g>
    <g id="text_6">
     <!-- Frecuencia [ kHz ] -->
     <g style="fill: #262626" transform="translate(102.770937 207.739375) scale(0.14 -0.14)">
      <defs>
       <path id="DejaVuSerif-46" d="M 353 0 
L 353 331 
L 947 331 
L 947 4331 
L 353 4331 
L 353 4666 
L 4172 4666 
L 4172 3628 
L 3788 3628 
L 3788 4281 
L 1581 4281 
L 1581 2719 
L 3175 2719 
L 3175 3303 
L 3559 3303 
L 3559 1753 
L 3175 1753 
L 3175 2338 
L 1581 2338 
L 1581 331 
L 2328 331 
L 2328 0 
L 353 0 
z
" transform="scale(0.015625)"/>
       <path id="DejaVuSerif-72" d="M 3059 3328 
L 3059 2497 
L 2728 2497 
Q 2713 2744 2591 2866 
Q 2469 2988 2234 2988 
Q 1809 2988 1582 2694 
Q 1356 2400 1356 1850 
L 1356 331 
L 2022 331 
L 2022 0 
L 263 0 
L 263 331 
L 781 331 
L 781 2994 
L 231 2994 
L 231 3322 
L 1356 3322 
L 1356 2731 
Q 1525 3078 1790 3245 
Q 2056 3413 2438 3413 
Q 2578 3413 2733 3391 
Q 2888 3369 3059 3328 
z
" transform="scale(0.015625)"/>
       <path id="DejaVuSerif-65" d="M 3469 1600 
L 991 1600 
L 991 1575 
Q 991 903 1244 561 
Q 1497 219 1991 219 
Q 2369 219 2611 417 
Q 2853 616 2950 1006 
L 3413 1006 
Q 3275 459 2904 184 
Q 2534 -91 1931 -91 
Q 1203 -91 761 389 
Q 319 869 319 1663 
Q 319 2450 753 2931 
Q 1188 3413 1894 3413 
Q 2647 3413 3050 2948 
Q 3453 2484 3469 1600 
z
M 2791 1931 
Q 2772 2513 2545 2808 
Q 2319 3103 1894 3103 
Q 1497 3103 1269 2806 
Q 1041 2509 991 1931 
L 2791 1931 
z
" transform="scale(0.015625)"/>
       <path id="DejaVuSerif-63" d="M 3291 997 
Q 3169 466 2822 187 
Q 2475 -91 1925 -91 
Q 1200 -91 759 389 
Q 319 869 319 1663 
Q 319 2459 759 2936 
Q 1200 3413 1925 3413 
Q 2241 3413 2553 3339 
Q 2866 3266 3181 3116 
L 3181 2266 
L 2847 2266 
Q 2781 2703 2561 2903 
Q 2341 3103 1931 3103 
Q 1466 3103 1228 2742 
Q 991 2381 991 1663 
Q 991 944 1227 581 
Q 1463 219 1931 219 
Q 2303 219 2525 412 
Q 2747 606 2828 997 
L 3291 997 
z
" transform="scale(0.015625)"/>
       <path id="DejaVuSerif-75" d="M 2266 3322 
L 3341 3322 
L 3341 331 
L 3884 331 
L 3884 0 
L 2766 0 
L 2766 588 
Q 2606 256 2353 82 
Q 2100 -91 1766 -91 
Q 1213 -91 952 223 
Q 691 538 691 1209 
L 691 2988 
L 172 2988 
L 172 3322 
L 1269 3322 
L 1269 1388 
Q 1269 781 1417 556 
Q 1566 331 1947 331 
Q 2347 331 2556 625 
Q 2766 919 2766 1478 
L 2766 2988 
L 2266 2988 
L 2266 3322 
z
" transform="scale(0.015625)"/>
       <path id="DejaVuSerif-6e" d="M 263 0 
L 263 331 
L 781 331 
L 781 2988 
L 231 2988 
L 231 3322 
L 1356 3322 
L 1356 2731 
Q 1516 3069 1770 3241 
Q 2025 3413 2363 3413 
Q 2913 3413 3172 3097 
Q 3431 2781 3431 2113 
L 3431 331 
L 3944 331 
L 3944 0 
L 2356 0 
L 2356 331 
L 2853 331 
L 2853 1931 
Q 2853 2541 2703 2767 
Q 2553 2994 2175 2994 
Q 1775 2994 1565 2701 
Q 1356 2409 1356 1850 
L 1356 331 
L 1856 331 
L 1856 0 
L 263 0 
z
" transform="scale(0.015625)"/>
       <path id="DejaVuSerif-69" d="M 622 4353 
Q 622 4497 726 4603 
Q 831 4709 978 4709 
Q 1122 4709 1226 4603 
Q 1331 4497 1331 4353 
Q 1331 4206 1228 4103 
Q 1125 4000 978 4000 
Q 831 4000 726 4103 
Q 622 4206 622 4353 
z
M 1356 331 
L 1900 331 
L 1900 0 
L 231 0 
L 231 331 
L 781 331 
L 781 2988 
L 231 2988 
L 231 3322 
L 1356 3322 
L 1356 331 
z
" transform="scale(0.015625)"/>
       <path id="DejaVuSerif-61" d="M 2547 1044 
L 2547 1747 
L 1806 1747 
Q 1378 1747 1168 1562 
Q 959 1378 959 997 
Q 959 650 1171 447 
Q 1384 244 1747 244 
Q 2106 244 2326 466 
Q 2547 688 2547 1044 
z
M 3122 2075 
L 3122 331 
L 3634 331 
L 3634 0 
L 2547 0 
L 2547 359 
Q 2356 128 2106 18 
Q 1856 -91 1522 -91 
Q 969 -91 644 203 
Q 319 497 319 997 
Q 319 1513 691 1797 
Q 1063 2081 1741 2081 
L 2547 2081 
L 2547 2309 
Q 2547 2688 2317 2895 
Q 2088 3103 1672 3103 
Q 1328 3103 1125 2947 
Q 922 2791 872 2484 
L 575 2484 
L 575 3156 
Q 875 3284 1158 3348 
Q 1441 3413 1709 3413 
Q 2400 3413 2761 3070 
Q 3122 2728 3122 2075 
z
" transform="scale(0.015625)"/>
       <path id="DejaVuSerif-20" transform="scale(0.015625)"/>
       <path id="DejaVuSerif-5b" d="M 550 4863 
L 2003 4863 
L 2003 4531 
L 1147 4531 
L 1147 -513 
L 2003 -513 
L 2003 -844 
L 550 -844 
L 550 4863 
z
" transform="scale(0.015625)"/>
       <path id="DejaVuSerif-6b" d="M 1831 0 
L 219 0 
L 219 331 
L 738 331 
L 738 4531 
L 184 4531 
L 184 4863 
L 1313 4863 
L 1313 1697 
L 2713 2988 
L 2234 2988 
L 2234 3322 
L 3738 3322 
L 3738 2988 
L 3169 2988 
L 2181 2075 
L 3444 331 
L 3922 331 
L 3922 0 
L 2284 0 
L 2284 331 
L 2759 331 
L 1766 1697 
L 1313 1275 
L 1313 331 
L 1831 331 
L 1831 0 
z
" transform="scale(0.015625)"/>
       <path id="DejaVuSerif-48" d="M 353 0 
L 353 331 
L 947 331 
L 947 4331 
L 353 4331 
L 353 4666 
L 2175 4666 
L 2175 4331 
L 1581 4331 
L 1581 2719 
L 4000 2719 
L 4000 4331 
L 3406 4331 
L 3406 4666 
L 5228 4666 
L 5228 4331 
L 4634 4331 
L 4634 331 
L 5228 331 
L 5228 0 
L 3406 0 
L 3406 331 
L 4000 331 
L 4000 2338 
L 1581 2338 
L 1581 331 
L 2175 331 
L 2175 0 
L 353 0 
z
" transform="scale(0.015625)"/>
       <path id="DejaVuSerif-7a" d="M 256 0 
L 256 269 
L 2338 2988 
L 691 2988 
L 691 2413 
L 359 2413 
L 359 3322 
L 3078 3322 
L 3078 3053 
L 997 331 
L 2803 331 
L 2803 934 
L 3138 934 
L 3138 0 
L 256 0 
z
" transform="scale(0.015625)"/>
       <path id="DejaVuSerif-5d" d="M 1947 4863 
L 1947 -844 
L 494 -844 
L 494 -513 
L 1350 -513 
L 1350 4531 
L 494 4531 
L 494 4863 
L 1947 4863 
z
" transform="scale(0.015625)"/>
      </defs>
      <use xlink:href="#DejaVuSerif-46"/>
      <use xlink:href="#DejaVuSerif-72" transform="translate(69.384766 0)"/>
      <use xlink:href="#DejaVuSerif-65" transform="translate(117.1875 0)"/>
      <use xlink:href="#DejaVuSerif-63" transform="translate(176.367188 0)"/>
      <use xlink:href="#DejaVuSerif-75" transform="translate(232.373047 0)"/>
      <use xlink:href="#DejaVuSerif-65" transform="translate(296.777344 0)"/>
      <use xlink:href="#DejaVuSerif-6e" transform="translate(355.957031 0)"/>
      <use xlink:href="#DejaVuSerif-63" transform="translate(420.361328 0)"/>
      <use xlink:href="#DejaVuSerif-69" transform="translate(476.367188 0)"/>
      <use xlink:href="#DejaVuSerif-61" transform="translate(508.349609 0)"/>
      <use xlink:href="#DejaVuSerif-20" transform="translate(567.96875 0)"/>
      <use xlink:href="#DejaVuSerif-5b" transform="translate(599.755859 0)"/>
      <use xlink:href="#DejaVuSerif-20" transform="translate(638.769531 0)"/>
      <use xlink:href="#DejaVuSerif-6b" transform="translate(670.556641 0)"/>
      <use xlink:href="#DejaVuSerif-48" transform="translate(731.152344 0)"/>
      <use xlink:href="#DejaVuSerif-7a" transform="translate(818.359375 0)"/>
      <use xlink:href="#DejaVuSerif-20" transform="translate(871.044922 0)"/>
      <use xlink:href="#DejaVuSerif-5d" transform="translate(902.832031 0)"/>
     </g>
    </g>
   </g>
   <g id="matplotlib.axis_2">
    <g id="ytick_1">
     <g id="line2d_11">
      <path d="M 57.1 136.812481 
L 280.3 136.812481 
" clip-path="url(#p9854f374fb)" style="fill: none; stroke: #ffffff; stroke-linecap: round"/>
     </g>
     <g id="line2d_12"/>
     <g id="text_7">
      <!-- $1.10^{-2}$ -->
      <g style="fill: #262626" transform="translate(7.2 141.751466) scale(0.13 -0.13)">
       <defs>
        <path id="DejaVuSerif-2212" d="M 678 2259 
L 4684 2259 
L 4684 1753 
L 678 1753 
L 678 2259 
z
" transform="scale(0.015625)"/>
       </defs>
       <use xlink:href="#DejaVuSerif-31" transform="translate(0 0.7125)"/>
       <use xlink:href="#DejaVuSerif-2e" transform="translate(63.623047 0.7125)"/>
       <use xlink:href="#DejaVuSerif-31" transform="translate(95.410156 0.7125)"/>
       <use xlink:href="#DejaVuSerif-30" transform="translate(159.033203 0.7125)"/>
       <use xlink:href="#DejaVuSerif-2212" transform="translate(223.564609 37.046875) scale(0.7)"/>
       <use xlink:href="#DejaVuSerif-32" transform="translate(282.216953 37.046875) scale(0.7)"/>
      </g>
     </g>
    </g>
    <g id="ytick_2">
     <g id="line2d_13">
      <path d="M 57.1 75.786241 
L 280.3 75.786241 
" clip-path="url(#p9854f374fb)" style="fill: none; stroke: #ffffff; stroke-linecap: round"/>
     </g>
     <g id="line2d_14"/>
     <g id="text_8">
      <!-- $2.10^{-2}$ -->
      <g style="fill: #262626" transform="translate(7.2 80.725225) scale(0.13 -0.13)">
       <use xlink:href="#DejaVuSerif-32" transform="translate(0 0.7125)"/>
       <use xlink:href="#DejaVuSerif-2e" transform="translate(63.623047 0.7125)"/>
       <use xlink:href="#DejaVuSerif-31" transform="translate(95.410156 0.7125)"/>
       <use xlink:href="#DejaVuSerif-30" transform="translate(159.033203 0.7125)"/>
       <use xlink:href="#DejaVuSerif-2212" transform="translate(223.564609 37.046875) scale(0.7)"/>
       <use xlink:href="#DejaVuSerif-32" transform="translate(282.216953 37.046875) scale(0.7)"/>
      </g>
     </g>
    </g>
    <g id="ytick_3">
     <g id="line2d_15">
      <path d="M 57.1 14.76 
L 280.3 14.76 
" clip-path="url(#p9854f374fb)" style="fill: none; stroke: #ffffff; stroke-linecap: round"/>
     </g>
     <g id="line2d_16"/>
     <g id="text_9">
      <!-- $6.10^{-2}$ -->
      <g style="fill: #262626" transform="translate(7.2 19.698984) scale(0.13 -0.13)">
       <defs>
        <path id="DejaVuSerif-36" d="M 2094 219 
Q 2534 219 2771 542 
Q 3009 866 3009 1472 
Q 3009 2078 2771 2401 
Q 2534 2725 2094 2725 
Q 1647 2725 1412 2412 
Q 1178 2100 1178 1509 
Q 1178 888 1415 553 
Q 1653 219 2094 219 
z
M 1075 2569 
Q 1288 2803 1556 2918 
Q 1825 3034 2163 3034 
Q 2859 3034 3264 2615 
Q 3669 2197 3669 1472 
Q 3669 763 3233 336 
Q 2797 -91 2069 -91 
Q 1278 -91 853 498 
Q 428 1088 428 2181 
Q 428 3406 931 4078 
Q 1434 4750 2350 4750 
Q 2597 4750 2869 4703 
Q 3141 4656 3425 4563 
L 3425 3794 
L 3072 3794 
Q 3034 4109 2831 4275 
Q 2628 4441 2284 4441 
Q 1678 4441 1381 3981 
Q 1084 3522 1075 2569 
z
" transform="scale(0.015625)"/>
       </defs>
       <use xlink:href="#DejaVuSerif-36" transform="translate(0 0.7125)"/>
       <use xlink:href="#DejaVuSerif-2e" transform="translate(63.623047 0.7125)"/>
       <use xlink:href="#DejaVuSerif-31" transform="translate(95.410156 0.7125)"/>
       <use xlink:href="#DejaVuSerif-30" transform="translate(159.033203 0.7125)"/>
       <use xlink:href="#DejaVuSerif-2212" transform="translate(223.564609 37.046875) scale(0.7)"/>
       <use xlink:href="#DejaVuSerif-32" transform="translate(282.216953 37.046875) scale(0.7)"/>
      </g>
     </g>
    </g>
    <g id="ytick_4">
     <g id="line2d_17"/>
    </g>
    <g id="ytick_5">
     <g id="line2d_18"/>
    </g>
    <g id="ytick_6">
     <g id="line2d_19"/>
    </g>
    <g id="ytick_7">
     <g id="line2d_20"/>
    </g>
    <g id="ytick_8">
     <g id="line2d_21"/>
    </g>
    <g id="ytick_9">
     <g id="line2d_22"/>
    </g>
    <g id="ytick_10">
     <g id="line2d_23"/>
    </g>
    <g id="ytick_11">
     <g id="line2d_24"/>
    </g>
    <g id="ytick_12">
     <g id="line2d_25"/>
    </g>
   </g>
   <g id="patch_3">
    <path d="M 57.1 173.52 
L 57.1 7.2 
" style="fill: none"/>
   </g>
   <g id="patch_4">
    <path d="M 280.3 173.52 
L 280.3 7.2 
" style="fill: none"/>
   </g>
   <g id="patch_5">
    <path d="M 57.1 173.52 
L 280.3 173.52 
" style="fill: none"/>
   </g>
   <g id="patch_6">
    <path d="M 57.1 7.2 
L 280.3 7.2 
" style="fill: none"/>
   </g>
   <g id="LineCollection_1">
    <path d="M 67.245455 80.645689 
L 67.245455 79.997206 
" clip-path="url(#p9854f374fb)" style="fill: none; stroke: #055e49; stroke-width: 1.75"/>
    <path d="M 69.315955 80.954637 
L 69.315955 80.281163 
" clip-path="url(#p9854f374fb)" style="fill: none; stroke: #055e49; stroke-width: 1.75"/>
    <path d="M 71.386456 80.565826 
L 71.386456 79.893369 
" clip-path="url(#p9854f374fb)" style="fill: none; stroke: #055e49; stroke-width: 1.75"/>
    <path d="M 73.456957 80.131959 
L 73.456957 79.449187 
" clip-path="url(#p9854f374fb)" style="fill: none; stroke: #055e49; stroke-width: 1.75"/>
    <path d="M 75.527458 80.907064 
L 75.527458 80.237373 
" clip-path="url(#p9854f374fb)" style="fill: none; stroke: #055e49; stroke-width: 1.75"/>
    <path d="M 77.597959 79.571833 
L 77.597959 78.880321 
" clip-path="url(#p9854f374fb)" style="fill: none; stroke: #055e49; stroke-width: 1.75"/>
    <path d="M 79.66846 80.02384 
L 79.66846 79.360603 
" clip-path="url(#p9854f374fb)" style="fill: none; stroke: #055e49; stroke-width: 1.75"/>
    <path d="M 81.738961 78.603883 
L 81.738961 77.932049 
" clip-path="url(#p9854f374fb)" style="fill: none; stroke: #055e49; stroke-width: 1.75"/>
    <path d="M 83.809462 79.630454 
L 83.809462 78.936982 
" clip-path="url(#p9854f374fb)" style="fill: none; stroke: #055e49; stroke-width: 1.75"/>
    <path d="M 85.879963 78.550695 
L 85.879963 77.893414 
" clip-path="url(#p9854f374fb)" style="fill: none; stroke: #055e49; stroke-width: 1.75"/>
    <path d="M 87.950464 77.248841 
L 87.950464 76.604596 
" clip-path="url(#p9854f374fb)" style="fill: none; stroke: #055e49; stroke-width: 1.75"/>
    <path d="M 90.020965 77.967089 
L 90.020965 77.287521 
" clip-path="url(#p9854f374fb)" style="fill: none; stroke: #055e49; stroke-width: 1.75"/>
    <path d="M 92.091466 77.58659 
L 92.091466 76.912444 
" clip-path="url(#p9854f374fb)" style="fill: none; stroke: #055e49; stroke-width: 1.75"/>
    <path d="M 94.161967 76.951966 
L 94.161967 76.245825 
" clip-path="url(#p9854f374fb)" style="fill: none; stroke: #055e49; stroke-width: 1.75"/>
    <path d="M 96.232468 76.67566 
L 96.232468 75.99268 
" clip-path="url(#p9854f374fb)" style="fill: none; stroke: #055e49; stroke-width: 1.75"/>
    <path d="M 98.302968 75.932116 
L 98.302968 75.251543 
" clip-path="url(#p9854f374fb)" style="fill: none; stroke: #055e49; stroke-width: 1.75"/>
    <path d="M 100.373469 76.501681 
L 100.373469 75.807365 
" clip-path="url(#p9854f374fb)" style="fill: none; stroke: #055e49; stroke-width: 1.75"/>
    <path d="M 102.44397 76.470901 
L 102.44397 75.79758 
" clip-path="url(#p9854f374fb)" style="fill: none; stroke: #055e49; stroke-width: 1.75"/>
    <path d="M 104.514471 75.323437 
L 104.514471 74.659285 
" clip-path="url(#p9854f374fb)" style="fill: none; stroke: #055e49; stroke-width: 1.75"/>
    <path d="M 106.584972 74.642772 
L 106.584972 73.937945 
" clip-path="url(#p9854f374fb)" style="fill: none; stroke: #055e49; stroke-width: 1.75"/>
    <path d="M 108.655473 73.447894 
L 108.655473 72.775833 
" clip-path="url(#p9854f374fb)" style="fill: none; stroke: #055e49; stroke-width: 1.75"/>
    <path d="M 110.725974 73.071327 
L 110.725974 72.396686 
" clip-path="url(#p9854f374fb)" style="fill: none; stroke: #055e49; stroke-width: 1.75"/>
    <path d="M 112.796475 72.112394 
L 112.796475 71.45713 
" clip-path="url(#p9854f374fb)" style="fill: none; stroke: #055e49; stroke-width: 1.75"/>
    <path d="M 114.866976 71.974301 
L 114.866976 71.315971 
" clip-path="url(#p9854f374fb)" style="fill: none; stroke: #055e49; stroke-width: 1.75"/>
    <path d="M 116.937477 71.623641 
L 116.937477 70.956669 
" clip-path="url(#p9854f374fb)" style="fill: none; stroke: #055e49; stroke-width: 1.75"/>
    <path d="M 119.007978 69.983569 
L 119.007978 69.347797 
" clip-path="url(#p9854f374fb)" style="fill: none; stroke: #055e49; stroke-width: 1.75"/>
    <path d="M 121.078479 68.658228 
L 121.078479 67.949669 
" clip-path="url(#p9854f374fb)" style="fill: none; stroke: #055e49; stroke-width: 1.75"/>
    <path d="M 123.14898 68.228519 
L 123.14898 67.556334 
" clip-path="url(#p9854f374fb)" style="fill: none; stroke: #055e49; stroke-width: 1.75"/>
    <path d="M 125.219481 65.33496 
L 125.219481 64.650016 
" clip-path="url(#p9854f374fb)" style="fill: none; stroke: #055e49; stroke-width: 1.75"/>
    <path d="M 127.289981 65.409855 
L 127.289981 64.760439 
" clip-path="url(#p9854f374fb)" style="fill: none; stroke: #055e49; stroke-width: 1.75"/>
    <path d="M 129.360482 63.786376 
L 129.360482 63.094306 
" clip-path="url(#p9854f374fb)" style="fill: none; stroke: #055e49; stroke-width: 1.75"/>
    <path d="M 131.430983 61.743721 
L 131.430983 61.062086 
" clip-path="url(#p9854f374fb)" style="fill: none; stroke: #055e49; stroke-width: 1.75"/>
    <path d="M 133.501484 60.554729 
L 133.501484 59.886065 
" clip-path="url(#p9854f374fb)" style="fill: none; stroke: #055e49; stroke-width: 1.75"/>
    <path d="M 135.571985 57.877676 
L 135.571985 57.184799 
" clip-path="url(#p9854f374fb)" style="fill: none; stroke: #055e49; stroke-width: 1.75"/>
    <path d="M 137.642486 55.479766 
L 137.642486 54.814072 
" clip-path="url(#p9854f374fb)" style="fill: none; stroke: #055e49; stroke-width: 1.75"/>
    <path d="M 139.712987 52.86745 
L 139.712987 52.204838 
" clip-path="url(#p9854f374fb)" style="fill: none; stroke: #055e49; stroke-width: 1.75"/>
    <path d="M 141.783488 50.354666 
L 141.783488 49.712441 
" clip-path="url(#p9854f374fb)" style="fill: none; stroke: #055e49; stroke-width: 1.75"/>
    <path d="M 143.853989 44.312776 
L 143.853989 43.65531 
" clip-path="url(#p9854f374fb)" style="fill: none; stroke: #055e49; stroke-width: 1.75"/>
    <path d="M 145.92449 39.608029 
L 145.92449 38.953644 
" clip-path="url(#p9854f374fb)" style="fill: none; stroke: #055e49; stroke-width: 1.75"/>
    <path d="M 147.994991 34.327591 
L 147.994991 33.651388 
" clip-path="url(#p9854f374fb)" style="fill: none; stroke: #055e49; stroke-width: 1.75"/>
    <path d="M 150.065492 28.595654 
L 150.065492 27.906277 
" clip-path="url(#p9854f374fb)" style="fill: none; stroke: #055e49; stroke-width: 1.75"/>
    <path d="M 152.135993 21.815185 
L 152.135993 21.173824 
" clip-path="url(#p9854f374fb)" style="fill: none; stroke: #055e49; stroke-width: 1.75"/>
    <path d="M 154.206494 15.97344 
L 154.206494 15.24251 
" clip-path="url(#p9854f374fb)" style="fill: none; stroke: #055e49; stroke-width: 1.75"/>
    <path d="M 156.276994 15.101872 
L 156.276994 14.419809 
" clip-path="url(#p9854f374fb)" style="fill: none; stroke: #055e49; stroke-width: 1.75"/>
    <path d="M 158.347495 25.160216 
L 158.347495 24.448775 
" clip-path="url(#p9854f374fb)" style="fill: none; stroke: #055e49; stroke-width: 1.75"/>
    <path d="M 160.417996 44.382086 
L 160.417996 43.644361 
" clip-path="url(#p9854f374fb)" style="fill: none; stroke: #055e49; stroke-width: 1.75"/>
    <path d="M 162.488497 69.824547 
L 162.488497 69.139396 
" clip-path="url(#p9854f374fb)" style="fill: none; stroke: #055e49; stroke-width: 1.75"/>
    <path d="M 164.558998 93.273184 
L 164.558998 92.593485 
" clip-path="url(#p9854f374fb)" style="fill: none; stroke: #055e49; stroke-width: 1.75"/>
    <path d="M 166.629499 120.572905 
L 166.629499 120.038401 
" clip-path="url(#p9854f374fb)" style="fill: none; stroke: #055e49; stroke-width: 1.75"/>
    <path d="M 168.7 144.101413 
L 168.7 143.800825 
" clip-path="url(#p9854f374fb)" style="fill: none; stroke: #055e49; stroke-width: 1.75"/>
    <path d="M 170.770501 160.808472 
L 170.770501 160.48625 
" clip-path="url(#p9854f374fb)" style="fill: none; stroke: #055e49; stroke-width: 1.75"/>
    <path d="M 172.841002 166.124004 
L 172.841002 165.796384 
" clip-path="url(#p9854f374fb)" style="fill: none; stroke: #055e49; stroke-width: 1.75"/>
    <path d="M 174.911503 162.239179 
L 174.911503 161.906345 
" clip-path="url(#p9854f374fb)" style="fill: none; stroke: #055e49; stroke-width: 1.75"/>
    <path d="M 176.982004 155.735564 
L 176.982004 155.395616 
" clip-path="url(#p9854f374fb)" style="fill: none; stroke: #055e49; stroke-width: 1.75"/>
    <path d="M 179.052505 149.773878 
L 179.052505 149.435234 
" clip-path="url(#p9854f374fb)" style="fill: none; stroke: #055e49; stroke-width: 1.75"/>
    <path d="M 181.123006 143.820582 
L 181.123006 143.490893 
" clip-path="url(#p9854f374fb)" style="fill: none; stroke: #055e49; stroke-width: 1.75"/>
    <path d="M 183.193506 138.401665 
L 183.193506 138.072085 
" clip-path="url(#p9854f374fb)" style="fill: none; stroke: #055e49; stroke-width: 1.75"/>
    <path d="M 185.264007 134.3334 
L 185.264007 134.007626 
" clip-path="url(#p9854f374fb)" style="fill: none; stroke: #055e49; stroke-width: 1.75"/>
    <path d="M 187.334508 130.721901 
L 187.334508 130.389622 
" clip-path="url(#p9854f374fb)" style="fill: none; stroke: #055e49; stroke-width: 1.75"/>
    <path d="M 189.405009 127.319601 
L 189.405009 126.985997 
" clip-path="url(#p9854f374fb)" style="fill: none; stroke: #055e49; stroke-width: 1.75"/>
    <path d="M 191.47551 124.616974 
L 191.47551 124.293931 
" clip-path="url(#p9854f374fb)" style="fill: none; stroke: #055e49; stroke-width: 1.75"/>
    <path d="M 193.546011 122.57398 
L 193.546011 122.247176 
" clip-path="url(#p9854f374fb)" style="fill: none; stroke: #055e49; stroke-width: 1.75"/>
    <path d="M 195.616512 120.266317 
L 195.616512 119.934061 
" clip-path="url(#p9854f374fb)" style="fill: none; stroke: #055e49; stroke-width: 1.75"/>
    <path d="M 197.687013 119.038328 
L 197.687013 118.713177 
" clip-path="url(#p9854f374fb)" style="fill: none; stroke: #055e49; stroke-width: 1.75"/>
    <path d="M 199.757514 117.384229 
L 199.757514 117.054039 
" clip-path="url(#p9854f374fb)" style="fill: none; stroke: #055e49; stroke-width: 1.75"/>
    <path d="M 201.828015 115.623125 
L 201.828015 115.302125 
" clip-path="url(#p9854f374fb)" style="fill: none; stroke: #055e49; stroke-width: 1.75"/>
    <path d="M 203.898516 114.316129 
L 203.898516 113.979959 
" clip-path="url(#p9854f374fb)" style="fill: none; stroke: #055e49; stroke-width: 1.75"/>
    <path d="M 205.969017 113.50898 
L 205.969017 113.179779 
" clip-path="url(#p9854f374fb)" style="fill: none; stroke: #055e49; stroke-width: 1.75"/>
    <path d="M 208.039518 112.272774 
L 208.039518 111.954889 
" clip-path="url(#p9854f374fb)" style="fill: none; stroke: #055e49; stroke-width: 1.75"/>
    <path d="M 210.110019 110.934568 
L 210.110019 110.60923 
" clip-path="url(#p9854f374fb)" style="fill: none; stroke: #055e49; stroke-width: 1.75"/>
    <path d="M 212.180519 110.126089 
L 212.180519 109.795681 
" clip-path="url(#p9854f374fb)" style="fill: none; stroke: #055e49; stroke-width: 1.75"/>
    <path d="M 214.25102 109.556225 
L 214.25102 109.22949 
" clip-path="url(#p9854f374fb)" style="fill: none; stroke: #055e49; stroke-width: 1.75"/>
    <path d="M 216.321521 109.192884 
L 216.321521 108.870024 
" clip-path="url(#p9854f374fb)" style="fill: none; stroke: #055e49; stroke-width: 1.75"/>
    <path d="M 218.392022 108.160334 
L 218.392022 107.833353 
" clip-path="url(#p9854f374fb)" style="fill: none; stroke: #055e49; stroke-width: 1.75"/>
    <path d="M 220.462523 107.697536 
L 220.462523 107.376469 
" clip-path="url(#p9854f374fb)" style="fill: none; stroke: #055e49; stroke-width: 1.75"/>
    <path d="M 222.533024 106.87324 
L 222.533024 106.553068 
" clip-path="url(#p9854f374fb)" style="fill: none; stroke: #055e49; stroke-width: 1.75"/>
    <path d="M 224.603525 106.116925 
L 224.603525 105.784251 
" clip-path="url(#p9854f374fb)" style="fill: none; stroke: #055e49; stroke-width: 1.75"/>
    <path d="M 226.674026 105.805996 
L 226.674026 105.483816 
" clip-path="url(#p9854f374fb)" style="fill: none; stroke: #055e49; stroke-width: 1.75"/>
    <path d="M 228.744527 105.387561 
L 228.744527 105.06195 
" clip-path="url(#p9854f374fb)" style="fill: none; stroke: #055e49; stroke-width: 1.75"/>
    <path d="M 230.815028 105.074911 
L 230.815028 104.752724 
" clip-path="url(#p9854f374fb)" style="fill: none; stroke: #055e49; stroke-width: 1.75"/>
    <path d="M 232.885529 104.5384 
L 232.885529 104.213525 
" clip-path="url(#p9854f374fb)" style="fill: none; stroke: #055e49; stroke-width: 1.75"/>
    <path d="M 234.95603 103.779125 
L 234.95603 103.453928 
" clip-path="url(#p9854f374fb)" style="fill: none; stroke: #055e49; stroke-width: 1.75"/>
    <path d="M 237.026531 103.671752 
L 237.026531 103.345665 
" clip-path="url(#p9854f374fb)" style="fill: none; stroke: #055e49; stroke-width: 1.75"/>
    <path d="M 239.097032 103.430606 
L 239.097032 103.103214 
" clip-path="url(#p9854f374fb)" style="fill: none; stroke: #055e49; stroke-width: 1.75"/>
    <path d="M 241.167532 102.773136 
L 241.167532 102.437734 
" clip-path="url(#p9854f374fb)" style="fill: none; stroke: #055e49; stroke-width: 1.75"/>
    <path d="M 243.238033 102.514543 
L 243.238033 102.179423 
" clip-path="url(#p9854f374fb)" style="fill: none; stroke: #055e49; stroke-width: 1.75"/>
    <path d="M 245.308534 102.315854 
L 245.308534 101.989874 
" clip-path="url(#p9854f374fb)" style="fill: none; stroke: #055e49; stroke-width: 1.75"/>
    <path d="M 247.379035 102.020975 
L 247.379035 101.702085 
" clip-path="url(#p9854f374fb)" style="fill: none; stroke: #055e49; stroke-width: 1.75"/>
    <path d="M 249.449536 101.732302 
L 249.449536 101.409497 
" clip-path="url(#p9854f374fb)" style="fill: none; stroke: #055e49; stroke-width: 1.75"/>
    <path d="M 251.520037 101.531813 
L 251.520037 101.214231 
" clip-path="url(#p9854f374fb)" style="fill: none; stroke: #055e49; stroke-width: 1.75"/>
    <path d="M 253.590538 101.122496 
L 253.590538 100.798855 
" clip-path="url(#p9854f374fb)" style="fill: none; stroke: #055e49; stroke-width: 1.75"/>
    <path d="M 255.661039 101.06801 
L 255.661039 100.749693 
" clip-path="url(#p9854f374fb)" style="fill: none; stroke: #055e49; stroke-width: 1.75"/>
    <path d="M 257.73154 100.881202 
L 257.73154 100.554859 
" clip-path="url(#p9854f374fb)" style="fill: none; stroke: #055e49; stroke-width: 1.75"/>
    <path d="M 259.802041 100.626625 
L 259.802041 100.311853 
" clip-path="url(#p9854f374fb)" style="fill: none; stroke: #055e49; stroke-width: 1.75"/>
    <path d="M 261.872542 100.242231 
L 261.872542 99.916755 
" clip-path="url(#p9854f374fb)" style="fill: none; stroke: #055e49; stroke-width: 1.75"/>
    <path d="M 263.943043 100.113481 
L 263.943043 99.783983 
" clip-path="url(#p9854f374fb)" style="fill: none; stroke: #055e49; stroke-width: 1.75"/>
    <path d="M 266.013544 99.712758 
L 266.013544 99.399343 
" clip-path="url(#p9854f374fb)" style="fill: none; stroke: #055e49; stroke-width: 1.75"/>
    <path d="M 268.084045 99.738764 
L 268.084045 99.422216 
" clip-path="url(#p9854f374fb)" style="fill: none; stroke: #055e49; stroke-width: 1.75"/>
    <path d="M 270.154545 99.813033 
L 270.154545 99.487462 
" clip-path="url(#p9854f374fb)" style="fill: none; stroke: #055e49; stroke-width: 1.75"/>
   </g>
   <g id="line2d_26">
    <defs>
     <path id="m9621992a63" d="M 0 1.75 
C 0.464105 1.75 0.909265 1.565609 1.237437 1.237437 
C 1.565609 0.909265 1.75 0.464105 1.75 0 
C 1.75 -0.464105 1.565609 -0.909265 1.237437 -1.237437 
C 0.909265 -1.565609 0.464105 -1.75 0 -1.75 
C -0.464105 -1.75 -0.909265 -1.565609 -1.237437 -1.237437 
C -1.565609 -0.909265 -1.75 -0.464105 -1.75 0 
C -1.75 0.464105 -1.565609 0.909265 -1.237437 1.237437 
C -0.909265 1.565609 -0.464105 1.75 0 1.75 
z
"/>
    </defs>
    <g clip-path="url(#p9854f374fb)">
     <use xlink:href="#m9621992a63" x="67.245455" y="80.320688" style="fill: #055e49"/>
     <use xlink:href="#m9621992a63" x="69.315955" y="80.61708" style="fill: #055e49"/>
     <use xlink:href="#m9621992a63" x="71.386456" y="80.22878" style="fill: #055e49"/>
     <use xlink:href="#m9621992a63" x="73.456957" y="79.789731" style="fill: #055e49"/>
     <use xlink:href="#m9621992a63" x="75.527458" y="80.571408" style="fill: #055e49"/>
     <use xlink:href="#m9621992a63" x="77.597959" y="79.225213" style="fill: #055e49"/>
     <use xlink:href="#m9621992a63" x="79.66846" y="79.691427" style="fill: #055e49"/>
     <use xlink:href="#m9621992a63" x="81.738961" y="78.267151" style="fill: #055e49"/>
     <use xlink:href="#m9621992a63" x="83.809462" y="79.282849" style="fill: #055e49"/>
     <use xlink:href="#m9621992a63" x="85.879963" y="78.221274" style="fill: #055e49"/>
     <use xlink:href="#m9621992a63" x="87.950464" y="76.925969" style="fill: #055e49"/>
     <use xlink:href="#m9621992a63" x="90.020965" y="77.626471" style="fill: #055e49"/>
     <use xlink:href="#m9621992a63" x="92.091466" y="77.248696" style="fill: #055e49"/>
     <use xlink:href="#m9621992a63" x="94.161967" y="76.597995" style="fill: #055e49"/>
     <use xlink:href="#m9621992a63" x="96.232468" y="76.333328" style="fill: #055e49"/>
     <use xlink:href="#m9621992a63" x="98.302968" y="75.590993" style="fill: #055e49"/>
     <use xlink:href="#m9621992a63" x="100.373469" y="76.153652" style="fill: #055e49"/>
     <use xlink:href="#m9621992a63" x="102.44397" y="76.133422" style="fill: #055e49"/>
     <use xlink:href="#m9621992a63" x="104.514471" y="74.990564" style="fill: #055e49"/>
     <use xlink:href="#m9621992a63" x="106.584972" y="74.289461" style="fill: #055e49"/>
     <use xlink:href="#m9621992a63" x="108.655473" y="73.111047" style="fill: #055e49"/>
     <use xlink:href="#m9621992a63" x="110.725974" y="72.733184" style="fill: #055e49"/>
     <use xlink:href="#m9621992a63" x="112.796475" y="71.783986" style="fill: #055e49"/>
     <use xlink:href="#m9621992a63" x="114.866976" y="71.644353" style="fill: #055e49"/>
     <use xlink:href="#m9621992a63" x="116.937477" y="71.289351" style="fill: #055e49"/>
     <use xlink:href="#m9621992a63" x="119.007978" y="69.664953" style="fill: #055e49"/>
     <use xlink:href="#m9621992a63" x="121.078479" y="68.303041" style="fill: #055e49"/>
     <use xlink:href="#m9621992a63" x="123.14898" y="67.89161" style="fill: #055e49"/>
     <use xlink:href="#m9621992a63" x="125.219481" y="64.99164" style="fill: #055e49"/>
     <use xlink:href="#m9621992a63" x="127.289981" y="65.084385" style="fill: #055e49"/>
     <use xlink:href="#m9621992a63" x="129.360482" y="63.439476" style="fill: #055e49"/>
     <use xlink:href="#m9621992a63" x="131.430983" y="61.402064" style="fill: #055e49"/>
     <use xlink:href="#m9621992a63" x="133.501484" y="60.219589" style="fill: #055e49"/>
     <use xlink:href="#m9621992a63" x="135.571985" y="57.53037" style="fill: #055e49"/>
     <use xlink:href="#m9621992a63" x="137.642486" y="55.146118" style="fill: #055e49"/>
     <use xlink:href="#m9621992a63" x="139.712987" y="52.535351" style="fill: #055e49"/>
     <use xlink:href="#m9621992a63" x="141.783488" y="50.032809" style="fill: #055e49"/>
     <use xlink:href="#m9621992a63" x="143.853989" y="43.983262" style="fill: #055e49"/>
     <use xlink:href="#m9621992a63" x="145.92449" y="39.280063" style="fill: #055e49"/>
     <use xlink:href="#m9621992a63" x="147.994991" y="33.988664" style="fill: #055e49"/>
     <use xlink:href="#m9621992a63" x="150.065492" y="28.250107" style="fill: #055e49"/>
     <use xlink:href="#m9621992a63" x="152.135993" y="21.493761" style="fill: #055e49"/>
     <use xlink:href="#m9621992a63" x="154.206494" y="15.60701" style="fill: #055e49"/>
     <use xlink:href="#m9621992a63" x="156.276994" y="14.76" style="fill: #055e49"/>
     <use xlink:href="#m9621992a63" x="158.347495" y="24.803582" style="fill: #055e49"/>
     <use xlink:href="#m9621992a63" x="160.417996" y="44.01224" style="fill: #055e49"/>
     <use xlink:href="#m9621992a63" x="162.488497" y="69.481123" style="fill: #055e49"/>
     <use xlink:href="#m9621992a63" x="164.558998" y="92.9325" style="fill: #055e49"/>
     <use xlink:href="#m9621992a63" x="166.629499" y="120.305137" style="fill: #055e49"/>
     <use xlink:href="#m9621992a63" x="168.7" y="143.950956" style="fill: #055e49"/>
     <use xlink:href="#m9621992a63" x="170.770501" y="160.647174" style="fill: #055e49"/>
     <use xlink:href="#m9621992a63" x="172.841002" y="165.96" style="fill: #055e49"/>
     <use xlink:href="#m9621992a63" x="174.911503" y="162.072562" style="fill: #055e49"/>
     <use xlink:href="#m9621992a63" x="176.982004" y="155.565381" style="fill: #055e49"/>
     <use xlink:href="#m9621992a63" x="179.052505" y="149.604349" style="fill: #055e49"/>
     <use xlink:href="#m9621992a63" x="181.123006" y="143.655541" style="fill: #055e49"/>
     <use xlink:href="#m9621992a63" x="183.193506" y="138.236679" style="fill: #055e49"/>
     <use xlink:href="#m9621992a63" x="185.264007" y="134.170321" style="fill: #055e49"/>
     <use xlink:href="#m9621992a63" x="187.334508" y="130.555562" style="fill: #055e49"/>
     <use xlink:href="#m9621992a63" x="189.405009" y="127.152598" style="fill: #055e49"/>
     <use xlink:href="#m9621992a63" x="191.47551" y="124.455264" style="fill: #055e49"/>
     <use xlink:href="#m9621992a63" x="193.546011" y="122.410385" style="fill: #055e49"/>
     <use xlink:href="#m9621992a63" x="195.616512" y="120.09999" style="fill: #055e49"/>
     <use xlink:href="#m9621992a63" x="197.687013" y="118.875561" style="fill: #055e49"/>
     <use xlink:href="#m9621992a63" x="199.757514" y="117.218937" style="fill: #055e49"/>
     <use xlink:href="#m9621992a63" x="201.828015" y="115.462439" style="fill: #055e49"/>
     <use xlink:href="#m9621992a63" x="203.898516" y="114.14784" style="fill: #055e49"/>
     <use xlink:href="#m9621992a63" x="205.969017" y="113.344184" style="fill: #055e49"/>
     <use xlink:href="#m9621992a63" x="208.039518" y="112.113649" style="fill: #055e49"/>
     <use xlink:href="#m9621992a63" x="210.110019" y="110.771708" style="fill: #055e49"/>
     <use xlink:href="#m9621992a63" x="212.180519" y="109.960688" style="fill: #055e49"/>
     <use xlink:href="#m9621992a63" x="214.25102" y="109.392665" style="fill: #055e49"/>
     <use xlink:href="#m9621992a63" x="216.321521" y="109.031266" style="fill: #055e49"/>
     <use xlink:href="#m9621992a63" x="218.392022" y="107.99665" style="fill: #055e49"/>
     <use xlink:href="#m9621992a63" x="220.462523" y="107.536816" style="fill: #055e49"/>
     <use xlink:href="#m9621992a63" x="222.533024" y="106.712969" style="fill: #055e49"/>
     <use xlink:href="#m9621992a63" x="224.603525" y="105.950388" style="fill: #055e49"/>
     <use xlink:href="#m9621992a63" x="226.674026" y="105.644719" style="fill: #055e49"/>
     <use xlink:href="#m9621992a63" x="228.744527" y="105.224564" style="fill: #055e49"/>
     <use xlink:href="#m9621992a63" x="230.815028" y="104.913629" style="fill: #055e49"/>
     <use xlink:href="#m9621992a63" x="232.885529" y="104.375772" style="fill: #055e49"/>
     <use xlink:href="#m9621992a63" x="234.95603" y="103.616335" style="fill: #055e49"/>
     <use xlink:href="#m9621992a63" x="237.026531" y="103.508516" style="fill: #055e49"/>
     <use xlink:href="#m9621992a63" x="239.097032" y="103.266716" style="fill: #055e49"/>
     <use xlink:href="#m9621992a63" x="241.167532" y="102.605232" style="fill: #055e49"/>
     <use xlink:href="#m9621992a63" x="243.238033" y="102.34678" style="fill: #055e49"/>
     <use xlink:href="#m9621992a63" x="245.308534" y="102.152672" style="fill: #055e49"/>
     <use xlink:href="#m9621992a63" x="247.379035" y="101.861346" style="fill: #055e49"/>
     <use xlink:href="#m9621992a63" x="249.449536" y="101.570711" style="fill: #055e49"/>
     <use xlink:href="#m9621992a63" x="251.520037" y="101.37284" style="fill: #055e49"/>
     <use xlink:href="#m9621992a63" x="253.590538" y="100.960486" style="fill: #055e49"/>
     <use xlink:href="#m9621992a63" x="255.661039" y="100.908669" style="fill: #055e49"/>
     <use xlink:href="#m9621992a63" x="257.73154" y="100.717838" style="fill: #055e49"/>
     <use xlink:href="#m9621992a63" x="259.802041" y="100.46906" style="fill: #055e49"/>
     <use xlink:href="#m9621992a63" x="261.872542" y="100.079302" style="fill: #055e49"/>
     <use xlink:href="#m9621992a63" x="263.943043" y="99.948536" style="fill: #055e49"/>
     <use xlink:href="#m9621992a63" x="266.013544" y="99.555873" style="fill: #055e49"/>
     <use xlink:href="#m9621992a63" x="268.084045" y="99.580309" style="fill: #055e49"/>
     <use xlink:href="#m9621992a63" x="270.154545" y="99.650056" style="fill: #055e49"/>
    </g>
   </g>
  </g>
 </g>
 <defs>
  <clipPath id="p9854f374fb">
   <rect x="57.1" y="7.2" width="223.2" height="166.32"/>
  </clipPath>
 </defs>
</svg>
