<?xml version="1.0" encoding="utf-8" standalone="no"?>
<!DOCTYPE svg PUBLIC "-//W3C//DTD SVG 1.1//EN"
  "http://www.w3.org/Graphics/SVG/1.1/DTD/svg11.dtd">
<svg xmlns:xlink="http://www.w3.org/1999/xlink" width="474.105611pt" height="257.677188pt" viewBox="0 0 474.105611 257.677188" xmlns="http://www.w3.org/2000/svg" version="1.1">
 <metadata>
  <rdf:RDF xmlns:dc="http://purl.org/dc/elements/1.1/" xmlns:cc="http://creativecommons.org/ns#" xmlns:rdf="http://www.w3.org/1999/02/22-rdf-syntax-ns#">
   <cc:Work>
    <dc:type rdf:resource="http://purl.org/dc/dcmitype/StillImage"/>
    <dc:date>2026-05-16T14:58:57.556778</dc:date>
    <dc:format>image/svg+xml</dc:format>
    <dc:creator>
     <cc:Agent>
      <dc:title>Matplotlib v3.10.8, https://matplotlib.org/</dc:title>
     </cc:Agent>
    </dc:creator>
   </cc:Work>
  </rdf:RDF>
 </metadata>
 <defs>
  <style type="text/css">*{stroke-linejoin: round; stroke-linecap: butt}</style>
 </defs>
 <g id="figure_1">
  <g id="patch_1">
   <path d="M 0 257.677188 
L 474.105611 257.677188 
L 474.105611 0 
L 0 0 
z
" style="fill: #ffffff"/>
  </g>
  <g id="axes_1">
   <g id="patch_2">
    <path d="M 67.817188 228.96 
L 458.417188 228.96 
L 458.417188 7.2 
L 67.817188 7.2 
z
" style="fill: #eaeaf2"/>
   </g>
   <g id="matplotlib.axis_1">
    <g id="xtick_1">
     <g id="line2d_1">
      <path d="M 85.571733 228.96 
L 85.571733 7.2 
" clip-path="url(#p4b02e9ad1a)" style="fill: none; stroke: #ffffff; stroke-linecap: round"/>
     </g>
     <g id="line2d_2"/>
     <g id="text_1">
      <!-- 349.00 -->
      <g style="fill: #262626" transform="translate(59.328764 247.357656) scale(0.15 -0.15)">
       <defs>
        <path id="DejaVuSerif-33" d="M 622 4469 
Q 988 4606 1323 4678 
Q 1659 4750 1953 4750 
Q 2638 4750 3022 4454 
Q 3406 4159 3406 3634 
Q 3406 3213 3140 2930 
Q 2875 2647 2388 2547 
Q 2963 2466 3280 2130 
Q 3597 1794 3597 1259 
Q 3597 606 3158 257 
Q 2719 -91 1894 -91 
Q 1528 -91 1179 -12 
Q 831 66 488 225 
L 488 1131 
L 838 1131 
Q 869 681 1141 450 
Q 1413 219 1906 219 
Q 2384 219 2661 495 
Q 2938 772 2938 1253 
Q 2938 1803 2653 2086 
Q 2369 2369 1819 2369 
L 1522 2369 
L 1522 2688 
L 1678 2688 
Q 2225 2688 2498 2914 
Q 2772 3141 2772 3597 
Q 2772 4006 2547 4223 
Q 2322 4441 1900 4441 
Q 1478 4441 1245 4241 
Q 1013 4041 972 3647 
L 622 3647 
L 622 4469 
z
" transform="scale(0.015625)"/>
        <path id="DejaVuSerif-34" d="M 2234 1581 
L 2234 4063 
L 641 1581 
L 2234 1581 
z
M 3609 0 
L 1484 0 
L 1484 331 
L 2234 331 
L 2234 1247 
L 197 1247 
L 197 1588 
L 2241 4750 
L 2859 4750 
L 2859 1581 
L 3750 1581 
L 3750 1247 
L 2859 1247 
L 2859 331 
L 3609 331 
L 3609 0 
z
" transform="scale(0.015625)"/>
        <path id="DejaVuSerif-39" d="M 2994 2091 
Q 2784 1856 2512 1740 
Q 2241 1625 1900 1625 
Q 1206 1625 804 2044 
Q 403 2463 403 3188 
Q 403 3897 839 4323 
Q 1275 4750 2003 4750 
Q 2794 4750 3217 4161 
Q 3641 3572 3641 2478 
Q 3641 1253 3137 581 
Q 2634 -91 1722 -91 
Q 1475 -91 1203 -44 
Q 931 3 647 97 
L 647 872 
L 997 872 
Q 1038 556 1241 387 
Q 1444 219 1784 219 
Q 2391 219 2687 676 
Q 2984 1134 2994 2091 
z
M 1978 4441 
Q 1534 4441 1298 4117 
Q 1063 3794 1063 3188 
Q 1063 2581 1298 2256 
Q 1534 1931 1978 1931 
Q 2422 1931 2658 2245 
Q 2894 2559 2894 3150 
Q 2894 3772 2656 4106 
Q 2419 4441 1978 4441 
z
" transform="scale(0.015625)"/>
        <path id="DejaVuSerif-2e" d="M 603 325 
Q 603 500 722 622 
Q 841 744 1019 744 
Q 1191 744 1312 622 
Q 1434 500 1434 325 
Q 1434 153 1312 31 
Q 1191 -91 1019 -91 
Q 841 -91 722 29 
Q 603 150 603 325 
z
" transform="scale(0.015625)"/>
        <path id="DejaVuSerif-30" d="M 2034 219 
Q 2513 219 2750 744 
Q 2988 1269 2988 2328 
Q 2988 3391 2750 3916 
Q 2513 4441 2034 4441 
Q 1556 4441 1318 3916 
Q 1081 3391 1081 2328 
Q 1081 1269 1318 744 
Q 1556 219 2034 219 
z
M 2034 -91 
Q 1275 -91 848 546 
Q 422 1184 422 2328 
Q 422 3475 848 4112 
Q 1275 4750 2034 4750 
Q 2797 4750 3222 4112 
Q 3647 3475 3647 2328 
Q 3647 1184 3222 546 
Q 2797 -91 2034 -91 
z
" transform="scale(0.015625)"/>
       </defs>
       <use xlink:href="#DejaVuSerif-33"/>
       <use xlink:href="#DejaVuSerif-34" transform="translate(63.623047 0)"/>
       <use xlink:href="#DejaVuSerif-39" transform="translate(127.246094 0)"/>
       <use xlink:href="#DejaVuSerif-2e" transform="translate(190.869141 0)"/>
       <use xlink:href="#DejaVuSerif-30" transform="translate(222.65625 0)"/>
       <use xlink:href="#DejaVuSerif-30" transform="translate(286.279297 0)"/>
      </g>
     </g>
    </g>
    <g id="xtick_2">
     <g id="line2d_3">
      <path d="M 174.34446 228.96 
L 174.34446 7.2 
" clip-path="url(#p4b02e9ad1a)" style="fill: none; stroke: #ffffff; stroke-linecap: round"/>
     </g>
     <g id="line2d_4"/>
     <g id="text_2">
      <!-- 349.10 -->
      <g style="fill: #262626" transform="translate(148.101491 247.357656) scale(0.15 -0.15)">
       <defs>
        <path id="DejaVuSerif-31" d="M 909 0 
L 909 331 
L 1722 331 
L 1722 4213 
L 781 3603 
L 781 4013 
L 1919 4750 
L 2350 4750 
L 2350 331 
L 3163 331 
L 3163 0 
L 909 0 
z
" transform="scale(0.015625)"/>
       </defs>
       <use xlink:href="#DejaVuSerif-33"/>
       <use xlink:href="#DejaVuSerif-34" transform="translate(63.623047 0)"/>
       <use xlink:href="#DejaVuSerif-39" transform="translate(127.246094 0)"/>
       <use xlink:href="#DejaVuSerif-2e" transform="translate(190.869141 0)"/>
       <use xlink:href="#DejaVuSerif-31" transform="translate(222.65625 0)"/>
       <use xlink:href="#DejaVuSerif-30" transform="translate(286.279297 0)"/>
      </g>
     </g>
    </g>
    <g id="xtick_3">
     <g id="line2d_5">
      <path d="M 263.117188 228.96 
L 263.117188 7.2 
" clip-path="url(#p4b02e9ad1a)" style="fill: none; stroke: #ffffff; stroke-linecap: round"/>
     </g>
     <g id="line2d_6"/>
     <g id="text_3">
      <!-- 349.20 -->
      <g style="fill: #262626" transform="translate(236.874219 247.357656) scale(0.15 -0.15)">
       <defs>
        <path id="DejaVuSerif-32" d="M 819 3553 
L 469 3553 
L 469 4384 
Q 803 4563 1142 4656 
Q 1481 4750 1806 4750 
Q 2534 4750 2956 4397 
Q 3378 4044 3378 3438 
Q 3378 2753 2422 1800 
Q 2347 1728 2309 1691 
L 1131 513 
L 3078 513 
L 3078 1088 
L 3444 1088 
L 3444 0 
L 434 0 
L 434 341 
L 1850 1753 
Q 2319 2222 2519 2614 
Q 2719 3006 2719 3438 
Q 2719 3909 2473 4175 
Q 2228 4441 1797 4441 
Q 1350 4441 1106 4219 
Q 863 3997 819 3553 
z
" transform="scale(0.015625)"/>
       </defs>
       <use xlink:href="#DejaVuSerif-33"/>
       <use xlink:href="#DejaVuSerif-34" transform="translate(63.623047 0)"/>
       <use xlink:href="#DejaVuSerif-39" transform="translate(127.246094 0)"/>
       <use xlink:href="#DejaVuSerif-2e" transform="translate(190.869141 0)"/>
       <use xlink:href="#DejaVuSerif-32" transform="translate(222.65625 0)"/>
       <use xlink:href="#DejaVuSerif-30" transform="translate(286.279297 0)"/>
      </g>
     </g>
    </g>
    <g id="xtick_4">
     <g id="line2d_7">
      <path d="M 351.889915 228.96 
L 351.889915 7.2 
" clip-path="url(#p4b02e9ad1a)" style="fill: none; stroke: #ffffff; stroke-linecap: round"/>
     </g>
     <g id="line2d_8"/>
     <g id="text_4">
      <!-- 349.30 -->
      <g style="fill: #262626" transform="translate(325.646946 247.357656) scale(0.15 -0.15)">
       <use xlink:href="#DejaVuSerif-33"/>
       <use xlink:href="#DejaVuSerif-34" transform="translate(63.623047 0)"/>
       <use xlink:href="#DejaVuSerif-39" transform="translate(127.246094 0)"/>
       <use xlink:href="#DejaVuSerif-2e" transform="translate(190.869141 0)"/>
       <use xlink:href="#DejaVuSerif-33" transform="translate(222.65625 0)"/>
       <use xlink:href="#DejaVuSerif-30" transform="translate(286.279297 0)"/>
      </g>
     </g>
    </g>
    <g id="xtick_5">
     <g id="line2d_9">
      <path d="M 440.662642 228.96 
L 440.662642 7.2 
" clip-path="url(#p4b02e9ad1a)" style="fill: none; stroke: #ffffff; stroke-linecap: round"/>
     </g>
     <g id="line2d_10"/>
     <g id="text_5">
      <!-- 349.40 -->
      <g style="fill: #262626" transform="translate(414.419673 247.357656) scale(0.15 -0.15)">
       <use xlink:href="#DejaVuSerif-33"/>
       <use xlink:href="#DejaVuSerif-34" transform="translate(63.623047 0)"/>
       <use xlink:href="#DejaVuSerif-39" transform="translate(127.246094 0)"/>
       <use xlink:href="#DejaVuSerif-2e" transform="translate(190.869141 0)"/>
       <use xlink:href="#DejaVuSerif-34" transform="translate(222.65625 0)"/>
       <use xlink:href="#DejaVuSerif-30" transform="translate(286.279297 0)"/>
      </g>
     </g>
    </g>
   </g>
   <g id="matplotlib.axis_2">
    <g id="ytick_1">
     <g id="line2d_11">
      <path d="M 67.817188 177.358585 
L 458.417188 177.358585 
" clip-path="url(#p4b02e9ad1a)" style="fill: none; stroke: #ffffff; stroke-linecap: round"/>
     </g>
     <g id="line2d_12"/>
     <g id="text_6">
      <!-- $\mathdefault{10^{-2}}$ -->
      <g style="fill: #262626" transform="translate(25.717188 183.057413) scale(0.15 -0.15)">
       <defs>
        <path id="DejaVuSerif-2212" d="M 678 2259 
L 4684 2259 
L 4684 1753 
L 678 1753 
L 678 2259 
z
" transform="scale(0.015625)"/>
       </defs>
       <use xlink:href="#DejaVuSerif-31" transform="translate(0 0.7125)"/>
       <use xlink:href="#DejaVuSerif-30" transform="translate(63.623047 0.7125)"/>
       <use xlink:href="#DejaVuSerif-2212" transform="translate(128.154453 37.046875) scale(0.7)"/>
       <use xlink:href="#DejaVuSerif-32" transform="translate(186.806797 37.046875) scale(0.7)"/>
      </g>
     </g>
    </g>
    <g id="ytick_2">
     <g id="line2d_13"/>
    </g>
    <g id="ytick_3">
     <g id="line2d_14"/>
    </g>
    <g id="ytick_4">
     <g id="line2d_15"/>
    </g>
    <g id="ytick_5">
     <g id="line2d_16"/>
    </g>
    <g id="ytick_6">
     <g id="line2d_17"/>
    </g>
    <g id="ytick_7">
     <g id="line2d_18"/>
    </g>
    <g id="ytick_8">
     <g id="line2d_19"/>
    </g>
    <g id="ytick_9">
     <g id="line2d_20"/>
    </g>
    <g id="ytick_10">
     <g id="line2d_21"/>
    </g>
    <g id="text_7">
     <!-- Transferencia -->
     <g style="fill: #262626" transform="translate(18.597656 170.958516) rotate(-90) scale(0.15 -0.15)">
      <defs>
       <path id="DejaVuSerif-54" d="M 1222 0 
L 1222 331 
L 1819 331 
L 1819 4294 
L 447 4294 
L 447 3566 
L 63 3566 
L 63 4666 
L 4206 4666 
L 4206 3566 
L 3822 3566 
L 3822 4294 
L 2450 4294 
L 2450 331 
L 3047 331 
L 3047 0 
L 1222 0 
z
" transform="scale(0.015625)"/>
       <path id="DejaVuSerif-72" d="M 3059 3328 
L 3059 2497 
L 2728 2497 
Q 2713 2744 2591 2866 
Q 2469 2988 2234 2988 
Q 1809 2988 1582 2694 
Q 1356 2400 1356 1850 
L 1356 331 
L 2022 331 
L 2022 0 
L 263 0 
L 263 331 
L 781 331 
L 781 2994 
L 231 2994 
L 231 3322 
L 1356 3322 
L 1356 2731 
Q 1525 3078 1790 3245 
Q 2056 3413 2438 3413 
Q 2578 3413 2733 3391 
Q 2888 3369 3059 3328 
z
" transform="scale(0.015625)"/>
       <path id="DejaVuSerif-61" d="M 2547 1044 
L 2547 1747 
L 1806 1747 
Q 1378 1747 1168 1562 
Q 959 1378 959 997 
Q 959 650 1171 447 
Q 1384 244 1747 244 
Q 2106 244 2326 466 
Q 2547 688 2547 1044 
z
M 3122 2075 
L 3122 331 
L 3634 331 
L 3634 0 
L 2547 0 
L 2547 359 
Q 2356 128 2106 18 
Q 1856 -91 1522 -91 
Q 969 -91 644 203 
Q 319 497 319 997 
Q 319 1513 691 1797 
Q 1063 2081 1741 2081 
L 2547 2081 
L 2547 2309 
Q 2547 2688 2317 2895 
Q 2088 3103 1672 3103 
Q 1328 3103 1125 2947 
Q 922 2791 872 2484 
L 575 2484 
L 575 3156 
Q 875 3284 1158 3348 
Q 1441 3413 1709 3413 
Q 2400 3413 2761 3070 
Q 3122 2728 3122 2075 
z
" transform="scale(0.015625)"/>
       <path id="DejaVuSerif-6e" d="M 263 0 
L 263 331 
L 781 331 
L 781 2988 
L 231 2988 
L 231 3322 
L 1356 3322 
L 1356 2731 
Q 1516 3069 1770 3241 
Q 2025 3413 2363 3413 
Q 2913 3413 3172 3097 
Q 3431 2781 3431 2113 
L 3431 331 
L 3944 331 
L 3944 0 
L 2356 0 
L 2356 331 
L 2853 331 
L 2853 1931 
Q 2853 2541 2703 2767 
Q 2553 2994 2175 2994 
Q 1775 2994 1565 2701 
Q 1356 2409 1356 1850 
L 1356 331 
L 1856 331 
L 1856 0 
L 263 0 
z
" transform="scale(0.015625)"/>
       <path id="DejaVuSerif-73" d="M 359 184 
L 359 959 
L 691 959 
Q 703 588 923 403 
Q 1144 219 1575 219 
Q 1963 219 2166 364 
Q 2369 509 2369 788 
Q 2369 1006 2220 1140 
Q 2072 1275 1594 1428 
L 1178 1569 
Q 750 1706 558 1912 
Q 366 2119 366 2438 
Q 366 2894 700 3153 
Q 1034 3413 1625 3413 
Q 1888 3413 2178 3344 
Q 2469 3275 2778 3144 
L 2778 2419 
L 2447 2419 
Q 2434 2741 2221 2922 
Q 2009 3103 1644 3103 
Q 1281 3103 1095 2975 
Q 909 2847 909 2591 
Q 909 2381 1050 2254 
Q 1191 2128 1613 1997 
L 2069 1856 
Q 2541 1709 2748 1489 
Q 2956 1269 2956 922 
Q 2956 450 2595 179 
Q 2234 -91 1600 -91 
Q 1278 -91 972 -22 
Q 666 47 359 184 
z
" transform="scale(0.015625)"/>
       <path id="DejaVuSerif-66" d="M 2753 4078 
L 2450 4078 
Q 2447 4313 2317 4434 
Q 2188 4556 1941 4556 
Q 1619 4556 1487 4379 
Q 1356 4203 1356 3750 
L 1356 3322 
L 2284 3322 
L 2284 2988 
L 1356 2988 
L 1356 331 
L 2094 331 
L 2094 0 
L 231 0 
L 231 331 
L 781 331 
L 781 2988 
L 231 2988 
L 231 3322 
L 781 3322 
L 781 3738 
Q 781 4294 1070 4578 
Q 1359 4863 1919 4863 
Q 2128 4863 2337 4825 
Q 2547 4788 2753 4709 
L 2753 4078 
z
" transform="scale(0.015625)"/>
       <path id="DejaVuSerif-65" d="M 3469 1600 
L 991 1600 
L 991 1575 
Q 991 903 1244 561 
Q 1497 219 1991 219 
Q 2369 219 2611 417 
Q 2853 616 2950 1006 
L 3413 1006 
Q 3275 459 2904 184 
Q 2534 -91 1931 -91 
Q 1203 -91 761 389 
Q 319 869 319 1663 
Q 319 2450 753 2931 
Q 1188 3413 1894 3413 
Q 2647 3413 3050 2948 
Q 3453 2484 3469 1600 
z
M 2791 1931 
Q 2772 2513 2545 2808 
Q 2319 3103 1894 3103 
Q 1497 3103 1269 2806 
Q 1041 2509 991 1931 
L 2791 1931 
z
" transform="scale(0.015625)"/>
       <path id="DejaVuSerif-63" d="M 3291 997 
Q 3169 466 2822 187 
Q 2475 -91 1925 -91 
Q 1200 -91 759 389 
Q 319 869 319 1663 
Q 319 2459 759 2936 
Q 1200 3413 1925 3413 
Q 2241 3413 2553 3339 
Q 2866 3266 3181 3116 
L 3181 2266 
L 2847 2266 
Q 2781 2703 2561 2903 
Q 2341 3103 1931 3103 
Q 1466 3103 1228 2742 
Q 991 2381 991 1663 
Q 991 944 1227 581 
Q 1463 219 1931 219 
Q 2303 219 2525 412 
Q 2747 606 2828 997 
L 3291 997 
z
" transform="scale(0.015625)"/>
       <path id="DejaVuSerif-69" d="M 622 4353 
Q 622 4497 726 4603 
Q 831 4709 978 4709 
Q 1122 4709 1226 4603 
Q 1331 4497 1331 4353 
Q 1331 4206 1228 4103 
Q 1125 4000 978 4000 
Q 831 4000 726 4103 
Q 622 4206 622 4353 
z
M 1356 331 
L 1900 331 
L 1900 0 
L 231 0 
L 231 331 
L 781 331 
L 781 2988 
L 231 2988 
L 231 3322 
L 1356 3322 
L 1356 331 
z
" transform="scale(0.015625)"/>
      </defs>
      <use xlink:href="#DejaVuSerif-54"/>
      <use xlink:href="#DejaVuSerif-72" transform="translate(66.699219 0)"/>
      <use xlink:href="#DejaVuSerif-61" transform="translate(114.501953 0)"/>
      <use xlink:href="#DejaVuSerif-6e" transform="translate(174.121094 0)"/>
      <use xlink:href="#DejaVuSerif-73" transform="translate(238.525391 0)"/>
      <use xlink:href="#DejaVuSerif-66" transform="translate(289.84375 0)"/>
      <use xlink:href="#DejaVuSerif-65" transform="translate(326.855469 0)"/>
      <use xlink:href="#DejaVuSerif-72" transform="translate(386.035156 0)"/>
      <use xlink:href="#DejaVuSerif-65" transform="translate(433.837891 0)"/>
      <use xlink:href="#DejaVuSerif-6e" transform="translate(493.017578 0)"/>
      <use xlink:href="#DejaVuSerif-63" transform="translate(557.421875 0)"/>
      <use xlink:href="#DejaVuSerif-69" transform="translate(613.427734 0)"/>
      <use xlink:href="#DejaVuSerif-61" transform="translate(645.410156 0)"/>
     </g>
    </g>
   </g>
   <g id="LineCollection_1">
    <path d="M 174.34446 215.587169 
L 174.34446 17.28 
" clip-path="url(#p4b02e9ad1a)" style="fill: none; stroke-dasharray: 6.475,2.8; stroke-dashoffset: 0; stroke: #35274a; stroke-opacity: 0.65; stroke-width: 1.75"/>
    <path d="M 254.239915 215.587169 
L 254.239915 17.28 
" clip-path="url(#p4b02e9ad1a)" style="fill: none; stroke-dasharray: 6.475,2.8; stroke-dashoffset: 0; stroke: #35274a; stroke-opacity: 0.65; stroke-width: 1.75"/>
   </g>
   <g id="LineCollection_2">
    <path d="M 235.127497 215.587169 
L 235.127497 17.28 
" clip-path="url(#p4b02e9ad1a)" style="fill: none; stroke-dasharray: 6.475,2.8; stroke-dashoffset: 0; stroke: #f3aa0c; stroke-width: 1.75"/>
   </g>
   <g id="patch_3">
    <path d="M 67.817188 228.96 
L 67.817188 7.2 
" style="fill: none"/>
   </g>
   <g id="patch_4">
    <path d="M 458.417188 228.96 
L 458.417188 7.2 
" style="fill: none"/>
   </g>
   <g id="patch_5">
    <path d="M 67.817187 228.96 
L 458.417187 228.96 
" style="fill: none"/>
   </g>
   <g id="patch_6">
    <path d="M 67.817187 7.2 
L 458.417187 7.2 
" style="fill: none"/>
   </g>
   <g id="LineCollection_3">
    <path d="M 85.571733 103.692728 
L 85.571733 102.842206 
" clip-path="url(#p4b02e9ad1a)" style="fill: none; stroke: #055e49; stroke-width: 1.75"/>
    <path d="M 89.19511 104.09793 
L 89.19511 103.214632 
" clip-path="url(#p4b02e9ad1a)" style="fill: none; stroke: #055e49; stroke-width: 1.75"/>
    <path d="M 92.818486 103.587983 
L 92.818486 102.706018 
" clip-path="url(#p4b02e9ad1a)" style="fill: none; stroke: #055e49; stroke-width: 1.75"/>
    <path d="M 96.441863 103.018942 
L 96.441863 102.12345 
" clip-path="url(#p4b02e9ad1a)" style="fill: none; stroke: #055e49; stroke-width: 1.75"/>
    <path d="M 100.065239 104.035536 
L 100.065239 103.157199 
" clip-path="url(#p4b02e9ad1a)" style="fill: none; stroke: #055e49; stroke-width: 1.75"/>
    <path d="M 103.688616 102.284306 
L 103.688616 101.37735 
" clip-path="url(#p4b02e9ad1a)" style="fill: none; stroke: #055e49; stroke-width: 1.75"/>
    <path d="M 107.311993 102.877139 
L 107.311993 102.007266 
" clip-path="url(#p4b02e9ad1a)" style="fill: none; stroke: #055e49; stroke-width: 1.75"/>
    <path d="M 110.935369 101.014787 
L 110.935369 100.133639 
" clip-path="url(#p4b02e9ad1a)" style="fill: none; stroke: #055e49; stroke-width: 1.75"/>
    <path d="M 114.558746 102.361191 
L 114.558746 101.451664 
" clip-path="url(#p4b02e9ad1a)" style="fill: none; stroke: #055e49; stroke-width: 1.75"/>
    <path d="M 118.182123 100.945027 
L 118.182123 100.082967 
" clip-path="url(#p4b02e9ad1a)" style="fill: none; stroke: #055e49; stroke-width: 1.75"/>
    <path d="M 121.805499 99.237574 
L 121.805499 98.392611 
" clip-path="url(#p4b02e9ad1a)" style="fill: none; stroke: #055e49; stroke-width: 1.75"/>
    <path d="M 125.428876 100.179596 
L 125.428876 99.288304 
" clip-path="url(#p4b02e9ad1a)" style="fill: none; stroke: #055e49; stroke-width: 1.75"/>
    <path d="M 129.052252 99.68055 
L 129.052252 98.796371 
" clip-path="url(#p4b02e9ad1a)" style="fill: none; stroke: #055e49; stroke-width: 1.75"/>
    <path d="M 132.675629 98.848206 
L 132.675629 97.922063 
" clip-path="url(#p4b02e9ad1a)" style="fill: none; stroke: #055e49; stroke-width: 1.75"/>
    <path d="M 136.299006 98.485816 
L 136.299006 97.59005 
" clip-path="url(#p4b02e9ad1a)" style="fill: none; stroke: #055e49; stroke-width: 1.75"/>
    <path d="M 139.922382 97.510617 
L 139.922382 96.618007 
" clip-path="url(#p4b02e9ad1a)" style="fill: none; stroke: #055e49; stroke-width: 1.75"/>
    <path d="M 143.545759 98.257633 
L 143.545759 97.346998 
" clip-path="url(#p4b02e9ad1a)" style="fill: none; stroke: #055e49; stroke-width: 1.75"/>
    <path d="M 147.169136 98.217263 
L 147.169136 97.334165 
" clip-path="url(#p4b02e9ad1a)" style="fill: none; stroke: #055e49; stroke-width: 1.75"/>
    <path d="M 150.792512 96.712299 
L 150.792512 95.841228 
" clip-path="url(#p4b02e9ad1a)" style="fill: none; stroke: #055e49; stroke-width: 1.75"/>
    <path d="M 154.415889 95.81957 
L 154.415889 94.89515 
" clip-path="url(#p4b02e9ad1a)" style="fill: none; stroke: #055e49; stroke-width: 1.75"/>
    <path d="M 158.039265 94.252421 
L 158.039265 93.370976 
" clip-path="url(#p4b02e9ad1a)" style="fill: none; stroke: #055e49; stroke-width: 1.75"/>
    <path d="M 161.662642 93.758533 
L 161.662642 92.873704 
" clip-path="url(#p4b02e9ad1a)" style="fill: none; stroke: #055e49; stroke-width: 1.75"/>
    <path d="M 165.286019 92.500839 
L 165.286019 91.641424 
" clip-path="url(#p4b02e9ad1a)" style="fill: none; stroke: #055e49; stroke-width: 1.75"/>
    <path d="M 168.909395 92.319722 
L 168.909395 91.456286 
" clip-path="url(#p4b02e9ad1a)" style="fill: none; stroke: #055e49; stroke-width: 1.75"/>
    <path d="M 172.532772 91.859813 
L 172.532772 90.985041 
" clip-path="url(#p4b02e9ad1a)" style="fill: none; stroke: #055e49; stroke-width: 1.75"/>
    <path d="M 176.156149 89.708767 
L 176.156149 88.874918 
" clip-path="url(#p4b02e9ad1a)" style="fill: none; stroke: #055e49; stroke-width: 1.75"/>
    <path d="M 179.779525 87.970509 
L 179.779525 87.041195 
" clip-path="url(#p4b02e9ad1a)" style="fill: none; stroke: #055e49; stroke-width: 1.75"/>
    <path d="M 183.402902 87.406922 
L 183.402902 86.525314 
" clip-path="url(#p4b02e9ad1a)" style="fill: none; stroke: #055e49; stroke-width: 1.75"/>
    <path d="M 187.026278 83.61186 
L 187.026278 82.713517 
" clip-path="url(#p4b02e9ad1a)" style="fill: none; stroke: #055e49; stroke-width: 1.75"/>
    <path d="M 190.649655 83.710089 
L 190.649655 82.858343 
" clip-path="url(#p4b02e9ad1a)" style="fill: none; stroke: #055e49; stroke-width: 1.75"/>
    <path d="M 194.273032 81.580806 
L 194.273032 80.673117 
" clip-path="url(#p4b02e9ad1a)" style="fill: none; stroke: #055e49; stroke-width: 1.75"/>
    <path d="M 197.896408 78.90175 
L 197.896408 78.007749 
" clip-path="url(#p4b02e9ad1a)" style="fill: none; stroke: #055e49; stroke-width: 1.75"/>
    <path d="M 201.519785 77.342321 
L 201.519785 76.465332 
" clip-path="url(#p4b02e9ad1a)" style="fill: none; stroke: #055e49; stroke-width: 1.75"/>
    <path d="M 205.143162 73.831219 
L 205.143162 72.922472 
" clip-path="url(#p4b02e9ad1a)" style="fill: none; stroke: #055e49; stroke-width: 1.75"/>
    <path d="M 208.766538 70.686228 
L 208.766538 69.813132 
" clip-path="url(#p4b02e9ad1a)" style="fill: none; stroke: #055e49; stroke-width: 1.75"/>
    <path d="M 212.389915 67.26003 
L 212.389915 66.390978 
" clip-path="url(#p4b02e9ad1a)" style="fill: none; stroke: #055e49; stroke-width: 1.75"/>
    <path d="M 216.013291 63.964375 
L 216.013291 63.122061 
" clip-path="url(#p4b02e9ad1a)" style="fill: none; stroke: #055e49; stroke-width: 1.75"/>
    <path d="M 219.636668 56.040101 
L 219.636668 55.177799 
" clip-path="url(#p4b02e9ad1a)" style="fill: none; stroke: #055e49; stroke-width: 1.75"/>
    <path d="M 223.260045 49.869565 
L 223.260045 49.011303 
" clip-path="url(#p4b02e9ad1a)" style="fill: none; stroke: #055e49; stroke-width: 1.75"/>
    <path d="M 226.883421 42.943979 
L 226.883421 42.0571 
" clip-path="url(#p4b02e9ad1a)" style="fill: none; stroke: #055e49; stroke-width: 1.75"/>
    <path d="M 230.506798 35.426226 
L 230.506798 34.52207 
" clip-path="url(#p4b02e9ad1a)" style="fill: none; stroke: #055e49; stroke-width: 1.75"/>
    <path d="M 234.130175 26.533266 
L 234.130175 25.692085 
" clip-path="url(#p4b02e9ad1a)" style="fill: none; stroke: #055e49; stroke-width: 1.75"/>
    <path d="M 237.753551 18.871493 
L 237.753551 17.912839 
" clip-path="url(#p4b02e9ad1a)" style="fill: none; stroke: #055e49; stroke-width: 1.75"/>
    <path d="M 241.376928 17.728384 
L 241.376928 16.833821 
" clip-path="url(#p4b02e9ad1a)" style="fill: none; stroke: #055e49; stroke-width: 1.75"/>
    <path d="M 245.000304 30.92046 
L 245.000304 29.987365 
" clip-path="url(#p4b02e9ad1a)" style="fill: none; stroke: #055e49; stroke-width: 1.75"/>
    <path d="M 248.623681 56.131006 
L 248.623681 55.163438 
" clip-path="url(#p4b02e9ad1a)" style="fill: none; stroke: #055e49; stroke-width: 1.75"/>
    <path d="M 252.247058 89.500201 
L 252.247058 88.601587 
" clip-path="url(#p4b02e9ad1a)" style="fill: none; stroke: #055e49; stroke-width: 1.75"/>
    <path d="M 255.870434 120.254386 
L 255.870434 119.362923 
" clip-path="url(#p4b02e9ad1a)" style="fill: none; stroke: #055e49; stroke-width: 1.75"/>
    <path d="M 259.493811 156.059482 
L 259.493811 155.35845 
" clip-path="url(#p4b02e9ad1a)" style="fill: none; stroke: #055e49; stroke-width: 1.75"/>
    <path d="M 263.117188 186.918423 
L 263.117188 186.524184 
" clip-path="url(#p4b02e9ad1a)" style="fill: none; stroke: #055e49; stroke-width: 1.75"/>
    <path d="M 266.740564 208.830655 
L 266.740564 208.408044 
" clip-path="url(#p4b02e9ad1a)" style="fill: none; stroke: #055e49; stroke-width: 1.75"/>
    <path d="M 270.363941 215.80227 
L 270.363941 215.372577 
" clip-path="url(#p4b02e9ad1a)" style="fill: none; stroke: #055e49; stroke-width: 1.75"/>
    <path d="M 273.987317 210.707106 
L 273.987317 210.270577 
" clip-path="url(#p4b02e9ad1a)" style="fill: none; stroke: #055e49; stroke-width: 1.75"/>
    <path d="M 277.610694 202.177255 
L 277.610694 201.731395 
" clip-path="url(#p4b02e9ad1a)" style="fill: none; stroke: #055e49; stroke-width: 1.75"/>
    <path d="M 281.234071 194.358175 
L 281.234071 193.914024 
" clip-path="url(#p4b02e9ad1a)" style="fill: none; stroke: #055e49; stroke-width: 1.75"/>
    <path d="M 284.857447 186.550097 
L 284.857447 186.117691 
" clip-path="url(#p4b02e9ad1a)" style="fill: none; stroke: #055e49; stroke-width: 1.75"/>
    <path d="M 288.480824 179.442888 
L 288.480824 179.010625 
" clip-path="url(#p4b02e9ad1a)" style="fill: none; stroke: #055e49; stroke-width: 1.75"/>
    <path d="M 292.1042 174.107132 
L 292.1042 173.679862 
" clip-path="url(#p4b02e9ad1a)" style="fill: none; stroke: #055e49; stroke-width: 1.75"/>
    <path d="M 295.727577 169.370452 
L 295.727577 168.93465 
" clip-path="url(#p4b02e9ad1a)" style="fill: none; stroke: #055e49; stroke-width: 1.75"/>
    <path d="M 299.350954 164.908147 
L 299.350954 164.470607 
" clip-path="url(#p4b02e9ad1a)" style="fill: none; stroke: #055e49; stroke-width: 1.75"/>
    <path d="M 302.97433 161.363502 
L 302.97433 160.939814 
" clip-path="url(#p4b02e9ad1a)" style="fill: none; stroke: #055e49; stroke-width: 1.75"/>
    <path d="M 306.597707 158.684002 
L 306.597707 158.255381 
" clip-path="url(#p4b02e9ad1a)" style="fill: none; stroke: #055e49; stroke-width: 1.75"/>
    <path d="M 310.221084 155.657375 
L 310.221084 155.221603 
" clip-path="url(#p4b02e9ad1a)" style="fill: none; stroke: #055e49; stroke-width: 1.75"/>
    <path d="M 313.84446 154.046799 
L 313.84446 153.620345 
" clip-path="url(#p4b02e9ad1a)" style="fill: none; stroke: #055e49; stroke-width: 1.75"/>
    <path d="M 317.467837 151.877357 
L 317.467837 151.444294 
" clip-path="url(#p4b02e9ad1a)" style="fill: none; stroke: #055e49; stroke-width: 1.75"/>
    <path d="M 321.091213 149.567572 
L 321.091213 149.146562 
" clip-path="url(#p4b02e9ad1a)" style="fill: none; stroke: #055e49; stroke-width: 1.75"/>
    <path d="M 324.71459 147.853374 
L 324.71459 147.412468 
" clip-path="url(#p4b02e9ad1a)" style="fill: none; stroke: #055e49; stroke-width: 1.75"/>
    <path d="M 328.337967 146.794753 
L 328.337967 146.362988 
" clip-path="url(#p4b02e9ad1a)" style="fill: none; stroke: #055e49; stroke-width: 1.75"/>
    <path d="M 331.961343 145.173401 
L 331.961343 144.756477 
" clip-path="url(#p4b02e9ad1a)" style="fill: none; stroke: #055e49; stroke-width: 1.75"/>
    <path d="M 335.58472 143.41827 
L 335.58472 142.991571 
" clip-path="url(#p4b02e9ad1a)" style="fill: none; stroke: #055e49; stroke-width: 1.75"/>
    <path d="M 339.208097 142.357904 
L 339.208097 141.924557 
" clip-path="url(#p4b02e9ad1a)" style="fill: none; stroke: #055e49; stroke-width: 1.75"/>
    <path d="M 342.831473 141.610496 
L 342.831473 141.181965 
" clip-path="url(#p4b02e9ad1a)" style="fill: none; stroke: #055e49; stroke-width: 1.75"/>
    <path d="M 346.45485 141.133955 
L 346.45485 140.710506 
" clip-path="url(#p4b02e9ad1a)" style="fill: none; stroke: #055e49; stroke-width: 1.75"/>
    <path d="M 350.078226 139.779707 
L 350.078226 139.350854 
" clip-path="url(#p4b02e9ad1a)" style="fill: none; stroke: #055e49; stroke-width: 1.75"/>
    <path d="M 353.701603 139.172722 
L 353.701603 138.751625 
" clip-path="url(#p4b02e9ad1a)" style="fill: none; stroke: #055e49; stroke-width: 1.75"/>
    <path d="M 357.32498 138.091612 
L 357.32498 137.671689 
" clip-path="url(#p4b02e9ad1a)" style="fill: none; stroke: #055e49; stroke-width: 1.75"/>
    <path d="M 360.948356 137.099664 
L 360.948356 136.663343 
" clip-path="url(#p4b02e9ad1a)" style="fill: none; stroke: #055e49; stroke-width: 1.75"/>
    <path d="M 364.571733 136.691864 
L 364.571733 136.269307 
" clip-path="url(#p4b02e9ad1a)" style="fill: none; stroke: #055e49; stroke-width: 1.75"/>
    <path d="M 368.19511 136.143063 
L 368.19511 135.716005 
" clip-path="url(#p4b02e9ad1a)" style="fill: none; stroke: #055e49; stroke-width: 1.75"/>
    <path d="M 371.818486 135.733004 
L 371.818486 135.310438 
" clip-path="url(#p4b02e9ad1a)" style="fill: none; stroke: #055e49; stroke-width: 1.75"/>
    <path d="M 375.441863 135.029341 
L 375.441863 134.603249 
" clip-path="url(#p4b02e9ad1a)" style="fill: none; stroke: #055e49; stroke-width: 1.75"/>
    <path d="M 379.065239 134.033509 
L 379.065239 133.606996 
" clip-path="url(#p4b02e9ad1a)" style="fill: none; stroke: #055e49; stroke-width: 1.75"/>
    <path d="M 382.688616 133.892684 
L 382.688616 133.465003 
" clip-path="url(#p4b02e9ad1a)" style="fill: none; stroke: #055e49; stroke-width: 1.75"/>
    <path d="M 386.311993 133.576408 
L 386.311993 133.147015 
" clip-path="url(#p4b02e9ad1a)" style="fill: none; stroke: #055e49; stroke-width: 1.75"/>
    <path d="M 389.935369 132.7141 
L 389.935369 132.274201 
" clip-path="url(#p4b02e9ad1a)" style="fill: none; stroke: #055e49; stroke-width: 1.75"/>
    <path d="M 393.558746 132.37494 
L 393.558746 131.935412 
" clip-path="url(#p4b02e9ad1a)" style="fill: none; stroke: #055e49; stroke-width: 1.75"/>
    <path d="M 397.182123 132.114349 
L 397.182123 131.686808 
" clip-path="url(#p4b02e9ad1a)" style="fill: none; stroke: #055e49; stroke-width: 1.75"/>
    <path d="M 400.805499 131.727598 
L 400.805499 131.309357 
" clip-path="url(#p4b02e9ad1a)" style="fill: none; stroke: #055e49; stroke-width: 1.75"/>
    <path d="M 404.428876 131.348989 
L 404.428876 130.925612 
" clip-path="url(#p4b02e9ad1a)" style="fill: none; stroke: #055e49; stroke-width: 1.75"/>
    <path d="M 408.052252 131.086036 
L 408.052252 130.66951 
" clip-path="url(#p4b02e9ad1a)" style="fill: none; stroke: #055e49; stroke-width: 1.75"/>
    <path d="M 411.675629 130.549194 
L 411.675629 130.12472 
" clip-path="url(#p4b02e9ad1a)" style="fill: none; stroke: #055e49; stroke-width: 1.75"/>
    <path d="M 415.299006 130.477733 
L 415.299006 130.060242 
" clip-path="url(#p4b02e9ad1a)" style="fill: none; stroke: #055e49; stroke-width: 1.75"/>
    <path d="M 418.922382 130.232723 
L 418.922382 129.804707 
" clip-path="url(#p4b02e9ad1a)" style="fill: none; stroke: #055e49; stroke-width: 1.75"/>
    <path d="M 422.545759 129.898832 
L 422.545759 129.48599 
" clip-path="url(#p4b02e9ad1a)" style="fill: none; stroke: #055e49; stroke-width: 1.75"/>
    <path d="M 426.169136 129.394677 
L 426.169136 128.967798 
" clip-path="url(#p4b02e9ad1a)" style="fill: none; stroke: #055e49; stroke-width: 1.75"/>
    <path d="M 429.792512 129.225815 
L 429.792512 128.79366 
" clip-path="url(#p4b02e9ad1a)" style="fill: none; stroke: #055e49; stroke-width: 1.75"/>
    <path d="M 433.415889 128.700244 
L 433.415889 128.289184 
" clip-path="url(#p4b02e9ad1a)" style="fill: none; stroke: #055e49; stroke-width: 1.75"/>
    <path d="M 437.039265 128.734353 
L 437.039265 128.319182 
" clip-path="url(#p4b02e9ad1a)" style="fill: none; stroke: #055e49; stroke-width: 1.75"/>
    <path d="M 440.662642 128.83176 
L 440.662642 128.404756 
" clip-path="url(#p4b02e9ad1a)" style="fill: none; stroke: #055e49; stroke-width: 1.75"/>
   </g>
   <g id="legend_1">
    <g id="patch_7">
     <path d="M 317.177188 105.954375 
L 450.017188 105.954375 
Q 452.417188 105.954375 452.417188 103.554375 
L 452.417188 15.6 
Q 452.417188 13.2 450.017188 13.2 
L 317.177188 13.2 
Q 314.777188 13.2 314.777188 15.6 
L 314.777188 103.554375 
Q 314.777188 105.954375 317.177188 105.954375 
z
" style="fill: #eaeaf2; opacity: 0.8; stroke: #cccccc; stroke-width: 0.3; stroke-linejoin: miter"/>
    </g>
    <g id="line2d_22">
     <path d="M 319.577188 22.918125 
L 331.577188 22.918125 
L 343.577188 22.918125 
" style="fill: none; stroke: #f2300f; stroke-width: 1.5; stroke-linecap: round"/>
    </g>
    <g id="text_8">
     <!-- Ajuste RLC -->
     <g style="fill: #262626" transform="translate(353.177188 27.118125) scale(0.12 -0.12)">
      <defs>
       <path id="DejaVuSerif-41" d="M 1281 1691 
L 2994 1691 
L 2138 3909 
L 1281 1691 
z
M -38 0 
L -38 331 
L 372 331 
L 2034 4666 
L 2559 4666 
L 4225 331 
L 4684 331 
L 4684 0 
L 2988 0 
L 2988 331 
L 3506 331 
L 3116 1356 
L 1153 1356 
L 763 331 
L 1275 331 
L 1275 0 
L -38 0 
z
" transform="scale(0.015625)"/>
       <path id="DejaVuSerif-6a" d="M 641 4353 
Q 641 4497 745 4603 
Q 850 4709 997 4709 
Q 1141 4709 1245 4603 
Q 1350 4497 1350 4353 
Q 1350 4206 1248 4103 
Q 1147 4000 997 4000 
Q 850 4000 745 4103 
Q 641 4206 641 4353 
z
M 781 2988 
L 238 2988 
L 238 3322 
L 1356 3322 
L 1356 -325 
Q 1356 -838 1051 -1130 
Q 747 -1422 213 -1422 
Q -13 -1422 -217 -1370 
Q -422 -1319 -616 -1216 
L -616 -531 
L -319 -531 
Q -297 -831 -164 -972 
Q -31 -1113 225 -1113 
Q 509 -1113 645 -920 
Q 781 -728 781 -325 
L 781 2988 
z
" transform="scale(0.015625)"/>
       <path id="DejaVuSerif-75" d="M 2266 3322 
L 3341 3322 
L 3341 331 
L 3884 331 
L 3884 0 
L 2766 0 
L 2766 588 
Q 2606 256 2353 82 
Q 2100 -91 1766 -91 
Q 1213 -91 952 223 
Q 691 538 691 1209 
L 691 2988 
L 172 2988 
L 172 3322 
L 1269 3322 
L 1269 1388 
Q 1269 781 1417 556 
Q 1566 331 1947 331 
Q 2347 331 2556 625 
Q 2766 919 2766 1478 
L 2766 2988 
L 2266 2988 
L 2266 3322 
z
" transform="scale(0.015625)"/>
       <path id="DejaVuSerif-74" d="M 691 2988 
L 184 2988 
L 184 3322 
L 691 3322 
L 691 4353 
L 1269 4353 
L 1269 3322 
L 2350 3322 
L 2350 2988 
L 1269 2988 
L 1269 878 
Q 1269 456 1350 337 
Q 1431 219 1650 219 
Q 1875 219 1978 351 
Q 2081 484 2088 781 
L 2522 781 
Q 2497 328 2275 118 
Q 2053 -91 1600 -91 
Q 1103 -91 897 129 
Q 691 350 691 878 
L 691 2988 
z
" transform="scale(0.015625)"/>
       <path id="DejaVuSerif-20" transform="scale(0.015625)"/>
       <path id="DejaVuSerif-52" d="M 3066 2316 
Q 3284 2256 3442 2114 
Q 3600 1972 3725 1716 
L 4403 331 
L 4972 331 
L 4972 0 
L 3872 0 
L 3144 1484 
Q 2934 1916 2759 2042 
Q 2584 2169 2278 2169 
L 1581 2169 
L 1581 331 
L 2241 331 
L 2241 0 
L 353 0 
L 353 331 
L 947 331 
L 947 4331 
L 353 4331 
L 353 4666 
L 2719 4666 
Q 3400 4666 3770 4341 
Q 4141 4016 4141 3419 
Q 4141 2938 3870 2661 
Q 3600 2384 3066 2316 
z
M 1581 2503 
L 2503 2503 
Q 2975 2503 3200 2726 
Q 3425 2950 3425 3419 
Q 3425 3888 3200 4109 
Q 2975 4331 2503 4331 
L 1581 4331 
L 1581 2503 
z
" transform="scale(0.015625)"/>
       <path id="DejaVuSerif-4c" d="M 353 0 
L 353 331 
L 947 331 
L 947 4331 
L 353 4331 
L 353 4666 
L 2175 4666 
L 2175 4331 
L 1581 4331 
L 1581 384 
L 3713 384 
L 3713 1166 
L 4097 1166 
L 4097 0 
L 353 0 
z
" transform="scale(0.015625)"/>
       <path id="DejaVuSerif-43" d="M 4513 1234 
Q 4306 581 3820 245 
Q 3334 -91 2591 -91 
Q 2134 -91 1743 65 
Q 1353 222 1050 525 
Q 700 875 529 1320 
Q 359 1766 359 2328 
Q 359 3416 987 4083 
Q 1616 4750 2644 4750 
Q 3025 4750 3456 4650 
Q 3888 4550 4384 4347 
L 4384 3272 
L 4031 3272 
Q 3916 3859 3567 4137 
Q 3219 4416 2591 4416 
Q 1844 4416 1459 3886 
Q 1075 3356 1075 2328 
Q 1075 1303 1459 773 
Q 1844 244 2591 244 
Q 3113 244 3450 492 
Q 3788 741 3938 1234 
L 4513 1234 
z
" transform="scale(0.015625)"/>
      </defs>
      <use xlink:href="#DejaVuSerif-41"/>
      <use xlink:href="#DejaVuSerif-6a" transform="translate(72.216797 0)"/>
      <use xlink:href="#DejaVuSerif-75" transform="translate(103.222656 0)"/>
      <use xlink:href="#DejaVuSerif-73" transform="translate(167.626953 0)"/>
      <use xlink:href="#DejaVuSerif-74" transform="translate(218.945312 0)"/>
      <use xlink:href="#DejaVuSerif-65" transform="translate(259.130859 0)"/>
      <use xlink:href="#DejaVuSerif-20" transform="translate(318.310547 0)"/>
      <use xlink:href="#DejaVuSerif-52" transform="translate(350.097656 0)"/>
      <use xlink:href="#DejaVuSerif-4c" transform="translate(425.390625 0)"/>
      <use xlink:href="#DejaVuSerif-43" transform="translate(491.796875 0)"/>
     </g>
    </g>
    <g id="line2d_23">
     <path d="M 319.577188 40.7025 
L 331.577188 40.7025 
L 343.577188 40.7025 
" style="fill: none; stroke: #f3aa0c; stroke-width: 2; stroke-linecap: round"/>
    </g>
    <g id="text_9">
     <!-- Ajuste con $C_2$ -->
     <g style="fill: #262626" transform="translate(353.177188 44.9025) scale(0.12 -0.12)">
      <defs>
       <path id="DejaVuSerif-6f" d="M 1925 219 
Q 2388 219 2623 584 
Q 2859 950 2859 1663 
Q 2859 2375 2623 2739 
Q 2388 3103 1925 3103 
Q 1463 3103 1227 2739 
Q 991 2375 991 1663 
Q 991 950 1228 584 
Q 1466 219 1925 219 
z
M 1925 -91 
Q 1200 -91 759 389 
Q 319 869 319 1663 
Q 319 2456 758 2934 
Q 1197 3413 1925 3413 
Q 2653 3413 3092 2934 
Q 3531 2456 3531 1663 
Q 3531 869 3092 389 
Q 2653 -91 1925 -91 
z
" transform="scale(0.015625)"/>
      </defs>
      <use xlink:href="#DejaVuSerif-41" transform="translate(0 0.78125)"/>
      <use xlink:href="#DejaVuSerif-6a" transform="translate(72.216797 0.78125)"/>
      <use xlink:href="#DejaVuSerif-75" transform="translate(103.222656 0.78125)"/>
      <use xlink:href="#DejaVuSerif-73" transform="translate(167.626953 0.78125)"/>
      <use xlink:href="#DejaVuSerif-74" transform="translate(218.945312 0.78125)"/>
      <use xlink:href="#DejaVuSerif-65" transform="translate(259.130859 0.78125)"/>
      <use xlink:href="#DejaVuSerif-20" transform="translate(318.310547 0.78125)"/>
      <use xlink:href="#DejaVuSerif-63" transform="translate(350.097656 0.78125)"/>
      <use xlink:href="#DejaVuSerif-6f" transform="translate(406.103516 0.78125)"/>
      <use xlink:href="#DejaVuSerif-6e" transform="translate(466.308594 0.78125)"/>
      <use xlink:href="#DejaVuSerif-20" transform="translate(530.712891 0.78125)"/>
      <use xlink:href="#DejaVuSerif-43" transform="translate(562.5 0.78125)"/>
      <use xlink:href="#DejaVuSerif-32" transform="translate(639.922031 -14.790625) scale(0.7)"/>
     </g>
    </g>
    <g id="line2d_24">
     <path d="M 319.577188 59.060625 
L 343.577188 59.060625 
" style="fill: none; stroke-dasharray: 6.475,2.8; stroke-dashoffset: 0; stroke: #35274a; stroke-opacity: 0.65; stroke-width: 1.75"/>
    </g>
    <g id="text_10">
     <!-- Límite ajuste -->
     <g style="fill: #262626" transform="translate(353.177188 63.260625) scale(0.12 -0.12)">
      <defs>
       <path id="DejaVuSerif-ed" d="M 1356 331 
L 1900 331 
L 1900 0 
L 231 0 
L 231 331 
L 781 331 
L 781 2988 
L 231 2988 
L 231 3322 
L 1356 3322 
L 1356 331 
z
M 1459 5119 
L 2081 5119 
L 1019 3944 
L 653 3944 
L 1459 5119 
z
" transform="scale(0.015625)"/>
       <path id="DejaVuSerif-6d" d="M 3316 2675 
Q 3481 3041 3739 3227 
Q 3997 3413 4341 3413 
Q 4863 3413 5119 3089 
Q 5375 2766 5375 2113 
L 5375 331 
L 5894 331 
L 5894 0 
L 4300 0 
L 4300 331 
L 4800 331 
L 4800 2047 
Q 4800 2556 4650 2772 
Q 4500 2988 4153 2988 
Q 3769 2988 3567 2697 
Q 3366 2406 3366 1850 
L 3366 331 
L 3866 331 
L 3866 0 
L 2291 0 
L 2291 331 
L 2791 331 
L 2791 2069 
Q 2791 2566 2641 2777 
Q 2491 2988 2144 2988 
Q 1759 2988 1557 2697 
Q 1356 2406 1356 1850 
L 1356 331 
L 1856 331 
L 1856 0 
L 263 0 
L 263 331 
L 781 331 
L 781 2994 
L 231 2994 
L 231 3322 
L 1356 3322 
L 1356 2731 
Q 1516 3063 1762 3238 
Q 2009 3413 2322 3413 
Q 2709 3413 2968 3220 
Q 3228 3028 3316 2675 
z
" transform="scale(0.015625)"/>
      </defs>
      <use xlink:href="#DejaVuSerif-4c"/>
      <use xlink:href="#DejaVuSerif-ed" transform="translate(66.40625 0)"/>
      <use xlink:href="#DejaVuSerif-6d" transform="translate(98.388672 0)"/>
      <use xlink:href="#DejaVuSerif-69" transform="translate(193.212891 0)"/>
      <use xlink:href="#DejaVuSerif-74" transform="translate(225.195312 0)"/>
      <use xlink:href="#DejaVuSerif-65" transform="translate(265.380859 0)"/>
      <use xlink:href="#DejaVuSerif-20" transform="translate(324.560547 0)"/>
      <use xlink:href="#DejaVuSerif-61" transform="translate(356.347656 0)"/>
      <use xlink:href="#DejaVuSerif-6a" transform="translate(415.966797 0)"/>
      <use xlink:href="#DejaVuSerif-75" transform="translate(446.972656 0)"/>
      <use xlink:href="#DejaVuSerif-73" transform="translate(511.376953 0)"/>
      <use xlink:href="#DejaVuSerif-74" transform="translate(562.695312 0)"/>
      <use xlink:href="#DejaVuSerif-65" transform="translate(602.880859 0)"/>
     </g>
    </g>
    <g id="line2d_25">
     <path d="M 319.577188 76.845 
L 343.577188 76.845 
" style="fill: none; stroke-dasharray: 6.475,2.8; stroke-dashoffset: 0; stroke: #f3aa0c; stroke-width: 1.75"/>
    </g>
    <g id="text_11">
     <!-- $f_0 = 349.17$ kHz -->
     <g style="fill: #262626" transform="translate(353.177188 81.045) scale(0.12 -0.12)">
      <defs>
       <path id="DejaVuSerif-3d" d="M 678 2894 
L 4684 2894 
L 4684 2394 
L 678 2394 
L 678 2894 
z
M 678 1619 
L 4684 1619 
L 4684 1119 
L 678 1119 
L 678 1619 
z
" transform="scale(0.015625)"/>
       <path id="DejaVuSerif-37" d="M 3609 4347 
L 1784 0 
L 1319 0 
L 3059 4153 
L 903 4153 
L 903 3578 
L 538 3578 
L 538 4666 
L 3609 4666 
L 3609 4347 
z
" transform="scale(0.015625)"/>
       <path id="DejaVuSerif-6b" d="M 1831 0 
L 219 0 
L 219 331 
L 738 331 
L 738 4531 
L 184 4531 
L 184 4863 
L 1313 4863 
L 1313 1697 
L 2713 2988 
L 2234 2988 
L 2234 3322 
L 3738 3322 
L 3738 2988 
L 3169 2988 
L 2181 2075 
L 3444 331 
L 3922 331 
L 3922 0 
L 2284 0 
L 2284 331 
L 2759 331 
L 1766 1697 
L 1313 1275 
L 1313 331 
L 1831 331 
L 1831 0 
z
" transform="scale(0.015625)"/>
       <path id="DejaVuSerif-48" d="M 353 0 
L 353 331 
L 947 331 
L 947 4331 
L 353 4331 
L 353 4666 
L 2175 4666 
L 2175 4331 
L 1581 4331 
L 1581 2719 
L 4000 2719 
L 4000 4331 
L 3406 4331 
L 3406 4666 
L 5228 4666 
L 5228 4331 
L 4634 4331 
L 4634 331 
L 5228 331 
L 5228 0 
L 3406 0 
L 3406 331 
L 4000 331 
L 4000 2338 
L 1581 2338 
L 1581 331 
L 2175 331 
L 2175 0 
L 353 0 
z
" transform="scale(0.015625)"/>
       <path id="DejaVuSerif-7a" d="M 256 0 
L 256 269 
L 2338 2988 
L 691 2988 
L 691 2413 
L 359 2413 
L 359 3322 
L 3078 3322 
L 3078 3053 
L 997 331 
L 2803 331 
L 2803 934 
L 3138 934 
L 3138 0 
L 256 0 
z
" transform="scale(0.015625)"/>
      </defs>
      <use xlink:href="#DejaVuSerif-66" transform="translate(0 0.015625)"/>
      <use xlink:href="#DejaVuSerif-30" transform="translate(37.920078 -15.55625) scale(0.7)"/>
      <use xlink:href="#DejaVuSerif-3d" transform="translate(102.610117 0.015625)"/>
      <use xlink:href="#DejaVuSerif-33" transform="translate(203.957773 0.015625)"/>
      <use xlink:href="#DejaVuSerif-34" transform="translate(267.58082 0.015625)"/>
      <use xlink:href="#DejaVuSerif-39" transform="translate(331.203867 0.015625)"/>
      <use xlink:href="#DejaVuSerif-2e" transform="translate(394.826914 0.015625)"/>
      <use xlink:href="#DejaVuSerif-31" transform="translate(426.614023 0.015625)"/>
      <use xlink:href="#DejaVuSerif-37" transform="translate(490.23707 0.015625)"/>
      <use xlink:href="#DejaVuSerif-20" transform="translate(553.860117 0.015625)"/>
      <use xlink:href="#DejaVuSerif-6b" transform="translate(585.647227 0.015625)"/>
      <use xlink:href="#DejaVuSerif-48" transform="translate(646.24293 0.015625)"/>
      <use xlink:href="#DejaVuSerif-7a" transform="translate(733.449961 0.015625)"/>
     </g>
    </g>
    <g id="LineCollection_4">
     <path d="M 331.577188 100.45875 
L 331.577188 88.45875 
" style="fill: none; stroke: #055e49; stroke-width: 1.75"/>
    </g>
    <g id="line2d_26"/>
    <g id="line2d_27">
     <defs>
      <path id="m37e0972f8f" d="M 0 1.75 
C 0.464105 1.75 0.909265 1.565609 1.237437 1.237437 
C 1.565609 0.909265 1.75 0.464105 1.75 0 
C 1.75 -0.464105 1.565609 -0.909265 1.237437 -1.237437 
C 0.909265 -1.565609 0.464105 -1.75 0 -1.75 
C -0.464105 -1.75 -0.909265 -1.565609 -1.237437 -1.237437 
C -1.565609 -0.909265 -1.75 -0.464105 -1.75 0 
C -1.75 0.464105 -1.565609 0.909265 -1.237437 1.237437 
C -0.909265 1.565609 -0.464105 1.75 0 1.75 
z
"/>
     </defs>
     <g>
      <use xlink:href="#m37e0972f8f" x="331.577188" y="94.45875" style="fill: #055e49"/>
     </g>
    </g>
    <g id="text_12">
     <!-- Datos -->
     <g style="fill: #262626" transform="translate(353.177188 98.65875) scale(0.12 -0.12)">
      <defs>
       <path id="DejaVuSerif-44" d="M 1581 331 
L 2163 331 
Q 3072 331 3558 850 
Q 4044 1369 4044 2338 
Q 4044 3306 3559 3818 
Q 3075 4331 2163 4331 
L 1581 4331 
L 1581 331 
z
M 353 0 
L 353 331 
L 947 331 
L 947 4331 
L 353 4331 
L 353 4666 
L 2209 4666 
Q 3416 4666 4089 4050 
Q 4763 3434 4763 2338 
Q 4763 1238 4088 619 
Q 3413 0 2209 0 
L 353 0 
z
" transform="scale(0.015625)"/>
      </defs>
      <use xlink:href="#DejaVuSerif-44"/>
      <use xlink:href="#DejaVuSerif-61" transform="translate(80.175781 0)"/>
      <use xlink:href="#DejaVuSerif-74" transform="translate(139.794922 0)"/>
      <use xlink:href="#DejaVuSerif-6f" transform="translate(179.980469 0)"/>
      <use xlink:href="#DejaVuSerif-73" transform="translate(240.185547 0)"/>
     </g>
    </g>
   </g>
   <g id="line2d_28">
    <g clip-path="url(#p4b02e9ad1a)">
     <use xlink:href="#m37e0972f8f" x="85.571733" y="103.266471" style="fill: #055e49"/>
     <use xlink:href="#m37e0972f8f" x="89.19511" y="103.655206" style="fill: #055e49"/>
     <use xlink:href="#m37e0972f8f" x="92.818486" y="103.145929" style="fill: #055e49"/>
     <use xlink:href="#m37e0972f8f" x="96.441863" y="102.570091" style="fill: #055e49"/>
     <use xlink:href="#m37e0972f8f" x="100.065239" y="103.595305" style="fill: #055e49"/>
     <use xlink:href="#m37e0972f8f" x="103.688616" y="101.829695" style="fill: #055e49"/>
     <use xlink:href="#m37e0972f8f" x="107.311993" y="102.44116" style="fill: #055e49"/>
     <use xlink:href="#m37e0972f8f" x="110.935369" y="100.573143" style="fill: #055e49"/>
     <use xlink:href="#m37e0972f8f" x="114.558746" y="101.905288" style="fill: #055e49"/>
     <use xlink:href="#m37e0972f8f" x="118.182123" y="100.512974" style="fill: #055e49"/>
     <use xlink:href="#m37e0972f8f" x="121.805499" y="98.814109" style="fill: #055e49"/>
     <use xlink:href="#m37e0972f8f" x="125.428876" y="99.732856" style="fill: #055e49"/>
     <use xlink:href="#m37e0972f8f" x="129.052252" y="99.237384" style="fill: #055e49"/>
     <use xlink:href="#m37e0972f8f" x="132.675629" y="98.383953" style="fill: #055e49"/>
     <use xlink:href="#m37e0972f8f" x="136.299006" y="98.036828" style="fill: #055e49"/>
     <use xlink:href="#m37e0972f8f" x="139.922382" y="97.063214" style="fill: #055e49"/>
     <use xlink:href="#m37e0972f8f" x="143.545759" y="97.801173" style="fill: #055e49"/>
     <use xlink:href="#m37e0972f8f" x="147.169136" y="97.77464" style="fill: #055e49"/>
     <use xlink:href="#m37e0972f8f" x="150.792512" y="96.275719" style="fill: #055e49"/>
     <use xlink:href="#m37e0972f8f" x="154.415889" y="95.356183" style="fill: #055e49"/>
     <use xlink:href="#m37e0972f8f" x="158.039265" y="93.810628" style="fill: #055e49"/>
     <use xlink:href="#m37e0972f8f" x="161.662642" y="93.31504" style="fill: #055e49"/>
     <use xlink:href="#m37e0972f8f" x="165.286019" y="92.070114" style="fill: #055e49"/>
     <use xlink:href="#m37e0972f8f" x="168.909395" y="91.886977" style="fill: #055e49"/>
     <use xlink:href="#m37e0972f8f" x="172.532772" y="91.421373" style="fill: #055e49"/>
     <use xlink:href="#m37e0972f8f" x="176.156149" y="89.290885" style="fill: #055e49"/>
     <use xlink:href="#m37e0972f8f" x="179.779525" y="87.504663" style="fill: #055e49"/>
     <use xlink:href="#m37e0972f8f" x="183.402902" y="86.965047" style="fill: #055e49"/>
     <use xlink:href="#m37e0972f8f" x="187.026278" y="83.161577" style="fill: #055e49"/>
     <use xlink:href="#m37e0972f8f" x="190.649655" y="83.283217" style="fill: #055e49"/>
     <use xlink:href="#m37e0972f8f" x="194.273032" y="81.125827" style="fill: #055e49"/>
     <use xlink:href="#m37e0972f8f" x="197.896408" y="78.453649" style="fill: #055e49"/>
     <use xlink:href="#m37e0972f8f" x="201.519785" y="76.902767" style="fill: #055e49"/>
     <use xlink:href="#m37e0972f8f" x="205.143162" y="73.375708" style="fill: #055e49"/>
     <use xlink:href="#m37e0972f8f" x="208.766538" y="70.24863" style="fill: #055e49"/>
     <use xlink:href="#m37e0972f8f" x="212.389915" y="66.824464" style="fill: #055e49"/>
     <use xlink:href="#m37e0972f8f" x="216.013291" y="63.542241" style="fill: #055e49"/>
     <use xlink:href="#m37e0972f8f" x="219.636668" y="55.607926" style="fill: #055e49"/>
     <use xlink:href="#m37e0972f8f" x="223.260045" y="49.439419" style="fill: #055e49"/>
     <use xlink:href="#m37e0972f8f" x="226.883421" y="42.499457" style="fill: #055e49"/>
     <use xlink:href="#m37e0972f8f" x="230.506798" y="34.973022" style="fill: #055e49"/>
     <use xlink:href="#m37e0972f8f" x="234.130175" y="26.111701" style="fill: #055e49"/>
     <use xlink:href="#m37e0972f8f" x="237.753551" y="18.3909" style="fill: #055e49"/>
     <use xlink:href="#m37e0972f8f" x="241.376928" y="17.28" style="fill: #055e49"/>
     <use xlink:href="#m37e0972f8f" x="245.000304" y="30.452713" style="fill: #055e49"/>
     <use xlink:href="#m37e0972f8f" x="248.623681" y="55.645932" style="fill: #055e49"/>
     <use xlink:href="#m37e0972f8f" x="252.247058" y="89.049782" style="fill: #055e49"/>
     <use xlink:href="#m37e0972f8f" x="255.870434" y="119.80756" style="fill: #055e49"/>
     <use xlink:href="#m37e0972f8f" x="259.493811" y="155.708289" style="fill: #055e49"/>
     <use xlink:href="#m37e0972f8f" x="263.117188" y="186.721089" style="fill: #055e49"/>
     <use xlink:href="#m37e0972f8f" x="266.740564" y="208.619103" style="fill: #055e49"/>
     <use xlink:href="#m37e0972f8f" x="270.363941" y="215.587169" style="fill: #055e49"/>
     <use xlink:href="#m37e0972f8f" x="273.987317" y="210.488579" style="fill: #055e49"/>
     <use xlink:href="#m37e0972f8f" x="277.610694" y="201.954051" style="fill: #055e49"/>
     <use xlink:href="#m37e0972f8f" x="281.234071" y="194.135827" style="fill: #055e49"/>
     <use xlink:href="#m37e0972f8f" x="284.857447" y="186.333637" style="fill: #055e49"/>
     <use xlink:href="#m37e0972f8f" x="288.480824" y="179.226499" style="fill: #055e49"/>
     <use xlink:href="#m37e0972f8f" x="292.1042" y="173.893246" style="fill: #055e49"/>
     <use xlink:href="#m37e0972f8f" x="295.727577" y="169.152289" style="fill: #055e49"/>
     <use xlink:href="#m37e0972f8f" x="299.350954" y="164.689114" style="fill: #055e49"/>
     <use xlink:href="#m37e0972f8f" x="302.97433" y="161.151411" style="fill: #055e49"/>
     <use xlink:href="#m37e0972f8f" x="306.597707" y="158.469439" style="fill: #055e49"/>
     <use xlink:href="#m37e0972f8f" x="310.221084" y="155.439227" style="fill: #055e49"/>
     <use xlink:href="#m37e0972f8f" x="313.84446" y="153.833322" style="fill: #055e49"/>
     <use xlink:href="#m37e0972f8f" x="317.467837" y="151.660567" style="fill: #055e49"/>
     <use xlink:href="#m37e0972f8f" x="321.091213" y="149.356823" style="fill: #055e49"/>
     <use xlink:href="#m37e0972f8f" x="324.71459" y="147.632653" style="fill: #055e49"/>
     <use xlink:href="#m37e0972f8f" x="328.337967" y="146.578614" style="fill: #055e49"/>
     <use xlink:href="#m37e0972f8f" x="331.961343" y="144.9647" style="fill: #055e49"/>
     <use xlink:href="#m37e0972f8f" x="335.58472" y="143.204669" style="fill: #055e49"/>
     <use xlink:href="#m37e0972f8f" x="339.208097" y="142.140972" style="fill: #055e49"/>
     <use xlink:href="#m37e0972f8f" x="342.831473" y="141.395978" style="fill: #055e49"/>
     <use xlink:href="#m37e0972f8f" x="346.45485" y="140.921983" style="fill: #055e49"/>
     <use xlink:href="#m37e0972f8f" x="350.078226" y="139.565028" style="fill: #055e49"/>
     <use xlink:href="#m37e0972f8f" x="353.701603" y="138.961929" style="fill: #055e49"/>
     <use xlink:href="#m37e0972f8f" x="357.32498" y="137.881408" style="fill: #055e49"/>
     <use xlink:href="#m37e0972f8f" x="360.948356" y="136.881241" style="fill: #055e49"/>
     <use xlink:href="#m37e0972f8f" x="364.571733" y="136.480339" style="fill: #055e49"/>
     <use xlink:href="#m37e0972f8f" x="368.19511" y="135.929283" style="fill: #055e49"/>
     <use xlink:href="#m37e0972f8f" x="371.818486" y="135.521475" style="fill: #055e49"/>
     <use xlink:href="#m37e0972f8f" x="375.441863" y="134.816045" style="fill: #055e49"/>
     <use xlink:href="#m37e0972f8f" x="379.065239" y="133.820002" style="fill: #055e49"/>
     <use xlink:href="#m37e0972f8f" x="382.688616" y="133.678591" style="fill: #055e49"/>
     <use xlink:href="#m37e0972f8f" x="386.311993" y="133.361457" style="fill: #055e49"/>
     <use xlink:href="#m37e0972f8f" x="389.935369" y="132.493884" style="fill: #055e49"/>
     <use xlink:href="#m37e0972f8f" x="393.558746" y="132.15491" style="fill: #055e49"/>
     <use xlink:href="#m37e0972f8f" x="397.182123" y="131.900327" style="fill: #055e49"/>
     <use xlink:href="#m37e0972f8f" x="400.805499" y="131.518237" style="fill: #055e49"/>
     <use xlink:href="#m37e0972f8f" x="404.428876" y="131.137053" style="fill: #055e49"/>
     <use xlink:href="#m37e0972f8f" x="408.052252" y="130.877534" style="fill: #055e49"/>
     <use xlink:href="#m37e0972f8f" x="411.675629" y="130.336709" style="fill: #055e49"/>
     <use xlink:href="#m37e0972f8f" x="415.299006" y="130.268747" style="fill: #055e49"/>
     <use xlink:href="#m37e0972f8f" x="418.922382" y="130.018463" style="fill: #055e49"/>
     <use xlink:href="#m37e0972f8f" x="422.545759" y="129.692176" style="fill: #055e49"/>
     <use xlink:href="#m37e0972f8f" x="426.169136" y="129.180987" style="fill: #055e49"/>
     <use xlink:href="#m37e0972f8f" x="429.792512" y="129.00948" style="fill: #055e49"/>
     <use xlink:href="#m37e0972f8f" x="433.415889" y="128.494481" style="fill: #055e49"/>
     <use xlink:href="#m37e0972f8f" x="437.039265" y="128.52653" style="fill: #055e49"/>
     <use xlink:href="#m37e0972f8f" x="440.662642" y="128.618007" style="fill: #055e49"/>
    </g>
   </g>
   <g id="line2d_29">
    <path d="M 85.571733 190.734715 
L 89.19511 188.578157 
L 92.818486 186.37091 
L 96.441863 184.110628 
L 100.065239 181.794807 
L 103.688616 179.420775 
L 107.311993 176.985668 
L 110.935369 174.486423 
L 114.558746 171.919755 
L 118.182123 169.282137 
L 121.805499 166.569783 
L 125.428876 163.778622 
L 129.052252 160.904272 
L 132.675629 157.942015 
L 136.299006 154.886769 
L 139.922382 151.733056 
L 143.545759 148.474974 
L 147.169136 145.106163 
L 150.792512 141.619782 
L 154.415889 138.008478 
L 158.039265 134.264376 
L 161.662642 130.379076 
L 165.286019 126.343668 
L 168.909395 122.148798 
L 172.532772 117.784773 
L 176.156149 113.241757 
L 179.779525 108.510102 
L 183.402902 103.580861 
L 187.026278 98.446593 
L 190.649655 93.102598 
L 194.273032 87.548786 
L 197.896408 81.79245 
L 201.519785 75.852343 
L 205.143162 69.764503 
L 208.766538 63.590285 
L 212.389915 57.426753 
L 216.013291 51.418725 
L 219.636668 45.769722 
L 223.260045 40.745732 
L 226.883421 36.66199 
L 230.506798 33.842835 
L 234.130175 32.554571 
L 237.753551 32.931824 
L 241.376928 34.934211 
L 245.000304 38.359759 
L 248.623681 42.906565 
L 252.247058 48.247489 
L 255.870434 54.086281 
L 259.493811 60.184712 
L 263.117188 66.366773 
L 266.740564 72.510657 
L 270.363941 78.5368 
L 273.987317 84.396391 
L 277.610694 90.062026 
L 281.234071 95.520714 
L 284.857447 100.768903 
L 288.480824 105.809041 
L 292.1042 110.647247 
L 295.727577 115.291763 
L 299.350954 119.751934 
L 302.97433 124.037541 
L 306.597707 128.158388 
L 310.221084 132.124033 
L 313.84446 135.943641 
L 317.467837 139.625897 
L 321.091213 143.178965 
L 324.71459 146.610484 
L 328.337967 149.927574 
L 331.961343 153.136856 
L 335.58472 156.24448 
L 339.208097 159.256154 
L 342.831473 162.177174 
L 346.45485 165.012453 
L 350.078226 167.766557 
L 353.701603 170.443722 
L 357.32498 173.047889 
L 360.948356 175.582726 
L 364.571733 178.051646 
L 368.19511 180.457834 
L 371.818486 182.804259 
L 375.441863 185.093699 
L 379.065239 187.328747 
L 382.688616 189.511836 
L 386.311993 191.645241 
L 389.935369 193.7311 
L 393.558746 195.77142 
L 397.182123 197.768088 
L 400.805499 199.72288 
L 404.428876 201.637469 
L 408.052252 203.513433 
L 411.675629 205.35226 
L 415.299006 207.155358 
L 418.922382 208.924057 
L 422.545759 210.659616 
L 426.169136 212.36323 
L 429.792512 214.036028 
L 433.415889 215.679085 
L 437.039265 217.293419 
L 440.662642 218.88 
" clip-path="url(#p4b02e9ad1a)" style="fill: none; stroke: #f2300f; stroke-width: 1.5; stroke-linecap: round"/>
   </g>
   <g id="line2d_30">
    <path d="M 85.571733 117.009414 
L 89.19511 117.008353 
L 92.818486 117.007292 
L 96.441863 117.006231 
L 100.065239 117.00517 
L 103.688616 117.004109 
L 107.311993 117.003048 
L 110.935369 117.001987 
L 114.558746 117.000926 
L 118.182123 116.999865 
L 121.805499 116.998805 
L 125.428876 116.997744 
L 129.052252 116.996683 
L 132.675629 116.995622 
L 136.299006 116.994561 
L 139.922382 116.993501 
L 143.545759 116.99244 
L 147.169136 116.991379 
L 150.792512 116.990318 
L 154.415889 116.989258 
L 158.039265 116.988197 
L 161.662642 116.987136 
L 165.286019 116.986076 
L 168.909395 116.985015 
L 172.532772 116.983954 
L 176.156149 116.982894 
L 179.779525 116.981833 
L 183.402902 116.980772 
L 187.026278 116.979712 
L 190.649655 116.978651 
L 194.273032 116.977591 
L 197.896408 116.97653 
L 201.519785 116.975469 
L 205.143162 116.974409 
L 208.766538 116.973348 
L 212.389915 116.972288 
L 216.013291 116.971227 
L 219.636668 116.970167 
L 223.260045 116.969106 
L 226.883421 116.968046 
L 230.506798 116.966985 
L 234.130175 116.965925 
L 237.753551 116.964864 
L 241.376928 116.963804 
L 245.000304 116.962744 
L 248.623681 116.961683 
L 252.247058 116.960623 
L 255.870434 116.959562 
L 259.493811 116.958502 
L 263.117188 116.957442 
L 266.740564 116.956381 
L 270.363941 116.955321 
L 273.987317 116.954261 
L 277.610694 116.953201 
L 281.234071 116.95214 
L 284.857447 116.95108 
L 288.480824 116.95002 
L 292.1042 116.948959 
L 295.727577 116.947899 
L 299.350954 116.946839 
L 302.97433 116.945779 
L 306.597707 116.944719 
L 310.221084 116.943658 
L 313.84446 116.942598 
L 317.467837 116.941538 
L 321.091213 116.940478 
L 324.71459 116.939418 
L 328.337967 116.938358 
L 331.961343 116.937297 
L 335.58472 116.936237 
L 339.208097 116.935177 
L 342.831473 116.934117 
L 346.45485 116.933057 
L 350.078226 116.931997 
L 353.701603 116.930937 
L 357.32498 116.929877 
L 360.948356 116.928817 
L 364.571733 116.927757 
L 368.19511 116.926697 
L 371.818486 116.925637 
L 375.441863 116.924577 
L 379.065239 116.923517 
L 382.688616 116.922457 
L 386.311993 116.921397 
L 389.935369 116.920337 
L 393.558746 116.919277 
L 397.182123 116.918218 
L 400.805499 116.917158 
L 404.428876 116.916098 
L 408.052252 116.915038 
L 411.675629 116.913978 
L 415.299006 116.912918 
L 418.922382 116.911858 
L 422.545759 116.910799 
L 426.169136 116.909739 
L 429.792512 116.908679 
L 433.415889 116.907619 
L 437.039265 116.90656 
L 440.662642 116.9055 
" clip-path="url(#p4b02e9ad1a)" style="fill: none; stroke: #f3aa0c; stroke-width: 2; stroke-linecap: round"/>
   </g>
  </g>
 </g>
 <defs>
  <clipPath id="p4b02e9ad1a">
   <rect x="67.817188" y="7.2" width="390.6" height="221.76"/>
  </clipPath>
 </defs>
</svg>
