<?xml version="1.0" encoding="utf-8" standalone="no"?>
<!DOCTYPE svg PUBLIC "-//W3C//DTD SVG 1.1//EN"
  "http://www.w3.org/Graphics/SVG/1.1/DTD/svg11.dtd">
<svg xmlns:xlink="http://www.w3.org/1999/xlink" width="420.841974pt" height="202.237188pt" viewBox="0 0 420.841974 202.237188" xmlns="http://www.w3.org/2000/svg" version="1.1">
 <metadata>
  <rdf:RDF xmlns:dc="http://purl.org/dc/elements/1.1/" xmlns:cc="http://creativecommons.org/ns#" xmlns:rdf="http://www.w3.org/1999/02/22-rdf-syntax-ns#">
   <cc:Work>
    <dc:type rdf:resource="http://purl.org/dc/dcmitype/StillImage"/>
    <dc:date>2026-05-16T15:38:18.424440</dc:date>
    <dc:format>image/svg+xml</dc:format>
    <dc:creator>
     <cc:Agent>
      <dc:title>Matplotlib v3.10.8, https://matplotlib.org/</dc:title>
     </cc:Agent>
    </dc:creator>
   </cc:Work>
  </rdf:RDF>
 </metadata>
 <defs>
  <style type="text/css">*{stroke-linejoin: round; stroke-linecap: butt}</style>
 </defs>
 <g id="figure_1">
  <g id="patch_1">
   <path d="M 0 202.237188 
L 420.841974 202.237188 
L 420.841974 0 
L 0 0 
z
" style="fill: #ffffff"/>
  </g>
  <g id="axes_1">
   <g id="patch_2">
    <path d="M 67.817188 173.52 
L 402.617188 173.52 
L 402.617188 7.2 
L 67.817188 7.2 
z
" style="fill: #eaeaf2"/>
   </g>
   <g id="matplotlib.axis_1">
    <g id="xtick_1">
     <g id="line2d_1">
      <path d="M 83.035369 173.52 
L 83.035369 7.2 
" clip-path="url(#p64302a73e2)" style="fill: none; stroke: #ffffff; stroke-linecap: round"/>
     </g>
     <g id="line2d_2"/>
     <g id="text_1">
      <!-- 248.10 -->
      <g style="fill: #262626" transform="translate(56.792401 191.917656) scale(0.15 -0.15)">
       <defs>
        <path id="DejaVuSerif-32" d="M 819 3553 
L 469 3553 
L 469 4384 
Q 803 4563 1142 4656 
Q 1481 4750 1806 4750 
Q 2534 4750 2956 4397 
Q 3378 4044 3378 3438 
Q 3378 2753 2422 1800 
Q 2347 1728 2309 1691 
L 1131 513 
L 3078 513 
L 3078 1088 
L 3444 1088 
L 3444 0 
L 434 0 
L 434 341 
L 1850 1753 
Q 2319 2222 2519 2614 
Q 2719 3006 2719 3438 
Q 2719 3909 2473 4175 
Q 2228 4441 1797 4441 
Q 1350 4441 1106 4219 
Q 863 3997 819 3553 
z
" transform="scale(0.015625)"/>
        <path id="DejaVuSerif-34" d="M 2234 1581 
L 2234 4063 
L 641 1581 
L 2234 1581 
z
M 3609 0 
L 1484 0 
L 1484 331 
L 2234 331 
L 2234 1247 
L 197 1247 
L 197 1588 
L 2241 4750 
L 2859 4750 
L 2859 1581 
L 3750 1581 
L 3750 1247 
L 2859 1247 
L 2859 331 
L 3609 331 
L 3609 0 
z
" transform="scale(0.015625)"/>
        <path id="DejaVuSerif-38" d="M 2981 1275 
Q 2981 1775 2732 2051 
Q 2484 2328 2034 2328 
Q 1584 2328 1336 2051 
Q 1088 1775 1088 1275 
Q 1088 772 1336 495 
Q 1584 219 2034 219 
Q 2484 219 2732 495 
Q 2981 772 2981 1275 
z
M 2853 3541 
Q 2853 3966 2637 4203 
Q 2422 4441 2034 4441 
Q 1650 4441 1433 4203 
Q 1216 3966 1216 3541 
Q 1216 3113 1433 2875 
Q 1650 2638 2034 2638 
Q 2422 2638 2637 2875 
Q 2853 3113 2853 3541 
z
M 2516 2484 
Q 3047 2413 3344 2092 
Q 3641 1772 3641 1275 
Q 3641 619 3225 264 
Q 2809 -91 2034 -91 
Q 1263 -91 845 264 
Q 428 619 428 1275 
Q 428 1772 725 2092 
Q 1022 2413 1556 2484 
Q 1084 2569 832 2842 
Q 581 3116 581 3541 
Q 581 4103 968 4426 
Q 1356 4750 2034 4750 
Q 2713 4750 3100 4426 
Q 3488 4103 3488 3541 
Q 3488 3116 3236 2842 
Q 2984 2569 2516 2484 
z
" transform="scale(0.015625)"/>
        <path id="DejaVuSerif-2e" d="M 603 325 
Q 603 500 722 622 
Q 841 744 1019 744 
Q 1191 744 1312 622 
Q 1434 500 1434 325 
Q 1434 153 1312 31 
Q 1191 -91 1019 -91 
Q 841 -91 722 29 
Q 603 150 603 325 
z
" transform="scale(0.015625)"/>
        <path id="DejaVuSerif-31" d="M 909 0 
L 909 331 
L 1722 331 
L 1722 4213 
L 781 3603 
L 781 4013 
L 1919 4750 
L 2350 4750 
L 2350 331 
L 3163 331 
L 3163 0 
L 909 0 
z
" transform="scale(0.015625)"/>
        <path id="DejaVuSerif-30" d="M 2034 219 
Q 2513 219 2750 744 
Q 2988 1269 2988 2328 
Q 2988 3391 2750 3916 
Q 2513 4441 2034 4441 
Q 1556 4441 1318 3916 
Q 1081 3391 1081 2328 
Q 1081 1269 1318 744 
Q 1556 219 2034 219 
z
M 2034 -91 
Q 1275 -91 848 546 
Q 422 1184 422 2328 
Q 422 3475 848 4112 
Q 1275 4750 2034 4750 
Q 2797 4750 3222 4112 
Q 3647 3475 3647 2328 
Q 3647 1184 3222 546 
Q 2797 -91 2034 -91 
z
" transform="scale(0.015625)"/>
       </defs>
       <use xlink:href="#DejaVuSerif-32"/>
       <use xlink:href="#DejaVuSerif-34" transform="translate(63.623047 0)"/>
       <use xlink:href="#DejaVuSerif-38" transform="translate(127.246094 0)"/>
       <use xlink:href="#DejaVuSerif-2e" transform="translate(190.869141 0)"/>
       <use xlink:href="#DejaVuSerif-31" transform="translate(222.65625 0)"/>
       <use xlink:href="#DejaVuSerif-30" transform="translate(286.279297 0)"/>
      </g>
     </g>
    </g>
    <g id="xtick_2">
     <g id="line2d_3">
      <path d="M 159.126278 173.52 
L 159.126278 7.2 
" clip-path="url(#p64302a73e2)" style="fill: none; stroke: #ffffff; stroke-linecap: round"/>
     </g>
     <g id="line2d_4"/>
     <g id="text_2">
      <!-- 248.20 -->
      <g style="fill: #262626" transform="translate(132.88331 191.917656) scale(0.15 -0.15)">
       <use xlink:href="#DejaVuSerif-32"/>
       <use xlink:href="#DejaVuSerif-34" transform="translate(63.623047 0)"/>
       <use xlink:href="#DejaVuSerif-38" transform="translate(127.246094 0)"/>
       <use xlink:href="#DejaVuSerif-2e" transform="translate(190.869141 0)"/>
       <use xlink:href="#DejaVuSerif-32" transform="translate(222.65625 0)"/>
       <use xlink:href="#DejaVuSerif-30" transform="translate(286.279297 0)"/>
      </g>
     </g>
    </g>
    <g id="xtick_3">
     <g id="line2d_5">
      <path d="M 235.217188 173.52 
L 235.217188 7.2 
" clip-path="url(#p64302a73e2)" style="fill: none; stroke: #ffffff; stroke-linecap: round"/>
     </g>
     <g id="line2d_6"/>
     <g id="text_3">
      <!-- 248.30 -->
      <g style="fill: #262626" transform="translate(208.974219 191.917656) scale(0.15 -0.15)">
       <defs>
        <path id="DejaVuSerif-33" d="M 622 4469 
Q 988 4606 1323 4678 
Q 1659 4750 1953 4750 
Q 2638 4750 3022 4454 
Q 3406 4159 3406 3634 
Q 3406 3213 3140 2930 
Q 2875 2647 2388 2547 
Q 2963 2466 3280 2130 
Q 3597 1794 3597 1259 
Q 3597 606 3158 257 
Q 2719 -91 1894 -91 
Q 1528 -91 1179 -12 
Q 831 66 488 225 
L 488 1131 
L 838 1131 
Q 869 681 1141 450 
Q 1413 219 1906 219 
Q 2384 219 2661 495 
Q 2938 772 2938 1253 
Q 2938 1803 2653 2086 
Q 2369 2369 1819 2369 
L 1522 2369 
L 1522 2688 
L 1678 2688 
Q 2225 2688 2498 2914 
Q 2772 3141 2772 3597 
Q 2772 4006 2547 4223 
Q 2322 4441 1900 4441 
Q 1478 4441 1245 4241 
Q 1013 4041 972 3647 
L 622 3647 
L 622 4469 
z
" transform="scale(0.015625)"/>
       </defs>
       <use xlink:href="#DejaVuSerif-32"/>
       <use xlink:href="#DejaVuSerif-34" transform="translate(63.623047 0)"/>
       <use xlink:href="#DejaVuSerif-38" transform="translate(127.246094 0)"/>
       <use xlink:href="#DejaVuSerif-2e" transform="translate(190.869141 0)"/>
       <use xlink:href="#DejaVuSerif-33" transform="translate(222.65625 0)"/>
       <use xlink:href="#DejaVuSerif-30" transform="translate(286.279297 0)"/>
      </g>
     </g>
    </g>
    <g id="xtick_4">
     <g id="line2d_7">
      <path d="M 311.308097 173.52 
L 311.308097 7.2 
" clip-path="url(#p64302a73e2)" style="fill: none; stroke: #ffffff; stroke-linecap: round"/>
     </g>
     <g id="line2d_8"/>
     <g id="text_4">
      <!-- 248.40 -->
      <g style="fill: #262626" transform="translate(285.065128 191.917656) scale(0.15 -0.15)">
       <use xlink:href="#DejaVuSerif-32"/>
       <use xlink:href="#DejaVuSerif-34" transform="translate(63.623047 0)"/>
       <use xlink:href="#DejaVuSerif-38" transform="translate(127.246094 0)"/>
       <use xlink:href="#DejaVuSerif-2e" transform="translate(190.869141 0)"/>
       <use xlink:href="#DejaVuSerif-34" transform="translate(222.65625 0)"/>
       <use xlink:href="#DejaVuSerif-30" transform="translate(286.279297 0)"/>
      </g>
     </g>
    </g>
    <g id="xtick_5">
     <g id="line2d_9">
      <path d="M 387.399006 173.52 
L 387.399006 7.2 
" clip-path="url(#p64302a73e2)" style="fill: none; stroke: #ffffff; stroke-linecap: round"/>
     </g>
     <g id="line2d_10"/>
     <g id="text_5">
      <!-- 248.50 -->
      <g style="fill: #262626" transform="translate(361.156037 191.917656) scale(0.15 -0.15)">
       <defs>
        <path id="DejaVuSerif-35" d="M 3219 4666 
L 3219 4153 
L 1081 4153 
L 1081 2816 
Q 1244 2928 1461 2984 
Q 1678 3041 1947 3041 
Q 2703 3041 3140 2622 
Q 3578 2203 3578 1478 
Q 3578 738 3136 323 
Q 2694 -91 1894 -91 
Q 1572 -91 1234 -12 
Q 897 66 544 225 
L 544 1131 
L 897 1131 
Q 925 688 1179 453 
Q 1434 219 1894 219 
Q 2388 219 2653 544 
Q 2919 869 2919 1478 
Q 2919 2084 2655 2407 
Q 2391 2731 1894 2731 
Q 1613 2731 1398 2631 
Q 1184 2531 1019 2322 
L 750 2322 
L 750 4666 
L 3219 4666 
z
" transform="scale(0.015625)"/>
       </defs>
       <use xlink:href="#DejaVuSerif-32"/>
       <use xlink:href="#DejaVuSerif-34" transform="translate(63.623047 0)"/>
       <use xlink:href="#DejaVuSerif-38" transform="translate(127.246094 0)"/>
       <use xlink:href="#DejaVuSerif-2e" transform="translate(190.869141 0)"/>
       <use xlink:href="#DejaVuSerif-35" transform="translate(222.65625 0)"/>
       <use xlink:href="#DejaVuSerif-30" transform="translate(286.279297 0)"/>
      </g>
     </g>
    </g>
   </g>
   <g id="matplotlib.axis_2">
    <g id="ytick_1">
     <g id="line2d_11">
      <path d="M 67.817188 164.033594 
L 402.617188 164.033594 
" clip-path="url(#p64302a73e2)" style="fill: none; stroke: #ffffff; stroke-linecap: round"/>
     </g>
     <g id="line2d_12"/>
     <g id="text_6">
      <!-- $\mathdefault{10^{-3}}$ -->
      <g style="fill: #262626" transform="translate(25.717188 169.732422) scale(0.15 -0.15)">
       <defs>
        <path id="DejaVuSerif-2212" d="M 678 2259 
L 4684 2259 
L 4684 1753 
L 678 1753 
L 678 2259 
z
" transform="scale(0.015625)"/>
       </defs>
       <use xlink:href="#DejaVuSerif-31" transform="translate(0 0.7125)"/>
       <use xlink:href="#DejaVuSerif-30" transform="translate(63.623047 0.7125)"/>
       <use xlink:href="#DejaVuSerif-2212" transform="translate(128.154453 37.046875) scale(0.7)"/>
       <use xlink:href="#DejaVuSerif-33" transform="translate(186.806797 37.046875) scale(0.7)"/>
      </g>
     </g>
    </g>
    <g id="ytick_2">
     <g id="line2d_13">
      <path d="M 67.817188 103.193691 
L 402.617188 103.193691 
" clip-path="url(#p64302a73e2)" style="fill: none; stroke: #ffffff; stroke-linecap: round"/>
     </g>
     <g id="line2d_14"/>
     <g id="text_7">
      <!-- $\mathdefault{10^{-2}}$ -->
      <g style="fill: #262626" transform="translate(25.717188 108.89252) scale(0.15 -0.15)">
       <use xlink:href="#DejaVuSerif-31" transform="translate(0 0.7125)"/>
       <use xlink:href="#DejaVuSerif-30" transform="translate(63.623047 0.7125)"/>
       <use xlink:href="#DejaVuSerif-2212" transform="translate(128.154453 37.046875) scale(0.7)"/>
       <use xlink:href="#DejaVuSerif-32" transform="translate(186.806797 37.046875) scale(0.7)"/>
      </g>
     </g>
    </g>
    <g id="ytick_3">
     <g id="line2d_15">
      <path d="M 67.817188 42.353789 
L 402.617188 42.353789 
" clip-path="url(#p64302a73e2)" style="fill: none; stroke: #ffffff; stroke-linecap: round"/>
     </g>
     <g id="line2d_16"/>
     <g id="text_8">
      <!-- $\mathdefault{10^{-1}}$ -->
      <g style="fill: #262626" transform="translate(25.717188 48.052617) scale(0.15 -0.15)">
       <use xlink:href="#DejaVuSerif-31" transform="translate(0 0.7125)"/>
       <use xlink:href="#DejaVuSerif-30" transform="translate(63.623047 0.7125)"/>
       <use xlink:href="#DejaVuSerif-2212" transform="translate(128.154453 37.046875) scale(0.7)"/>
       <use xlink:href="#DejaVuSerif-31" transform="translate(186.806797 37.046875) scale(0.7)"/>
      </g>
     </g>
    </g>
    <g id="ytick_4">
     <g id="line2d_17"/>
    </g>
    <g id="ytick_5">
     <g id="line2d_18"/>
    </g>
    <g id="ytick_6">
     <g id="line2d_19"/>
    </g>
    <g id="ytick_7">
     <g id="line2d_20"/>
    </g>
    <g id="ytick_8">
     <g id="line2d_21"/>
    </g>
    <g id="ytick_9">
     <g id="line2d_22"/>
    </g>
    <g id="ytick_10">
     <g id="line2d_23"/>
    </g>
    <g id="ytick_11">
     <g id="line2d_24"/>
    </g>
    <g id="ytick_12">
     <g id="line2d_25"/>
    </g>
    <g id="ytick_13">
     <g id="line2d_26"/>
    </g>
    <g id="ytick_14">
     <g id="line2d_27"/>
    </g>
    <g id="ytick_15">
     <g id="line2d_28"/>
    </g>
    <g id="ytick_16">
     <g id="line2d_29"/>
    </g>
    <g id="ytick_17">
     <g id="line2d_30"/>
    </g>
    <g id="ytick_18">
     <g id="line2d_31"/>
    </g>
    <g id="ytick_19">
     <g id="line2d_32"/>
    </g>
    <g id="ytick_20">
     <g id="line2d_33"/>
    </g>
    <g id="ytick_21">
     <g id="line2d_34"/>
    </g>
    <g id="ytick_22">
     <g id="line2d_35"/>
    </g>
    <g id="ytick_23">
     <g id="line2d_36"/>
    </g>
    <g id="ytick_24">
     <g id="line2d_37"/>
    </g>
    <g id="text_9">
     <!-- Transferencia -->
     <g style="fill: #262626" transform="translate(18.597656 143.238516) rotate(-90) scale(0.15 -0.15)">
      <defs>
       <path id="DejaVuSerif-54" d="M 1222 0 
L 1222 331 
L 1819 331 
L 1819 4294 
L 447 4294 
L 447 3566 
L 63 3566 
L 63 4666 
L 4206 4666 
L 4206 3566 
L 3822 3566 
L 3822 4294 
L 2450 4294 
L 2450 331 
L 3047 331 
L 3047 0 
L 1222 0 
z
" transform="scale(0.015625)"/>
       <path id="DejaVuSerif-72" d="M 3059 3328 
L 3059 2497 
L 2728 2497 
Q 2713 2744 2591 2866 
Q 2469 2988 2234 2988 
Q 1809 2988 1582 2694 
Q 1356 2400 1356 1850 
L 1356 331 
L 2022 331 
L 2022 0 
L 263 0 
L 263 331 
L 781 331 
L 781 2994 
L 231 2994 
L 231 3322 
L 1356 3322 
L 1356 2731 
Q 1525 3078 1790 3245 
Q 2056 3413 2438 3413 
Q 2578 3413 2733 3391 
Q 2888 3369 3059 3328 
z
" transform="scale(0.015625)"/>
       <path id="DejaVuSerif-61" d="M 2547 1044 
L 2547 1747 
L 1806 1747 
Q 1378 1747 1168 1562 
Q 959 1378 959 997 
Q 959 650 1171 447 
Q 1384 244 1747 244 
Q 2106 244 2326 466 
Q 2547 688 2547 1044 
z
M 3122 2075 
L 3122 331 
L 3634 331 
L 3634 0 
L 2547 0 
L 2547 359 
Q 2356 128 2106 18 
Q 1856 -91 1522 -91 
Q 969 -91 644 203 
Q 319 497 319 997 
Q 319 1513 691 1797 
Q 1063 2081 1741 2081 
L 2547 2081 
L 2547 2309 
Q 2547 2688 2317 2895 
Q 2088 3103 1672 3103 
Q 1328 3103 1125 2947 
Q 922 2791 872 2484 
L 575 2484 
L 575 3156 
Q 875 3284 1158 3348 
Q 1441 3413 1709 3413 
Q 2400 3413 2761 3070 
Q 3122 2728 3122 2075 
z
" transform="scale(0.015625)"/>
       <path id="DejaVuSerif-6e" d="M 263 0 
L 263 331 
L 781 331 
L 781 2988 
L 231 2988 
L 231 3322 
L 1356 3322 
L 1356 2731 
Q 1516 3069 1770 3241 
Q 2025 3413 2363 3413 
Q 2913 3413 3172 3097 
Q 3431 2781 3431 2113 
L 3431 331 
L 3944 331 
L 3944 0 
L 2356 0 
L 2356 331 
L 2853 331 
L 2853 1931 
Q 2853 2541 2703 2767 
Q 2553 2994 2175 2994 
Q 1775 2994 1565 2701 
Q 1356 2409 1356 1850 
L 1356 331 
L 1856 331 
L 1856 0 
L 263 0 
z
" transform="scale(0.015625)"/>
       <path id="DejaVuSerif-73" d="M 359 184 
L 359 959 
L 691 959 
Q 703 588 923 403 
Q 1144 219 1575 219 
Q 1963 219 2166 364 
Q 2369 509 2369 788 
Q 2369 1006 2220 1140 
Q 2072 1275 1594 1428 
L 1178 1569 
Q 750 1706 558 1912 
Q 366 2119 366 2438 
Q 366 2894 700 3153 
Q 1034 3413 1625 3413 
Q 1888 3413 2178 3344 
Q 2469 3275 2778 3144 
L 2778 2419 
L 2447 2419 
Q 2434 2741 2221 2922 
Q 2009 3103 1644 3103 
Q 1281 3103 1095 2975 
Q 909 2847 909 2591 
Q 909 2381 1050 2254 
Q 1191 2128 1613 1997 
L 2069 1856 
Q 2541 1709 2748 1489 
Q 2956 1269 2956 922 
Q 2956 450 2595 179 
Q 2234 -91 1600 -91 
Q 1278 -91 972 -22 
Q 666 47 359 184 
z
" transform="scale(0.015625)"/>
       <path id="DejaVuSerif-66" d="M 2753 4078 
L 2450 4078 
Q 2447 4313 2317 4434 
Q 2188 4556 1941 4556 
Q 1619 4556 1487 4379 
Q 1356 4203 1356 3750 
L 1356 3322 
L 2284 3322 
L 2284 2988 
L 1356 2988 
L 1356 331 
L 2094 331 
L 2094 0 
L 231 0 
L 231 331 
L 781 331 
L 781 2988 
L 231 2988 
L 231 3322 
L 781 3322 
L 781 3738 
Q 781 4294 1070 4578 
Q 1359 4863 1919 4863 
Q 2128 4863 2337 4825 
Q 2547 4788 2753 4709 
L 2753 4078 
z
" transform="scale(0.015625)"/>
       <path id="DejaVuSerif-65" d="M 3469 1600 
L 991 1600 
L 991 1575 
Q 991 903 1244 561 
Q 1497 219 1991 219 
Q 2369 219 2611 417 
Q 2853 616 2950 1006 
L 3413 1006 
Q 3275 459 2904 184 
Q 2534 -91 1931 -91 
Q 1203 -91 761 389 
Q 319 869 319 1663 
Q 319 2450 753 2931 
Q 1188 3413 1894 3413 
Q 2647 3413 3050 2948 
Q 3453 2484 3469 1600 
z
M 2791 1931 
Q 2772 2513 2545 2808 
Q 2319 3103 1894 3103 
Q 1497 3103 1269 2806 
Q 1041 2509 991 1931 
L 2791 1931 
z
" transform="scale(0.015625)"/>
       <path id="DejaVuSerif-63" d="M 3291 997 
Q 3169 466 2822 187 
Q 2475 -91 1925 -91 
Q 1200 -91 759 389 
Q 319 869 319 1663 
Q 319 2459 759 2936 
Q 1200 3413 1925 3413 
Q 2241 3413 2553 3339 
Q 2866 3266 3181 3116 
L 3181 2266 
L 2847 2266 
Q 2781 2703 2561 2903 
Q 2341 3103 1931 3103 
Q 1466 3103 1228 2742 
Q 991 2381 991 1663 
Q 991 944 1227 581 
Q 1463 219 1931 219 
Q 2303 219 2525 412 
Q 2747 606 2828 997 
L 3291 997 
z
" transform="scale(0.015625)"/>
       <path id="DejaVuSerif-69" d="M 622 4353 
Q 622 4497 726 4603 
Q 831 4709 978 4709 
Q 1122 4709 1226 4603 
Q 1331 4497 1331 4353 
Q 1331 4206 1228 4103 
Q 1125 4000 978 4000 
Q 831 4000 726 4103 
Q 622 4206 622 4353 
z
M 1356 331 
L 1900 331 
L 1900 0 
L 231 0 
L 231 331 
L 781 331 
L 781 2988 
L 231 2988 
L 231 3322 
L 1356 3322 
L 1356 331 
z
" transform="scale(0.015625)"/>
      </defs>
      <use xlink:href="#DejaVuSerif-54"/>
      <use xlink:href="#DejaVuSerif-72" transform="translate(66.699219 0)"/>
      <use xlink:href="#DejaVuSerif-61" transform="translate(114.501953 0)"/>
      <use xlink:href="#DejaVuSerif-6e" transform="translate(174.121094 0)"/>
      <use xlink:href="#DejaVuSerif-73" transform="translate(238.525391 0)"/>
      <use xlink:href="#DejaVuSerif-66" transform="translate(289.84375 0)"/>
      <use xlink:href="#DejaVuSerif-65" transform="translate(326.855469 0)"/>
      <use xlink:href="#DejaVuSerif-72" transform="translate(386.035156 0)"/>
      <use xlink:href="#DejaVuSerif-65" transform="translate(433.837891 0)"/>
      <use xlink:href="#DejaVuSerif-6e" transform="translate(493.017578 0)"/>
      <use xlink:href="#DejaVuSerif-63" transform="translate(557.421875 0)"/>
      <use xlink:href="#DejaVuSerif-69" transform="translate(613.427734 0)"/>
      <use xlink:href="#DejaVuSerif-61" transform="translate(645.410156 0)"/>
     </g>
    </g>
   </g>
   <g id="patch_3">
    <path d="M 67.817188 173.52 
L 67.817188 7.2 
" style="fill: none"/>
   </g>
   <g id="patch_4">
    <path d="M 402.617188 173.52 
L 402.617188 7.2 
" style="fill: none"/>
   </g>
   <g id="patch_5">
    <path d="M 67.817188 173.52 
L 402.617188 173.52 
" style="fill: none"/>
   </g>
   <g id="patch_6">
    <path d="M 67.817188 7.2 
L 402.617188 7.2 
" style="fill: none"/>
   </g>
   <g id="LineCollection_1">
    <path d="M 83.035369 82.32032 
L 83.035369 82.064971 
" clip-path="url(#p64302a73e2)" style="fill: none; stroke: #055e49; stroke-width: 1.75"/>
    <path d="M 86.141121 83.529832 
L 86.141121 83.283137 
" clip-path="url(#p64302a73e2)" style="fill: none; stroke: #055e49; stroke-width: 1.75"/>
    <path d="M 89.246872 82.850101 
L 89.246872 82.604251 
" clip-path="url(#p64302a73e2)" style="fill: none; stroke: #055e49; stroke-width: 1.75"/>
    <path d="M 92.352623 81.328469 
L 92.352623 81.071607 
" clip-path="url(#p64302a73e2)" style="fill: none; stroke: #055e49; stroke-width: 1.75"/>
    <path d="M 95.458375 82.650408 
L 95.458375 82.404867 
" clip-path="url(#p64302a73e2)" style="fill: none; stroke: #055e49; stroke-width: 1.75"/>
    <path d="M 98.564126 82.161439 
L 98.564126 81.915082 
" clip-path="url(#p64302a73e2)" style="fill: none; stroke: #055e49; stroke-width: 1.75"/>
    <path d="M 101.669878 83.150627 
L 101.669878 82.897182 
" clip-path="url(#p64302a73e2)" style="fill: none; stroke: #055e49; stroke-width: 1.75"/>
    <path d="M 104.775629 82.378372 
L 104.775629 82.125425 
" clip-path="url(#p64302a73e2)" style="fill: none; stroke: #055e49; stroke-width: 1.75"/>
    <path d="M 107.88138 80.891219 
L 107.88138 80.639161 
" clip-path="url(#p64302a73e2)" style="fill: none; stroke: #055e49; stroke-width: 1.75"/>
    <path d="M 110.987132 83.138435 
L 110.987132 82.876418 
" clip-path="url(#p64302a73e2)" style="fill: none; stroke: #055e49; stroke-width: 1.75"/>
    <path d="M 114.092883 81.267175 
L 114.092883 81.00791 
" clip-path="url(#p64302a73e2)" style="fill: none; stroke: #055e49; stroke-width: 1.75"/>
    <path d="M 117.198635 81.184851 
L 117.198635 80.917577 
" clip-path="url(#p64302a73e2)" style="fill: none; stroke: #055e49; stroke-width: 1.75"/>
    <path d="M 120.304386 82.610763 
L 120.304386 82.353615 
" clip-path="url(#p64302a73e2)" style="fill: none; stroke: #055e49; stroke-width: 1.75"/>
    <path d="M 123.410137 80.231316 
L 123.410137 79.974659 
" clip-path="url(#p64302a73e2)" style="fill: none; stroke: #055e49; stroke-width: 1.75"/>
    <path d="M 126.515889 81.402046 
L 126.515889 81.142207 
" clip-path="url(#p64302a73e2)" style="fill: none; stroke: #055e49; stroke-width: 1.75"/>
    <path d="M 129.62164 80.819036 
L 129.62164 80.560259 
" clip-path="url(#p64302a73e2)" style="fill: none; stroke: #055e49; stroke-width: 1.75"/>
    <path d="M 132.727392 79.941704 
L 132.727392 79.681849 
" clip-path="url(#p64302a73e2)" style="fill: none; stroke: #055e49; stroke-width: 1.75"/>
    <path d="M 135.833143 79.596949 
L 135.833143 79.336766 
" clip-path="url(#p64302a73e2)" style="fill: none; stroke: #055e49; stroke-width: 1.75"/>
    <path d="M 138.938894 80.312122 
L 138.938894 80.046504 
" clip-path="url(#p64302a73e2)" style="fill: none; stroke: #055e49; stroke-width: 1.75"/>
    <path d="M 142.044646 78.845779 
L 142.044646 78.586065 
" clip-path="url(#p64302a73e2)" style="fill: none; stroke: #055e49; stroke-width: 1.75"/>
    <path d="M 145.150397 79.171027 
L 145.150397 78.901019 
" clip-path="url(#p64302a73e2)" style="fill: none; stroke: #055e49; stroke-width: 1.75"/>
    <path d="M 148.256149 79.309276 
L 148.256149 79.04345 
" clip-path="url(#p64302a73e2)" style="fill: none; stroke: #055e49; stroke-width: 1.75"/>
    <path d="M 151.3619 79.830189 
L 151.3619 79.570938 
" clip-path="url(#p64302a73e2)" style="fill: none; stroke: #055e49; stroke-width: 1.75"/>
    <path d="M 154.467651 78.058337 
L 154.467651 77.805969 
" clip-path="url(#p64302a73e2)" style="fill: none; stroke: #055e49; stroke-width: 1.75"/>
    <path d="M 157.573403 78.216095 
L 157.573403 77.943854 
" clip-path="url(#p64302a73e2)" style="fill: none; stroke: #055e49; stroke-width: 1.75"/>
    <path d="M 160.679154 77.113337 
L 160.679154 76.85591 
" clip-path="url(#p64302a73e2)" style="fill: none; stroke: #055e49; stroke-width: 1.75"/>
    <path d="M 163.784905 77.161891 
L 163.784905 76.900947 
" clip-path="url(#p64302a73e2)" style="fill: none; stroke: #055e49; stroke-width: 1.75"/>
    <path d="M 166.890657 77.628544 
L 166.890657 77.347594 
" clip-path="url(#p64302a73e2)" style="fill: none; stroke: #055e49; stroke-width: 1.75"/>
    <path d="M 169.996408 77.501283 
L 169.996408 77.241218 
" clip-path="url(#p64302a73e2)" style="fill: none; stroke: #055e49; stroke-width: 1.75"/>
    <path d="M 173.10216 76.19977 
L 173.10216 75.932481 
" clip-path="url(#p64302a73e2)" style="fill: none; stroke: #055e49; stroke-width: 1.75"/>
    <path d="M 176.207911 75.127155 
L 176.207911 74.858938 
" clip-path="url(#p64302a73e2)" style="fill: none; stroke: #055e49; stroke-width: 1.75"/>
    <path d="M 179.313662 75.177935 
L 179.313662 74.924859 
" clip-path="url(#p64302a73e2)" style="fill: none; stroke: #055e49; stroke-width: 1.75"/>
    <path d="M 182.419414 74.26123 
L 182.419414 74.007279 
" clip-path="url(#p64302a73e2)" style="fill: none; stroke: #055e49; stroke-width: 1.75"/>
    <path d="M 185.525165 73.071897 
L 185.525165 72.8231 
" clip-path="url(#p64302a73e2)" style="fill: none; stroke: #055e49; stroke-width: 1.75"/>
    <path d="M 188.630917 73.204749 
L 188.630917 72.950392 
" clip-path="url(#p64302a73e2)" style="fill: none; stroke: #055e49; stroke-width: 1.75"/>
    <path d="M 191.736668 72.056084 
L 191.736668 71.800677 
" clip-path="url(#p64302a73e2)" style="fill: none; stroke: #055e49; stroke-width: 1.75"/>
    <path d="M 194.842419 70.18325 
L 194.842419 69.924298 
" clip-path="url(#p64302a73e2)" style="fill: none; stroke: #055e49; stroke-width: 1.75"/>
    <path d="M 197.171733 68.91511 
L 197.171733 68.640592 
" clip-path="url(#p64302a73e2)" style="fill: none; stroke: #055e49; stroke-width: 1.75"/>
    <path d="M 197.948171 68.53974 
L 197.948171 68.348182 
" clip-path="url(#p64302a73e2)" style="fill: none; stroke: #055e49; stroke-width: 1.75"/>
    <path d="M 198.724609 67.462781 
L 198.724609 67.198153 
" clip-path="url(#p64302a73e2)" style="fill: none; stroke: #055e49; stroke-width: 1.75"/>
    <path d="M 199.501046 67.782567 
L 199.501046 67.514833 
" clip-path="url(#p64302a73e2)" style="fill: none; stroke: #055e49; stroke-width: 1.75"/>
    <path d="M 200.277484 67.361894 
L 200.277484 67.100988 
" clip-path="url(#p64302a73e2)" style="fill: none; stroke: #055e49; stroke-width: 1.75"/>
    <path d="M 201.053922 66.870657 
L 201.053922 66.674617 
" clip-path="url(#p64302a73e2)" style="fill: none; stroke: #055e49; stroke-width: 1.75"/>
    <path d="M 201.83036 66.319824 
L 201.83036 66.057915 
" clip-path="url(#p64302a73e2)" style="fill: none; stroke: #055e49; stroke-width: 1.75"/>
    <path d="M 202.606798 65.571816 
L 202.606798 65.299895 
" clip-path="url(#p64302a73e2)" style="fill: none; stroke: #055e49; stroke-width: 1.75"/>
    <path d="M 203.383236 65.392337 
L 203.383236 65.12716 
" clip-path="url(#p64302a73e2)" style="fill: none; stroke: #055e49; stroke-width: 1.75"/>
    <path d="M 204.159674 64.541264 
L 204.159674 64.347804 
" clip-path="url(#p64302a73e2)" style="fill: none; stroke: #055e49; stroke-width: 1.75"/>
    <path d="M 204.936111 64.148409 
L 204.936111 63.89041 
" clip-path="url(#p64302a73e2)" style="fill: none; stroke: #055e49; stroke-width: 1.75"/>
    <path d="M 205.712549 63.888054 
L 205.712549 63.626194 
" clip-path="url(#p64302a73e2)" style="fill: none; stroke: #055e49; stroke-width: 1.75"/>
    <path d="M 206.488987 62.461071 
L 206.488987 62.203445 
" clip-path="url(#p64302a73e2)" style="fill: none; stroke: #055e49; stroke-width: 1.75"/>
    <path d="M 207.265425 62.305267 
L 207.265425 62.100766 
" clip-path="url(#p64302a73e2)" style="fill: none; stroke: #055e49; stroke-width: 1.75"/>
    <path d="M 208.041863 61.045807 
L 208.041863 60.787473 
" clip-path="url(#p64302a73e2)" style="fill: none; stroke: #055e49; stroke-width: 1.75"/>
    <path d="M 208.818301 61.14818 
L 208.818301 60.885509 
" clip-path="url(#p64302a73e2)" style="fill: none; stroke: #055e49; stroke-width: 1.75"/>
    <path d="M 209.594739 59.391637 
L 209.594739 59.122626 
" clip-path="url(#p64302a73e2)" style="fill: none; stroke: #055e49; stroke-width: 1.75"/>
    <path d="M 210.371176 59.030391 
L 210.371176 58.845286 
" clip-path="url(#p64302a73e2)" style="fill: none; stroke: #055e49; stroke-width: 1.75"/>
    <path d="M 211.147614 57.427093 
L 211.147614 57.152066 
" clip-path="url(#p64302a73e2)" style="fill: none; stroke: #055e49; stroke-width: 1.75"/>
    <path d="M 211.924052 56.863956 
L 211.924052 56.592589 
" clip-path="url(#p64302a73e2)" style="fill: none; stroke: #055e49; stroke-width: 1.75"/>
    <path d="M 212.70049 55.648086 
L 212.70049 55.383415 
" clip-path="url(#p64302a73e2)" style="fill: none; stroke: #055e49; stroke-width: 1.75"/>
    <path d="M 213.476928 54.411528 
L 213.476928 54.223778 
" clip-path="url(#p64302a73e2)" style="fill: none; stroke: #055e49; stroke-width: 1.75"/>
    <path d="M 214.253366 53.209195 
L 214.253366 52.942759 
" clip-path="url(#p64302a73e2)" style="fill: none; stroke: #055e49; stroke-width: 1.75"/>
    <path d="M 215.029803 51.658811 
L 215.029803 51.382865 
" clip-path="url(#p64302a73e2)" style="fill: none; stroke: #055e49; stroke-width: 1.75"/>
    <path d="M 215.806241 50.586597 
L 215.806241 50.315847 
" clip-path="url(#p64302a73e2)" style="fill: none; stroke: #055e49; stroke-width: 1.75"/>
    <path d="M 216.582679 48.540572 
L 216.582679 48.345123 
" clip-path="url(#p64302a73e2)" style="fill: none; stroke: #055e49; stroke-width: 1.75"/>
    <path d="M 217.359117 46.820201 
L 217.359117 46.564333 
" clip-path="url(#p64302a73e2)" style="fill: none; stroke: #055e49; stroke-width: 1.75"/>
    <path d="M 218.135555 44.522968 
L 218.135555 44.251694 
" clip-path="url(#p64302a73e2)" style="fill: none; stroke: #055e49; stroke-width: 1.75"/>
    <path d="M 218.911993 42.211671 
L 218.911993 41.935712 
" clip-path="url(#p64302a73e2)" style="fill: none; stroke: #055e49; stroke-width: 1.75"/>
    <path d="M 219.688431 39.353471 
L 219.688431 39.161426 
" clip-path="url(#p64302a73e2)" style="fill: none; stroke: #055e49; stroke-width: 1.75"/>
    <path d="M 220.464868 36.014406 
L 220.464868 35.63601 
" clip-path="url(#p64302a73e2)" style="fill: none; stroke: #055e49; stroke-width: 1.75"/>
    <path d="M 221.241306 32.209995 
L 221.241306 31.815646 
" clip-path="url(#p64302a73e2)" style="fill: none; stroke: #055e49; stroke-width: 1.75"/>
    <path d="M 222.017744 27.593801 
L 222.017744 27.21436 
" clip-path="url(#p64302a73e2)" style="fill: none; stroke: #055e49; stroke-width: 1.75"/>
    <path d="M 222.794182 22.951351 
L 222.794182 22.681599 
" clip-path="url(#p64302a73e2)" style="fill: none; stroke: #055e49; stroke-width: 1.75"/>
    <path d="M 223.57062 18.222333 
L 223.57062 17.857544 
" clip-path="url(#p64302a73e2)" style="fill: none; stroke: #055e49; stroke-width: 1.75"/>
    <path d="M 224.347058 14.938678 
L 224.347058 14.582522 
" clip-path="url(#p64302a73e2)" style="fill: none; stroke: #055e49; stroke-width: 1.75"/>
    <path d="M 225.123495 15.963278 
L 225.123495 15.609521 
" clip-path="url(#p64302a73e2)" style="fill: none; stroke: #055e49; stroke-width: 1.75"/>
    <path d="M 225.899933 20.834413 
L 225.899933 20.579443 
" clip-path="url(#p64302a73e2)" style="fill: none; stroke: #055e49; stroke-width: 1.75"/>
    <path d="M 226.676371 27.208942 
L 226.676371 26.846082 
" clip-path="url(#p64302a73e2)" style="fill: none; stroke: #055e49; stroke-width: 1.75"/>
    <path d="M 227.452809 33.494172 
L 227.452809 33.120113 
" clip-path="url(#p64302a73e2)" style="fill: none; stroke: #055e49; stroke-width: 1.75"/>
    <path d="M 228.229247 39.604182 
L 228.229247 39.236841 
" clip-path="url(#p64302a73e2)" style="fill: none; stroke: #055e49; stroke-width: 1.75"/>
    <path d="M 229.005685 44.5347 
L 229.005685 44.308904 
" clip-path="url(#p64302a73e2)" style="fill: none; stroke: #055e49; stroke-width: 1.75"/>
    <path d="M 229.782123 49.542733 
L 229.782123 49.285047 
" clip-path="url(#p64302a73e2)" style="fill: none; stroke: #055e49; stroke-width: 1.75"/>
    <path d="M 230.55856 53.553691 
L 230.55856 53.289911 
" clip-path="url(#p64302a73e2)" style="fill: none; stroke: #055e49; stroke-width: 1.75"/>
    <path d="M 231.334998 57.383289 
L 231.334998 57.119966 
" clip-path="url(#p64302a73e2)" style="fill: none; stroke: #055e49; stroke-width: 1.75"/>
    <path d="M 232.111436 61.519971 
L 232.111436 61.331177 
" clip-path="url(#p64302a73e2)" style="fill: none; stroke: #055e49; stroke-width: 1.75"/>
    <path d="M 232.887874 64.733922 
L 232.887874 64.475977 
" clip-path="url(#p64302a73e2)" style="fill: none; stroke: #055e49; stroke-width: 1.75"/>
    <path d="M 233.664312 67.494811 
L 233.664312 67.232499 
" clip-path="url(#p64302a73e2)" style="fill: none; stroke: #055e49; stroke-width: 1.75"/>
    <path d="M 234.44075 71.546328 
L 234.44075 71.271293 
" clip-path="url(#p64302a73e2)" style="fill: none; stroke: #055e49; stroke-width: 1.75"/>
    <path d="M 235.217188 74.639704 
L 235.217188 74.529759 
" clip-path="url(#p64302a73e2)" style="fill: none; stroke: #055e49; stroke-width: 1.75"/>
    <path d="M 235.993625 77.687617 
L 235.993625 77.536412 
" clip-path="url(#p64302a73e2)" style="fill: none; stroke: #055e49; stroke-width: 1.75"/>
    <path d="M 236.770063 81.065186 
L 236.770063 80.917113 
" clip-path="url(#p64302a73e2)" style="fill: none; stroke: #055e49; stroke-width: 1.75"/>
    <path d="M 237.546501 83.750905 
L 237.546501 83.64154 
" clip-path="url(#p64302a73e2)" style="fill: none; stroke: #055e49; stroke-width: 1.75"/>
    <path d="M 238.322939 86.949435 
L 238.322939 86.868293 
" clip-path="url(#p64302a73e2)" style="fill: none; stroke: #055e49; stroke-width: 1.75"/>
    <path d="M 239.099377 89.843594 
L 239.099377 89.729598 
" clip-path="url(#p64302a73e2)" style="fill: none; stroke: #055e49; stroke-width: 1.75"/>
    <path d="M 239.875815 92.521991 
L 239.875815 92.404956 
" clip-path="url(#p64302a73e2)" style="fill: none; stroke: #055e49; stroke-width: 1.75"/>
    <path d="M 240.652252 95.809061 
L 240.652252 95.693642 
" clip-path="url(#p64302a73e2)" style="fill: none; stroke: #055e49; stroke-width: 1.75"/>
    <path d="M 241.42869 98.842231 
L 241.42869 98.760915 
" clip-path="url(#p64302a73e2)" style="fill: none; stroke: #055e49; stroke-width: 1.75"/>
    <path d="M 242.205128 101.74514 
L 242.205128 101.629164 
" clip-path="url(#p64302a73e2)" style="fill: none; stroke: #055e49; stroke-width: 1.75"/>
    <path d="M 242.981566 105.261169 
L 242.981566 105.145878 
" clip-path="url(#p64302a73e2)" style="fill: none; stroke: #055e49; stroke-width: 1.75"/>
    <path d="M 243.758004 108.155318 
L 243.758004 108.04146 
" clip-path="url(#p64302a73e2)" style="fill: none; stroke: #055e49; stroke-width: 1.75"/>
    <path d="M 244.534442 111.786082 
L 244.534442 111.701467 
" clip-path="url(#p64302a73e2)" style="fill: none; stroke: #055e49; stroke-width: 1.75"/>
    <path d="M 245.31088 115.743836 
L 245.31088 115.625094 
" clip-path="url(#p64302a73e2)" style="fill: none; stroke: #055e49; stroke-width: 1.75"/>
    <path d="M 246.087317 119.10188 
L 246.087317 118.98287 
" clip-path="url(#p64302a73e2)" style="fill: none; stroke: #055e49; stroke-width: 1.75"/>
    <path d="M 246.863755 124.471749 
L 246.863755 124.355059 
" clip-path="url(#p64302a73e2)" style="fill: none; stroke: #055e49; stroke-width: 1.75"/>
    <path d="M 247.640193 128.322236 
L 247.640193 128.238719 
" clip-path="url(#p64302a73e2)" style="fill: none; stroke: #055e49; stroke-width: 1.75"/>
    <path d="M 248.416631 134.28323 
L 248.416631 134.166205 
" clip-path="url(#p64302a73e2)" style="fill: none; stroke: #055e49; stroke-width: 1.75"/>
    <path d="M 249.193069 140.147276 
L 249.193069 140.028614 
" clip-path="url(#p64302a73e2)" style="fill: none; stroke: #055e49; stroke-width: 1.75"/>
    <path d="M 249.969507 145.504403 
L 249.969507 145.387896 
" clip-path="url(#p64302a73e2)" style="fill: none; stroke: #055e49; stroke-width: 1.75"/>
    <path d="M 250.745944 153.638429 
L 250.745944 153.556522 
" clip-path="url(#p64302a73e2)" style="fill: none; stroke: #055e49; stroke-width: 1.75"/>
    <path d="M 251.522382 160.67191 
L 251.522382 160.555223 
" clip-path="url(#p64302a73e2)" style="fill: none; stroke: #055e49; stroke-width: 1.75"/>
    <path d="M 252.29882 166.019178 
L 252.29882 165.900955 
" clip-path="url(#p64302a73e2)" style="fill: none; stroke: #055e49; stroke-width: 1.75"/>
    <path d="M 253.075258 156.659933 
L 253.075258 156.539953 
" clip-path="url(#p64302a73e2)" style="fill: none; stroke: #055e49; stroke-width: 1.75"/>
    <path d="M 253.851696 155.864308 
L 253.851696 155.780023 
" clip-path="url(#p64302a73e2)" style="fill: none; stroke: #055e49; stroke-width: 1.75"/>
    <path d="M 254.628134 148.087369 
L 254.628134 147.967886 
" clip-path="url(#p64302a73e2)" style="fill: none; stroke: #055e49; stroke-width: 1.75"/>
    <path d="M 255.404572 143.754782 
L 255.404572 143.636559 
" clip-path="url(#p64302a73e2)" style="fill: none; stroke: #055e49; stroke-width: 1.75"/>
    <path d="M 256.181009 139.139287 
L 256.181009 139.021458 
" clip-path="url(#p64302a73e2)" style="fill: none; stroke: #055e49; stroke-width: 1.75"/>
    <path d="M 256.957447 135.347068 
L 256.957447 135.262896 
" clip-path="url(#p64302a73e2)" style="fill: none; stroke: #055e49; stroke-width: 1.75"/>
    <path d="M 257.733885 133.080727 
L 257.733885 132.963884 
" clip-path="url(#p64302a73e2)" style="fill: none; stroke: #055e49; stroke-width: 1.75"/>
    <path d="M 258.510323 131.132234 
L 258.510323 131.012445 
" clip-path="url(#p64302a73e2)" style="fill: none; stroke: #055e49; stroke-width: 1.75"/>
    <path d="M 259.286761 128.226187 
L 259.286761 128.108062 
" clip-path="url(#p64302a73e2)" style="fill: none; stroke: #055e49; stroke-width: 1.75"/>
    <path d="M 260.063199 125.83979 
L 260.063199 125.756105 
" clip-path="url(#p64302a73e2)" style="fill: none; stroke: #055e49; stroke-width: 1.75"/>
    <path d="M 260.839636 123.746233 
L 260.839636 123.629444 
" clip-path="url(#p64302a73e2)" style="fill: none; stroke: #055e49; stroke-width: 1.75"/>
    <path d="M 261.616074 122.390055 
L 261.616074 122.271934 
" clip-path="url(#p64302a73e2)" style="fill: none; stroke: #055e49; stroke-width: 1.75"/>
    <path d="M 262.392512 122.395509 
L 262.392512 122.276094 
" clip-path="url(#p64302a73e2)" style="fill: none; stroke: #055e49; stroke-width: 1.75"/>
    <path d="M 263.16895 119.6028 
L 263.16895 119.519996 
" clip-path="url(#p64302a73e2)" style="fill: none; stroke: #055e49; stroke-width: 1.75"/>
    <path d="M 263.945388 118.989363 
L 263.945388 118.86991 
" clip-path="url(#p64302a73e2)" style="fill: none; stroke: #055e49; stroke-width: 1.75"/>
    <path d="M 264.721826 117.883112 
L 264.721826 117.765995 
" clip-path="url(#p64302a73e2)" style="fill: none; stroke: #055e49; stroke-width: 1.75"/>
    <path d="M 265.498264 115.980994 
L 265.498264 115.861896 
" clip-path="url(#p64302a73e2)" style="fill: none; stroke: #055e49; stroke-width: 1.75"/>
    <path d="M 266.274701 115.181515 
L 266.274701 115.098433 
" clip-path="url(#p64302a73e2)" style="fill: none; stroke: #055e49; stroke-width: 1.75"/>
    <path d="M 267.051139 114.400109 
L 267.051139 114.281133 
" clip-path="url(#p64302a73e2)" style="fill: none; stroke: #055e49; stroke-width: 1.75"/>
    <path d="M 267.827577 113.013197 
L 267.827577 112.89406 
" clip-path="url(#p64302a73e2)" style="fill: none; stroke: #055e49; stroke-width: 1.75"/>
    <path d="M 268.604015 113.666054 
L 268.604015 113.54811 
" clip-path="url(#p64302a73e2)" style="fill: none; stroke: #055e49; stroke-width: 1.75"/>
    <path d="M 269.380453 112.490782 
L 269.380453 112.407367 
" clip-path="url(#p64302a73e2)" style="fill: none; stroke: #055e49; stroke-width: 1.75"/>
    <path d="M 270.156891 111.283311 
L 270.156891 111.165375 
" clip-path="url(#p64302a73e2)" style="fill: none; stroke: #055e49; stroke-width: 1.75"/>
    <path d="M 270.933329 110.88852 
L 270.933329 110.771663 
" clip-path="url(#p64302a73e2)" style="fill: none; stroke: #055e49; stroke-width: 1.75"/>
    <path d="M 271.709766 110.026249 
L 271.709766 109.908418 
" clip-path="url(#p64302a73e2)" style="fill: none; stroke: #055e49; stroke-width: 1.75"/>
    <path d="M 272.486204 109.441144 
L 272.486204 109.359118 
" clip-path="url(#p64302a73e2)" style="fill: none; stroke: #055e49; stroke-width: 1.75"/>
    <path d="M 273.262642 109.297624 
L 273.262642 109.179238 
" clip-path="url(#p64302a73e2)" style="fill: none; stroke: #055e49; stroke-width: 1.75"/>
    <path d="M 275.591956 107.265583 
L 275.591956 107.14757 
" clip-path="url(#p64302a73e2)" style="fill: none; stroke: #055e49; stroke-width: 1.75"/>
    <path d="M 278.697707 106.312776 
L 278.697707 106.195565 
" clip-path="url(#p64302a73e2)" style="fill: none; stroke: #055e49; stroke-width: 1.75"/>
    <path d="M 281.803458 104.354579 
L 281.803458 104.237547 
" clip-path="url(#p64302a73e2)" style="fill: none; stroke: #055e49; stroke-width: 1.75"/>
    <path d="M 284.90921 103.273005 
L 284.90921 103.156481 
" clip-path="url(#p64302a73e2)" style="fill: none; stroke: #055e49; stroke-width: 1.75"/>
    <path d="M 288.014961 102.188476 
L 288.014961 102.072086 
" clip-path="url(#p64302a73e2)" style="fill: none; stroke: #055e49; stroke-width: 1.75"/>
    <path d="M 291.120713 100.906395 
L 291.120713 100.791534 
" clip-path="url(#p64302a73e2)" style="fill: none; stroke: #055e49; stroke-width: 1.75"/>
    <path d="M 294.226464 100.450469 
L 294.226464 100.335654 
" clip-path="url(#p64302a73e2)" style="fill: none; stroke: #055e49; stroke-width: 1.75"/>
    <path d="M 297.332215 99.428062 
L 297.332215 99.310946 
" clip-path="url(#p64302a73e2)" style="fill: none; stroke: #055e49; stroke-width: 1.75"/>
    <path d="M 300.437967 99.067322 
L 300.437967 98.950365 
" clip-path="url(#p64302a73e2)" style="fill: none; stroke: #055e49; stroke-width: 1.75"/>
    <path d="M 303.543718 98.440884 
L 303.543718 98.322996 
" clip-path="url(#p64302a73e2)" style="fill: none; stroke: #055e49; stroke-width: 1.75"/>
    <path d="M 306.64947 97.138932 
L 306.64947 97.023751 
" clip-path="url(#p64302a73e2)" style="fill: none; stroke: #055e49; stroke-width: 1.75"/>
    <path d="M 309.755221 97.234567 
L 309.755221 97.118672 
" clip-path="url(#p64302a73e2)" style="fill: none; stroke: #055e49; stroke-width: 1.75"/>
    <path d="M 312.860972 97.579022 
L 312.860972 97.462535 
" clip-path="url(#p64302a73e2)" style="fill: none; stroke: #055e49; stroke-width: 1.75"/>
    <path d="M 315.966724 96.369855 
L 315.966724 96.25233 
" clip-path="url(#p64302a73e2)" style="fill: none; stroke: #055e49; stroke-width: 1.75"/>
    <path d="M 319.072475 96.227435 
L 319.072475 96.110372 
" clip-path="url(#p64302a73e2)" style="fill: none; stroke: #055e49; stroke-width: 1.75"/>
    <path d="M 322.178226 95.545718 
L 322.178226 95.428386 
" clip-path="url(#p64302a73e2)" style="fill: none; stroke: #055e49; stroke-width: 1.75"/>
    <path d="M 325.283978 95.948103 
L 325.283978 95.829455 
" clip-path="url(#p64302a73e2)" style="fill: none; stroke: #055e49; stroke-width: 1.75"/>
    <path d="M 328.389729 94.972046 
L 328.389729 94.856529 
" clip-path="url(#p64302a73e2)" style="fill: none; stroke: #055e49; stroke-width: 1.75"/>
    <path d="M 331.495481 95.00367 
L 331.495481 94.889308 
" clip-path="url(#p64302a73e2)" style="fill: none; stroke: #055e49; stroke-width: 1.75"/>
    <path d="M 334.601232 94.894724 
L 334.601232 94.777678 
" clip-path="url(#p64302a73e2)" style="fill: none; stroke: #055e49; stroke-width: 1.75"/>
    <path d="M 337.706983 94.374299 
L 337.706983 94.259196 
" clip-path="url(#p64302a73e2)" style="fill: none; stroke: #055e49; stroke-width: 1.75"/>
    <path d="M 340.812735 94.595978 
L 340.812735 94.480988 
" clip-path="url(#p64302a73e2)" style="fill: none; stroke: #055e49; stroke-width: 1.75"/>
    <path d="M 343.918486 93.957671 
L 343.918486 93.841247 
" clip-path="url(#p64302a73e2)" style="fill: none; stroke: #055e49; stroke-width: 1.75"/>
    <path d="M 347.024238 93.571283 
L 347.024238 93.456037 
" clip-path="url(#p64302a73e2)" style="fill: none; stroke: #055e49; stroke-width: 1.75"/>
    <path d="M 350.129989 93.58428 
L 350.129989 93.467681 
" clip-path="url(#p64302a73e2)" style="fill: none; stroke: #055e49; stroke-width: 1.75"/>
    <path d="M 353.23574 93.334649 
L 353.23574 93.21904 
" clip-path="url(#p64302a73e2)" style="fill: none; stroke: #055e49; stroke-width: 1.75"/>
    <path d="M 356.341492 93.160027 
L 356.341492 93.045847 
" clip-path="url(#p64302a73e2)" style="fill: none; stroke: #055e49; stroke-width: 1.75"/>
    <path d="M 359.447243 92.832136 
L 359.447243 92.717252 
" clip-path="url(#p64302a73e2)" style="fill: none; stroke: #055e49; stroke-width: 1.75"/>
    <path d="M 362.552995 93.138715 
L 362.552995 93.024869 
" clip-path="url(#p64302a73e2)" style="fill: none; stroke: #055e49; stroke-width: 1.75"/>
    <path d="M 365.658746 93.095261 
L 365.658746 92.981537 
" clip-path="url(#p64302a73e2)" style="fill: none; stroke: #055e49; stroke-width: 1.75"/>
    <path d="M 368.764497 92.62398 
L 368.764497 92.507787 
" clip-path="url(#p64302a73e2)" style="fill: none; stroke: #055e49; stroke-width: 1.75"/>
    <path d="M 371.870249 92.507143 
L 371.870249 92.388686 
" clip-path="url(#p64302a73e2)" style="fill: none; stroke: #055e49; stroke-width: 1.75"/>
    <path d="M 374.976 92.237827 
L 374.976 92.12093 
" clip-path="url(#p64302a73e2)" style="fill: none; stroke: #055e49; stroke-width: 1.75"/>
    <path d="M 378.081752 92.334186 
L 378.081752 92.218048 
" clip-path="url(#p64302a73e2)" style="fill: none; stroke: #055e49; stroke-width: 1.75"/>
    <path d="M 381.187503 92.175336 
L 381.187503 92.059072 
" clip-path="url(#p64302a73e2)" style="fill: none; stroke: #055e49; stroke-width: 1.75"/>
    <path d="M 384.293254 92.074888 
L 384.293254 91.958478 
" clip-path="url(#p64302a73e2)" style="fill: none; stroke: #055e49; stroke-width: 1.75"/>
    <path d="M 387.399006 92.135683 
L 387.399006 92.018684 
" clip-path="url(#p64302a73e2)" style="fill: none; stroke: #055e49; stroke-width: 1.75"/>
   </g>
   <g id="legend_1">
    <g id="patch_7">
     <path d="M 240.917188 63.564844 
L 392.117188 63.564844 
Q 395.117188 63.564844 395.117188 60.564844 
L 395.117188 17.7 
Q 395.117188 14.7 392.117188 14.7 
L 240.917188 14.7 
Q 237.917188 14.7 237.917188 17.7 
L 237.917188 60.564844 
Q 237.917188 63.564844 240.917188 63.564844 
z
" style="fill: #eaeaf2; opacity: 0.8; stroke: #cccccc; stroke-width: 0.3; stroke-linejoin: miter"/>
    </g>
    <g id="line2d_38">
     <path d="M 243.917188 26.847656 
L 258.917188 26.847656 
L 273.917188 26.847656 
" style="fill: none; stroke: #f3aa0c; stroke-width: 2; stroke-linecap: round"/>
    </g>
    <g id="text_10">
     <!-- Ajuste con $C_2$ -->
     <g style="fill: #262626" transform="translate(285.917188 32.097656) scale(0.15 -0.15)">
      <defs>
       <path id="DejaVuSerif-41" d="M 1281 1691 
L 2994 1691 
L 2138 3909 
L 1281 1691 
z
M -38 0 
L -38 331 
L 372 331 
L 2034 4666 
L 2559 4666 
L 4225 331 
L 4684 331 
L 4684 0 
L 2988 0 
L 2988 331 
L 3506 331 
L 3116 1356 
L 1153 1356 
L 763 331 
L 1275 331 
L 1275 0 
L -38 0 
z
" transform="scale(0.015625)"/>
       <path id="DejaVuSerif-6a" d="M 641 4353 
Q 641 4497 745 4603 
Q 850 4709 997 4709 
Q 1141 4709 1245 4603 
Q 1350 4497 1350 4353 
Q 1350 4206 1248 4103 
Q 1147 4000 997 4000 
Q 850 4000 745 4103 
Q 641 4206 641 4353 
z
M 781 2988 
L 238 2988 
L 238 3322 
L 1356 3322 
L 1356 -325 
Q 1356 -838 1051 -1130 
Q 747 -1422 213 -1422 
Q -13 -1422 -217 -1370 
Q -422 -1319 -616 -1216 
L -616 -531 
L -319 -531 
Q -297 -831 -164 -972 
Q -31 -1113 225 -1113 
Q 509 -1113 645 -920 
Q 781 -728 781 -325 
L 781 2988 
z
" transform="scale(0.015625)"/>
       <path id="DejaVuSerif-75" d="M 2266 3322 
L 3341 3322 
L 3341 331 
L 3884 331 
L 3884 0 
L 2766 0 
L 2766 588 
Q 2606 256 2353 82 
Q 2100 -91 1766 -91 
Q 1213 -91 952 223 
Q 691 538 691 1209 
L 691 2988 
L 172 2988 
L 172 3322 
L 1269 3322 
L 1269 1388 
Q 1269 781 1417 556 
Q 1566 331 1947 331 
Q 2347 331 2556 625 
Q 2766 919 2766 1478 
L 2766 2988 
L 2266 2988 
L 2266 3322 
z
" transform="scale(0.015625)"/>
       <path id="DejaVuSerif-74" d="M 691 2988 
L 184 2988 
L 184 3322 
L 691 3322 
L 691 4353 
L 1269 4353 
L 1269 3322 
L 2350 3322 
L 2350 2988 
L 1269 2988 
L 1269 878 
Q 1269 456 1350 337 
Q 1431 219 1650 219 
Q 1875 219 1978 351 
Q 2081 484 2088 781 
L 2522 781 
Q 2497 328 2275 118 
Q 2053 -91 1600 -91 
Q 1103 -91 897 129 
Q 691 350 691 878 
L 691 2988 
z
" transform="scale(0.015625)"/>
       <path id="DejaVuSerif-20" transform="scale(0.015625)"/>
       <path id="DejaVuSerif-6f" d="M 1925 219 
Q 2388 219 2623 584 
Q 2859 950 2859 1663 
Q 2859 2375 2623 2739 
Q 2388 3103 1925 3103 
Q 1463 3103 1227 2739 
Q 991 2375 991 1663 
Q 991 950 1228 584 
Q 1466 219 1925 219 
z
M 1925 -91 
Q 1200 -91 759 389 
Q 319 869 319 1663 
Q 319 2456 758 2934 
Q 1197 3413 1925 3413 
Q 2653 3413 3092 2934 
Q 3531 2456 3531 1663 
Q 3531 869 3092 389 
Q 2653 -91 1925 -91 
z
" transform="scale(0.015625)"/>
       <path id="DejaVuSerif-43" d="M 4513 1234 
Q 4306 581 3820 245 
Q 3334 -91 2591 -91 
Q 2134 -91 1743 65 
Q 1353 222 1050 525 
Q 700 875 529 1320 
Q 359 1766 359 2328 
Q 359 3416 987 4083 
Q 1616 4750 2644 4750 
Q 3025 4750 3456 4650 
Q 3888 4550 4384 4347 
L 4384 3272 
L 4031 3272 
Q 3916 3859 3567 4137 
Q 3219 4416 2591 4416 
Q 1844 4416 1459 3886 
Q 1075 3356 1075 2328 
Q 1075 1303 1459 773 
Q 1844 244 2591 244 
Q 3113 244 3450 492 
Q 3788 741 3938 1234 
L 4513 1234 
z
" transform="scale(0.015625)"/>
      </defs>
      <use xlink:href="#DejaVuSerif-41" transform="translate(0 0.78125)"/>
      <use xlink:href="#DejaVuSerif-6a" transform="translate(72.216797 0.78125)"/>
      <use xlink:href="#DejaVuSerif-75" transform="translate(103.222656 0.78125)"/>
      <use xlink:href="#DejaVuSerif-73" transform="translate(167.626953 0.78125)"/>
      <use xlink:href="#DejaVuSerif-74" transform="translate(218.945312 0.78125)"/>
      <use xlink:href="#DejaVuSerif-65" transform="translate(259.130859 0.78125)"/>
      <use xlink:href="#DejaVuSerif-20" transform="translate(318.310547 0.78125)"/>
      <use xlink:href="#DejaVuSerif-63" transform="translate(350.097656 0.78125)"/>
      <use xlink:href="#DejaVuSerif-6f" transform="translate(406.103516 0.78125)"/>
      <use xlink:href="#DejaVuSerif-6e" transform="translate(466.308594 0.78125)"/>
      <use xlink:href="#DejaVuSerif-20" transform="translate(530.712891 0.78125)"/>
      <use xlink:href="#DejaVuSerif-43" transform="translate(562.5 0.78125)"/>
      <use xlink:href="#DejaVuSerif-32" transform="translate(639.922031 -14.790625) scale(0.7)"/>
     </g>
    </g>
    <g id="LineCollection_2">
     <path d="M 258.917188 56.695313 
L 258.917188 41.695313 
" style="fill: none; stroke: #055e49; stroke-width: 1.75"/>
    </g>
    <g id="line2d_39"/>
    <g id="line2d_40">
     <defs>
      <path id="mbc82579088" d="M 0 1.75 
C 0.464105 1.75 0.909265 1.565609 1.237437 1.237437 
C 1.565609 0.909265 1.75 0.464105 1.75 0 
C 1.75 -0.464105 1.565609 -0.909265 1.237437 -1.237437 
C 0.909265 -1.565609 0.464105 -1.75 0 -1.75 
C -0.464105 -1.75 -0.909265 -1.565609 -1.237437 -1.237437 
C -1.565609 -0.909265 -1.75 -0.464105 -1.75 0 
C -1.75 0.464105 -1.565609 0.909265 -1.237437 1.237437 
C -0.909265 1.565609 -0.464105 1.75 0 1.75 
z
"/>
     </defs>
     <g>
      <use xlink:href="#mbc82579088" x="258.917188" y="49.195313" style="fill: #055e49"/>
     </g>
    </g>
    <g id="text_11">
     <!-- Datos -->
     <g style="fill: #262626" transform="translate(285.917188 54.445313) scale(0.15 -0.15)">
      <defs>
       <path id="DejaVuSerif-44" d="M 1581 331 
L 2163 331 
Q 3072 331 3558 850 
Q 4044 1369 4044 2338 
Q 4044 3306 3559 3818 
Q 3075 4331 2163 4331 
L 1581 4331 
L 1581 331 
z
M 353 0 
L 353 331 
L 947 331 
L 947 4331 
L 353 4331 
L 353 4666 
L 2209 4666 
Q 3416 4666 4089 4050 
Q 4763 3434 4763 2338 
Q 4763 1238 4088 619 
Q 3413 0 2209 0 
L 353 0 
z
" transform="scale(0.015625)"/>
      </defs>
      <use xlink:href="#DejaVuSerif-44"/>
      <use xlink:href="#DejaVuSerif-61" transform="translate(80.175781 0)"/>
      <use xlink:href="#DejaVuSerif-74" transform="translate(139.794922 0)"/>
      <use xlink:href="#DejaVuSerif-6f" transform="translate(179.980469 0)"/>
      <use xlink:href="#DejaVuSerif-73" transform="translate(240.185547 0)"/>
     </g>
    </g>
   </g>
   <g id="line2d_41">
    <g clip-path="url(#p64302a73e2)">
     <use xlink:href="#mbc82579088" x="83.035369" y="82.192337" style="fill: #055e49"/>
     <use xlink:href="#mbc82579088" x="86.141121" y="83.406196" style="fill: #055e49"/>
     <use xlink:href="#mbc82579088" x="89.246872" y="82.72689" style="fill: #055e49"/>
     <use xlink:href="#mbc82579088" x="92.352623" y="81.199726" style="fill: #055e49"/>
     <use xlink:href="#mbc82579088" x="95.458375" y="82.527352" style="fill: #055e49"/>
     <use xlink:href="#mbc82579088" x="98.564126" y="82.037974" style="fill: #055e49"/>
     <use xlink:href="#mbc82579088" x="101.669878" y="83.023601" style="fill: #055e49"/>
     <use xlink:href="#mbc82579088" x="104.775629" y="82.251596" style="fill: #055e49"/>
     <use xlink:href="#mbc82579088" x="107.88138" y="80.764889" style="fill: #055e49"/>
     <use xlink:href="#mbc82579088" x="110.987132" y="83.007102" style="fill: #055e49"/>
     <use xlink:href="#mbc82579088" x="114.092883" y="81.137225" style="fill: #055e49"/>
     <use xlink:href="#mbc82579088" x="117.198635" y="81.050876" style="fill: #055e49"/>
     <use xlink:href="#mbc82579088" x="120.304386" y="82.481876" style="fill: #055e49"/>
     <use xlink:href="#mbc82579088" x="123.410137" y="80.102676" style="fill: #055e49"/>
     <use xlink:href="#mbc82579088" x="126.515889" y="81.271807" style="fill: #055e49"/>
     <use xlink:href="#mbc82579088" x="129.62164" y="80.689331" style="fill: #055e49"/>
     <use xlink:href="#mbc82579088" x="132.727392" y="79.811457" style="fill: #055e49"/>
     <use xlink:href="#mbc82579088" x="135.833143" y="79.466538" style="fill: #055e49"/>
     <use xlink:href="#mbc82579088" x="138.938894" y="80.17898" style="fill: #055e49"/>
     <use xlink:href="#mbc82579088" x="142.044646" y="78.715603" style="fill: #055e49"/>
     <use xlink:href="#mbc82579088" x="145.150397" y="79.035678" style="fill: #055e49"/>
     <use xlink:href="#mbc82579088" x="148.256149" y="79.176029" style="fill: #055e49"/>
     <use xlink:href="#mbc82579088" x="151.3619" y="79.700246" style="fill: #055e49"/>
     <use xlink:href="#mbc82579088" x="154.467651" y="77.931852" style="fill: #055e49"/>
     <use xlink:href="#mbc82579088" x="157.573403" y="78.079624" style="fill: #055e49"/>
     <use xlink:href="#mbc82579088" x="160.679154" y="76.98431" style="fill: #055e49"/>
     <use xlink:href="#mbc82579088" x="163.784905" y="77.031097" style="fill: #055e49"/>
     <use xlink:href="#mbc82579088" x="166.890657" y="77.487696" style="fill: #055e49"/>
     <use xlink:href="#mbc82579088" x="169.996408" y="77.37093" style="fill: #055e49"/>
     <use xlink:href="#mbc82579088" x="173.10216" y="76.065788" style="fill: #055e49"/>
     <use xlink:href="#mbc82579088" x="176.207911" y="74.992706" style="fill: #055e49"/>
     <use xlink:href="#mbc82579088" x="179.313662" y="75.051094" style="fill: #055e49"/>
     <use xlink:href="#mbc82579088" x="182.419414" y="74.133949" style="fill: #055e49"/>
     <use xlink:href="#mbc82579088" x="185.525165" y="72.947206" style="fill: #055e49"/>
     <use xlink:href="#mbc82579088" x="188.630917" y="73.077264" style="fill: #055e49"/>
     <use xlink:href="#mbc82579088" x="191.736668" y="71.928072" style="fill: #055e49"/>
     <use xlink:href="#mbc82579088" x="194.842419" y="70.053457" style="fill: #055e49"/>
     <use xlink:href="#mbc82579088" x="197.171733" y="68.777495" style="fill: #055e49"/>
     <use xlink:href="#mbc82579088" x="197.948171" y="68.443788" style="fill: #055e49"/>
     <use xlink:href="#mbc82579088" x="198.724609" y="67.330136" style="fill: #055e49"/>
     <use xlink:href="#mbc82579088" x="199.501046" y="67.648361" style="fill: #055e49"/>
     <use xlink:href="#mbc82579088" x="200.277484" y="67.231119" style="fill: #055e49"/>
     <use xlink:href="#mbc82579088" x="201.053922" y="66.772455" style="fill: #055e49"/>
     <use xlink:href="#mbc82579088" x="201.83036" y="66.188545" style="fill: #055e49"/>
     <use xlink:href="#mbc82579088" x="202.606798" y="65.435506" style="fill: #055e49"/>
     <use xlink:href="#mbc82579088" x="203.383236" y="65.259416" style="fill: #055e49"/>
     <use xlink:href="#mbc82579088" x="204.159674" y="64.444357" style="fill: #055e49"/>
     <use xlink:href="#mbc82579088" x="204.936111" y="64.019094" style="fill: #055e49"/>
     <use xlink:href="#mbc82579088" x="205.712549" y="63.7568" style="fill: #055e49"/>
     <use xlink:href="#mbc82579088" x="206.488987" y="62.331944" style="fill: #055e49"/>
     <use xlink:href="#mbc82579088" x="207.265425" y="62.202818" style="fill: #055e49"/>
     <use xlink:href="#mbc82579088" x="208.041863" y="60.916325" style="fill: #055e49"/>
     <use xlink:href="#mbc82579088" x="208.818301" y="61.016518" style="fill: #055e49"/>
     <use xlink:href="#mbc82579088" x="209.594739" y="59.256789" style="fill: #055e49"/>
     <use xlink:href="#mbc82579088" x="210.371176" y="58.937677" style="fill: #055e49"/>
     <use xlink:href="#mbc82579088" x="211.147614" y="57.289222" style="fill: #055e49"/>
     <use xlink:href="#mbc82579088" x="211.924052" y="56.727925" style="fill: #055e49"/>
     <use xlink:href="#mbc82579088" x="212.70049" y="55.515419" style="fill: #055e49"/>
     <use xlink:href="#mbc82579088" x="213.476928" y="54.317486" style="fill: #055e49"/>
     <use xlink:href="#mbc82579088" x="214.253366" y="53.075641" style="fill: #055e49"/>
     <use xlink:href="#mbc82579088" x="215.029803" y="51.520478" style="fill: #055e49"/>
     <use xlink:href="#mbc82579088" x="215.806241" y="50.450875" style="fill: #055e49"/>
     <use xlink:href="#mbc82579088" x="216.582679" y="48.442667" style="fill: #055e49"/>
     <use xlink:href="#mbc82579088" x="217.359117" y="46.691957" style="fill: #055e49"/>
     <use xlink:href="#mbc82579088" x="218.135555" y="44.386983" style="fill: #055e49"/>
     <use xlink:href="#mbc82579088" x="218.911993" y="42.073331" style="fill: #055e49"/>
     <use xlink:href="#mbc82579088" x="219.688431" y="39.257274" style="fill: #055e49"/>
     <use xlink:href="#mbc82579088" x="220.464868" y="35.824531" style="fill: #055e49"/>
     <use xlink:href="#mbc82579088" x="221.241306" y="32.012085" style="fill: #055e49"/>
     <use xlink:href="#mbc82579088" x="222.017744" y="27.403399" style="fill: #055e49"/>
     <use xlink:href="#mbc82579088" x="222.794182" y="22.816131" style="fill: #055e49"/>
     <use xlink:href="#mbc82579088" x="223.57062" y="18.039309" style="fill: #055e49"/>
     <use xlink:href="#mbc82579088" x="224.347058" y="14.76" style="fill: #055e49"/>
     <use xlink:href="#mbc82579088" x="225.123495" y="15.785807" style="fill: #055e49"/>
     <use xlink:href="#mbc82579088" x="225.899933" y="20.70662" style="fill: #055e49"/>
     <use xlink:href="#mbc82579088" x="226.676371" y="27.026889" style="fill: #055e49"/>
     <use xlink:href="#mbc82579088" x="227.452809" y="33.306481" style="fill: #055e49"/>
     <use xlink:href="#mbc82579088" x="228.229247" y="39.419873" style="fill: #055e49"/>
     <use xlink:href="#mbc82579088" x="229.005685" y="44.421561" style="fill: #055e49"/>
     <use xlink:href="#mbc82579088" x="229.782123" y="49.413576" style="fill: #055e49"/>
     <use xlink:href="#mbc82579088" x="230.55856" y="53.421472" style="fill: #055e49"/>
     <use xlink:href="#mbc82579088" x="231.334998" y="57.2513" style="fill: #055e49"/>
     <use xlink:href="#mbc82579088" x="232.111436" y="61.425405" style="fill: #055e49"/>
     <use xlink:href="#mbc82579088" x="232.887874" y="64.604634" style="fill: #055e49"/>
     <use xlink:href="#mbc82579088" x="233.664312" y="67.36333" style="fill: #055e49"/>
     <use xlink:href="#mbc82579088" x="234.44075" y="71.408453" style="fill: #055e49"/>
     <use xlink:href="#mbc82579088" x="235.217188" y="74.584674" style="fill: #055e49"/>
     <use xlink:href="#mbc82579088" x="235.993625" y="77.611906" style="fill: #055e49"/>
     <use xlink:href="#mbc82579088" x="236.770063" y="80.991045" style="fill: #055e49"/>
     <use xlink:href="#mbc82579088" x="237.546501" y="83.696166" style="fill: #055e49"/>
     <use xlink:href="#mbc82579088" x="238.322939" y="86.908833" style="fill: #055e49"/>
     <use xlink:href="#mbc82579088" x="239.099377" y="89.786534" style="fill: #055e49"/>
     <use xlink:href="#mbc82579088" x="239.875815" y="92.463409" style="fill: #055e49"/>
     <use xlink:href="#mbc82579088" x="240.652252" y="95.751288" style="fill: #055e49"/>
     <use xlink:href="#mbc82579088" x="241.42869" y="98.801542" style="fill: #055e49"/>
     <use xlink:href="#mbc82579088" x="242.205128" y="101.687088" style="fill: #055e49"/>
     <use xlink:href="#mbc82579088" x="242.981566" y="105.20346" style="fill: #055e49"/>
     <use xlink:href="#mbc82579088" x="243.758004" y="108.098328" style="fill: #055e49"/>
     <use xlink:href="#mbc82579088" x="244.534442" y="111.743741" style="fill: #055e49"/>
     <use xlink:href="#mbc82579088" x="245.31088" y="115.684399" style="fill: #055e49"/>
     <use xlink:href="#mbc82579088" x="246.087317" y="119.042308" style="fill: #055e49"/>
     <use xlink:href="#mbc82579088" x="246.863755" y="124.413339" style="fill: #055e49"/>
     <use xlink:href="#mbc82579088" x="247.640193" y="128.280445" style="fill: #055e49"/>
     <use xlink:href="#mbc82579088" x="248.416631" y="134.224653" style="fill: #055e49"/>
     <use xlink:href="#mbc82579088" x="249.193069" y="140.087878" style="fill: #055e49"/>
     <use xlink:href="#mbc82579088" x="249.969507" y="145.446085" style="fill: #055e49"/>
     <use xlink:href="#mbc82579088" x="250.745944" y="153.597444" style="fill: #055e49"/>
     <use xlink:href="#mbc82579088" x="251.522382" y="160.613502" style="fill: #055e49"/>
     <use xlink:href="#mbc82579088" x="252.29882" y="165.96" style="fill: #055e49"/>
     <use xlink:href="#mbc82579088" x="253.075258" y="156.599875" style="fill: #055e49"/>
     <use xlink:href="#mbc82579088" x="253.851696" y="155.822132" style="fill: #055e49"/>
     <use xlink:href="#mbc82579088" x="254.628134" y="148.02756" style="fill: #055e49"/>
     <use xlink:href="#mbc82579088" x="255.404572" y="143.695604" style="fill: #055e49"/>
     <use xlink:href="#mbc82579088" x="256.181009" y="139.080307" style="fill: #055e49"/>
     <use xlink:href="#mbc82579088" x="256.957447" y="135.304948" style="fill: #055e49"/>
     <use xlink:href="#mbc82579088" x="257.733885" y="133.022241" style="fill: #055e49"/>
     <use xlink:href="#mbc82579088" x="258.510323" y="131.072272" style="fill: #055e49"/>
     <use xlink:href="#mbc82579088" x="259.286761" y="128.167059" style="fill: #055e49"/>
     <use xlink:href="#mbc82579088" x="260.063199" y="125.797914" style="fill: #055e49"/>
     <use xlink:href="#mbc82579088" x="260.839636" y="123.687774" style="fill: #055e49"/>
     <use xlink:href="#mbc82579088" x="261.616074" y="122.330929" style="fill: #055e49"/>
     <use xlink:href="#mbc82579088" x="262.392512" y="122.335734" style="fill: #055e49"/>
     <use xlink:href="#mbc82579088" x="263.16895" y="119.561365" style="fill: #055e49"/>
     <use xlink:href="#mbc82579088" x="263.945388" y="118.929569" style="fill: #055e49"/>
     <use xlink:href="#mbc82579088" x="264.721826" y="117.824488" style="fill: #055e49"/>
     <use xlink:href="#mbc82579088" x="265.498264" y="115.921378" style="fill: #055e49"/>
     <use xlink:href="#mbc82579088" x="266.274701" y="115.139941" style="fill: #055e49"/>
     <use xlink:href="#mbc82579088" x="267.051139" y="114.340554" style="fill: #055e49"/>
     <use xlink:href="#mbc82579088" x="267.827577" y="112.953562" style="fill: #055e49"/>
     <use xlink:href="#mbc82579088" x="268.604015" y="113.607016" style="fill: #055e49"/>
     <use xlink:href="#mbc82579088" x="269.380453" y="112.449042" style="fill: #055e49"/>
     <use xlink:href="#mbc82579088" x="270.156891" y="111.224277" style="fill: #055e49"/>
     <use xlink:href="#mbc82579088" x="270.933329" y="110.830027" style="fill: #055e49"/>
     <use xlink:href="#mbc82579088" x="271.709766" y="109.967268" style="fill: #055e49"/>
     <use xlink:href="#mbc82579088" x="272.486204" y="109.400099" style="fill: #055e49"/>
     <use xlink:href="#mbc82579088" x="273.262642" y="109.238365" style="fill: #055e49"/>
     <use xlink:href="#mbc82579088" x="275.591956" y="107.20651" style="fill: #055e49"/>
     <use xlink:href="#mbc82579088" x="278.697707" y="106.254105" style="fill: #055e49"/>
     <use xlink:href="#mbc82579088" x="281.803458" y="104.295998" style="fill: #055e49"/>
     <use xlink:href="#mbc82579088" x="284.90921" y="103.214679" style="fill: #055e49"/>
     <use xlink:href="#mbc82579088" x="288.014961" y="102.130217" style="fill: #055e49"/>
     <use xlink:href="#mbc82579088" x="291.120713" y="100.848902" style="fill: #055e49"/>
     <use xlink:href="#mbc82579088" x="294.226464" y="100.392999" style="fill: #055e49"/>
     <use xlink:href="#mbc82579088" x="297.332215" y="99.369439" style="fill: #055e49"/>
     <use xlink:href="#mbc82579088" x="300.437967" y="99.008779" style="fill: #055e49"/>
     <use xlink:href="#mbc82579088" x="303.543718" y="98.381875" style="fill: #055e49"/>
     <use xlink:href="#mbc82579088" x="306.64947" y="97.081279" style="fill: #055e49"/>
     <use xlink:href="#mbc82579088" x="309.755221" y="97.176556" style="fill: #055e49"/>
     <use xlink:href="#mbc82579088" x="312.860972" y="97.520714" style="fill: #055e49"/>
     <use xlink:href="#mbc82579088" x="315.966724" y="96.311027" style="fill: #055e49"/>
     <use xlink:href="#mbc82579088" x="319.072475" y="96.168839" style="fill: #055e49"/>
     <use xlink:href="#mbc82579088" x="322.178226" y="95.486987" style="fill: #055e49"/>
     <use xlink:href="#mbc82579088" x="325.283978" y="95.888712" style="fill: #055e49"/>
     <use xlink:href="#mbc82579088" x="328.389729" y="94.914224" style="fill: #055e49"/>
     <use xlink:href="#mbc82579088" x="331.495481" y="94.946427" style="fill: #055e49"/>
     <use xlink:href="#mbc82579088" x="334.601232" y="94.836136" style="fill: #055e49"/>
     <use xlink:href="#mbc82579088" x="337.706983" y="94.316685" style="fill: #055e49"/>
     <use xlink:href="#mbc82579088" x="340.812735" y="94.538421" style="fill: #055e49"/>
     <use xlink:href="#mbc82579088" x="343.918486" y="93.899395" style="fill: #055e49"/>
     <use xlink:href="#mbc82579088" x="347.024238" y="93.513598" style="fill: #055e49"/>
     <use xlink:href="#mbc82579088" x="350.129989" y="93.525916" style="fill: #055e49"/>
     <use xlink:href="#mbc82579088" x="353.23574" y="93.276781" style="fill: #055e49"/>
     <use xlink:href="#mbc82579088" x="356.341492" y="93.102875" style="fill: #055e49"/>
     <use xlink:href="#mbc82579088" x="359.447243" y="92.774631" style="fill: #055e49"/>
     <use xlink:href="#mbc82579088" x="362.552995" y="93.08173" style="fill: #055e49"/>
     <use xlink:href="#mbc82579088" x="365.658746" y="93.038338" style="fill: #055e49"/>
     <use xlink:href="#mbc82579088" x="368.764497" y="92.56582" style="fill: #055e49"/>
     <use xlink:href="#mbc82579088" x="371.870249" y="92.447848" style="fill: #055e49"/>
     <use xlink:href="#mbc82579088" x="374.976" y="92.179314" style="fill: #055e49"/>
     <use xlink:href="#mbc82579088" x="378.081752" y="92.276053" style="fill: #055e49"/>
     <use xlink:href="#mbc82579088" x="381.187503" y="92.11714" style="fill: #055e49"/>
     <use xlink:href="#mbc82579088" x="384.293254" y="92.016619" style="fill: #055e49"/>
     <use xlink:href="#mbc82579088" x="387.399006" y="92.077119" style="fill: #055e49"/>
    </g>
   </g>
   <g id="line2d_42">
    <path d="M 83.035369 82.227906 
L 104.775629 81.459926 
L 123.410137 80.56885 
L 135.833143 79.792826 
L 148.256149 78.799312 
L 157.573403 77.849273 
L 166.890657 76.644326 
L 173.10216 75.642918 
L 179.313662 74.421213 
L 185.525165 72.895731 
L 188.630917 71.980402 
L 191.736668 70.933483 
L 194.842419 69.723458 
L 198.724609 67.914843 
L 201.83036 66.154564 
L 204.159674 64.59189 
L 206.488987 62.75897 
L 208.818301 60.57427 
L 210.371176 58.865343 
L 211.924052 56.89795 
L 213.476928 54.603684 
L 215.029803 51.88623 
L 216.582679 48.605363 
L 218.135555 44.549539 
L 219.688431 39.391269 
L 220.464868 36.252229 
L 222.017744 28.526255 
L 223.57062 19.524483 
L 224.347058 16.684265 
L 225.123495 17.510057 
L 225.899933 21.945901 
L 228.229247 39.570718 
L 229.782123 49.338221 
L 231.334998 57.595205 
L 232.887874 64.848113 
L 235.217188 74.586869 
L 239.099377 89.518921 
L 242.205128 101.681508 
L 244.534442 111.818931 
L 246.087317 119.569213 
L 247.640193 128.690098 
L 249.193069 140.088238 
L 250.745944 154.879962 
L 251.522382 162.375663 
L 252.29882 165.383317 
L 253.075258 161.532407 
L 254.628134 149.051321 
L 255.404572 143.953496 
L 256.181009 139.703207 
L 257.733885 133.066767 
L 259.286761 128.102872 
L 260.839636 124.220007 
L 262.392512 121.079359 
L 263.945388 118.474008 
L 265.498264 116.26988 
L 267.051139 114.375772 
L 269.380453 111.979653 
L 271.709766 109.989499 
L 273.262642 108.837904 
L 275.591956 107.319794 
L 278.697707 105.605981 
L 281.803458 104.165922 
L 284.90921 102.937272 
L 288.014961 101.875638 
L 294.226464 100.131252 
L 300.437967 98.755709 
L 306.64947 97.641838 
L 312.860972 96.720694 
L 322.178226 95.602613 
L 331.495481 94.713567 
L 343.918486 93.776749 
L 359.447243 92.879653 
L 378.081752 92.068763 
L 387.399006 91.739851 
L 387.399006 91.739851 
" clip-path="url(#p64302a73e2)" style="fill: none; stroke: #f3aa0c; stroke-width: 2; stroke-linecap: round"/>
   </g>
  </g>
 </g>
 <defs>
  <clipPath id="p64302a73e2">
   <rect x="67.817188" y="7.2" width="334.8" height="166.32"/>
  </clipPath>
 </defs>
</svg>
